<?xml version="1.0" encoding="UTF-8" standalone="no"?>
<!-- Created with Inkscape (http://www.inkscape.org/) -->

<svg
   width="210mm"
   height="297mm"
   viewBox="0 0 210 297"
   version="1.1"
   id="svg5"
   xml:space="preserve"
   inkscape:version="1.2.1 (9c6d41e410, 2022-07-14)"
   sodipodi:docname="face.svg"
   xmlns:inkscape="http://www.inkscape.org/namespaces/inkscape"
   xmlns:sodipodi="http://sodipodi.sourceforge.net/DTD/sodipodi-0.dtd"
   xmlns="http://www.w3.org/2000/svg"
   xmlns:svg="http://www.w3.org/2000/svg"><sodipodi:namedview
     id="namedview7"
     pagecolor="#ffffff"
     bordercolor="#666666"
     borderopacity="1.0"
     inkscape:showpageshadow="2"
     inkscape:pageopacity="0.0"
     inkscape:pagecheckerboard="0"
     inkscape:deskcolor="#d1d1d1"
     inkscape:document-units="mm"
     showgrid="false"
     inkscape:zoom="0.89263468"
     inkscape:cx="1.1202791"
     inkscape:cy="554.53817"
     inkscape:window-width="2560"
     inkscape:window-height="1377"
     inkscape:window-x="1912"
     inkscape:window-y="-8"
     inkscape:window-maximized="1"
     inkscape:current-layer="layer1" /><defs
     id="defs2" /><g
     inkscape:label="Layer 1"
     inkscape:groupmode="layer"
     id="layer1"><g
       id="g5462"
       transform="translate(-77.065868,-67.877246)"
       inkscape:export-filename=".\face.png"
       inkscape:export-xdpi="308.01285"
       inkscape:export-ydpi="308.01285"><path
         style="opacity:1;fill:#ffffff;fill-opacity:1;stroke:none;stroke-width:0.264583px;stroke-linecap:butt;stroke-linejoin:miter;stroke-opacity:1"
         d="m 123.8982,83.735028 c -8.6707,0.266232 -15.20204,1.329998 -19.88471,6.678152 -3.67042,4.192055 -4.706109,13.01832 -3.38325,16.6078 1.70389,4.62335 5.9683,6.36005 9.79197,5.83079 5.67153,-0.78504 7.57017,-4.79437 22.4504,-1.25447 1.92424,0.45776 9.49572,1.15862 9.42827,-11.917671 -0.0284,-5.506439 -0.95675,-9.545416 -5.0284,-12.595762 -2.24032,-1.678379 -9.03576,-3.482052 -13.37428,-3.348839 z"
         id="path1705"
         sodipodi:nodetypes="ssssssss" /><circle
         style="fill:#000000;fill-opacity:1;fill-rule:evenodd;stroke-width:0.264583"
         id="path1634"
         cx="113.1512"
         cy="99.148201"
         r="3.8532932" /><circle
         style="fill:#000000;fill-opacity:1;fill-rule:evenodd;stroke-width:0.264583"
         id="circle1640"
         cx="130.19461"
         cy="97.96257"
         r="3.8532932" /><circle
         style="fill:#ffffff;fill-opacity:1;fill-rule:evenodd;stroke-width:0.264583"
         id="circle1638"
         cx="130.86377"
         cy="97.073349"
         r="1.6302395" /><circle
         style="fill:#ffffff;fill-opacity:1;fill-rule:evenodd;stroke-width:0.264583"
         id="path1636"
         cx="113.82036"
         cy="98.25898"
         r="1.6302395" /><path
         style="opacity:1;fill:#ffffff;fill-opacity:1;stroke:none;stroke-width:0.264583px;stroke-linecap:butt;stroke-linejoin:miter;stroke-opacity:1"
         d="m 107.62525,121.51069 c -4.18571,0.18676 -3.2461,6.69721 -2.6985,10.16519 0.44479,2.81683 1.26893,9.79635 3.82505,9.9294 0.97211,0.0506 2.27369,-1.91084 2.68724,-4.20352 0.48611,-2.69495 1.32966,-4.63933 3.15513,-4.73032 2.95061,-0.14707 3.64792,5.67897 6.60213,5.65897 2.41739,-0.0164 2.9796,-4.6282 5.55418,-4.66341 2.8693,-0.0392 3.67195,5.72206 6.26154,5.23978 3.25579,-0.60634 3.80818,-5.04305 4.11324,-9.6412 0.23953,-3.61035 1.65687,-10.30033 -2.77709,-10.37478 -6.13806,-0.10306 -5.17852,5.32966 -7.93828,5.37078 -2.259,0.0337 -3.53669,-5.26705 -7.02132,-5.0302 -3.28484,0.22328 -3.88686,6.30981 -6.54974,6.34014 -2.18484,0.0249 -3.03076,-4.15822 -5.21358,-4.06083 z"
         id="path3265"
         sodipodi:nodetypes="ssssssssssssss" /></g></g></svg>
