<?xml version="1.0" encoding="UTF-8" standalone="no"?>
<!-- Created with Inkscape (http://www.inkscape.org/) -->

<svg
   width="210mm"
   height="297mm"
   viewBox="0 0 210 297"
   version="1.1"
   id="svg5"
   inkscape:version="1.2.2 (732a01da63, 2022-12-09)"
   sodipodi:docname="text.svg"
   xmlns:inkscape="http://www.inkscape.org/namespaces/inkscape"
   xmlns:sodipodi="http://sodipodi.sourceforge.net/DTD/sodipodi-0.dtd"
   xmlns="http://www.w3.org/2000/svg"
   xmlns:svg="http://www.w3.org/2000/svg">
  <sodipodi:namedview
     id="namedview7"
     pagecolor="#ffffff"
     bordercolor="#000000"
     borderopacity="0.25"
     inkscape:showpageshadow="2"
     inkscape:pageopacity="0.0"
     inkscape:pagecheckerboard="0"
     inkscape:deskcolor="#d1d1d1"
     inkscape:document-units="mm"
     showgrid="false"
     inkscape:zoom="3.5705387"
     inkscape:cx="-44.110991"
     inkscape:cy="99.144703"
     inkscape:window-width="2560"
     inkscape:window-height="1377"
     inkscape:window-x="1272"
     inkscape:window-y="-8"
     inkscape:window-maximized="1"
     inkscape:current-layer="layer1" />
  <defs
     id="defs2" />
  <g
     inkscape:label="Layer 1"
     inkscape:groupmode="layer"
     id="layer1">
    <g
       id="g1294"
       inkscape:export-filename=".\text-displace.png"
       inkscape:export-xdpi="304.68597"
       inkscape:export-ydpi="304.68597">
      <rect
         style="fill:#ffffff;fill-opacity:1;stroke-width:0.449014;opacity:0"
         id="rect1157"
         width="42.682632"
         height="6.2986531"
         x="3.3345807"
         y="3.0381737" />
      <g
         aria-label="DORDADAMOS "
         id="text236"
         style="font-weight:bold;font-size:4.10379px;font-family:Georgia;-inkscape-font-specification:'Georgia Bold';letter-spacing:0.529167px;stroke-width:0.672115">
        <path
           d="m 8.3004757,5.0759442 q 0.2604945,0.1703233 0.4207987,0.4548634 0.1603043,0.2825364 0.1603043,0.6933161 0,0.3606847 -0.1442738,0.6291943 Q 8.5950348,7.1198239 8.358586,7.2901472 8.1181296,7.4604705 7.8115476,7.5446303 7.5069695,7.6267862 7.1723343,7.6267862 H 5.7396147 V 7.4704895 q 0.064122,-0.002 0.1603043,-0.012023 0.096183,-0.010019 0.1282434,-0.024046 0.072137,-0.030057 0.1001902,-0.080152 0.028053,-0.052099 0.028053,-0.1242358 V 5.2142067 q 0,-0.068129 -0.026049,-0.122232 -0.02605,-0.056106 -0.102194,-0.090171 -0.076145,-0.034065 -0.1623081,-0.046088 -0.08416,-0.012023 -0.1302472,-0.01603 V 4.7833889 h 1.5128717 q 0.2424602,0 0.5189851,0.062118 0.2765249,0.062118 0.5330118,0.2304374 z m -0.408776,2.0378683 q 0.098186,-0.1603043 0.1422701,-0.3807227 0.046088,-0.2224222 0.046088,-0.5109699 0,-0.2825363 -0.060114,-0.5149775 Q 7.9598291,5.4747011 7.8436085,5.3103893 7.7273879,5.1460774 7.5530569,5.0559062 7.3807298,4.965735 7.1603114,4.965735 q -0.070133,0 -0.1603043,0.00401 -0.088167,0.002 -0.132251,0.00401 v 2.1580965 q 0,0.072137 0.018034,0.1282435 0.020038,0.054103 0.066126,0.096183 0.046087,0.04208 0.112213,0.066126 0.068129,0.022042 0.1763347,0.022042 0.2264298,0 0.3887379,-0.08416 0.1623081,-0.08416 0.2624982,-0.2464679 z"
           style="stroke-width:0.672117;fill:#999999;fill-opacity:1"
           id="path1261" />
        <path
           d="m 12.318264,5.0999899 q 0.2104,0.1923651 0.332632,0.4648824 0.124236,0.2725173 0.124236,0.6211791 0,0.3105896 -0.104198,0.5911221 -0.104198,0.2805325 -0.300571,0.4829167 -0.206391,0.2103993 -0.48492,0.3286238 -0.278529,0.1162206 -0.663259,0.1162206 -0.31059,0 -0.587115,-0.102194 Q 10.358545,7.5005466 10.148145,7.3061777 9.9397496,7.1158163 9.8175175,6.843299 9.6952855,6.5707817 9.6952855,6.2361465 q 0,-0.3486618 0.1182244,-0.6311981 0.1202283,-0.2845401 0.3286241,-0.4869243 0.206392,-0.1983766 0.488928,-0.3045781 0.28454,-0.1082054 0.605149,-0.1082054 0.318604,0 0.597133,0.1041977 0.280532,0.1041978 0.48492,0.2905516 z m -0.514977,2.0338606 q 0.09017,-0.1823461 0.130247,-0.4127835 0.04008,-0.2304374 0.04008,-0.5209889 0,-0.2464679 -0.03607,-0.4789091 -0.03407,-0.234445 -0.118225,-0.4167912 -0.08616,-0.1823461 -0.228433,-0.2925553 -0.14227,-0.1102092 -0.354673,-0.1102092 -0.362689,0 -0.551046,0.3446542 -0.188358,0.3426505 -0.188358,0.969841 0,0.2665059 0.04008,0.5029547 0.04208,0.2364488 0.130247,0.4127835 0.09017,0.1783386 0.228434,0.2785287 0.138262,0.098186 0.340647,0.098186 0.198376,0 0.340646,-0.1001902 0.14227,-0.1001901 0.22643,-0.2745211 z"
           style="stroke-width:0.672117;fill:#999999;fill-opacity:1"
           id="path1263" />
        <path
           d="M 16.849027,7.6267862 H 15.758958 Q 15.476422,7.1939647 15.288064,6.9374778 15.10171,6.6809909 14.823182,6.3443519 h -0.11021 v 0.8636394 q 0,0.072137 0.02605,0.122232 0.02805,0.050095 0.104198,0.08416 0.03807,0.016031 0.118224,0.034065 0.08216,0.01603 0.140266,0.022042 V 7.6267862 H 13.584831 V 7.4704895 q 0.05811,-0.00601 0.152289,-0.01603 0.09618,-0.012023 0.136259,-0.028053 0.07614,-0.032061 0.102194,-0.080152 0.02605,-0.050095 0.02605,-0.1262396 V 5.2142067 q 0,-0.072137 -0.02204,-0.1202282 -0.02204,-0.048091 -0.106201,-0.08416 -0.06412,-0.026049 -0.152289,-0.044084 -0.08616,-0.018034 -0.136259,-0.026049 V 4.7833889 h 1.595028 q 0.535015,0 0.81154,0.1683195 0.278529,0.1663157 0.278529,0.5049585 0,0.2985668 -0.172327,0.4809129 -0.170324,0.1803423 -0.520989,0.2825363 0.136258,0.1763347 0.316601,0.4087759 0.182346,0.2324413 0.378719,0.4749015 0.06212,0.078148 0.168319,0.1923651 0.108205,0.112213 0.190361,0.1382625 0.04609,0.014027 0.116221,0.024046 0.07214,0.010019 0.102194,0.012023 z m -1.36459,-2.1140128 q 0,-0.2845401 -0.160305,-0.4147873 -0.1583,-0.1322511 -0.452859,-0.1322511 h -0.158301 v 1.1902594 h 0.152289 q 0.29456,0 0.456868,-0.1542929 0.162308,-0.1542929 0.162308,-0.4889281 z"
           style="stroke-width:0.672117;fill:#999999;fill-opacity:1"
           id="path1265" />
        <path
           d="m 19.94707,5.0759442 q 0.260494,0.1703233 0.420798,0.4548634 0.160305,0.2825364 0.160305,0.6933161 0,0.3606847 -0.144274,0.6291943 -0.14227,0.2665059 -0.378719,0.4368292 -0.240456,0.1703233 -0.547038,0.2544831 -0.304578,0.082156 -0.639214,0.082156 H 17.386209 V 7.4704895 q 0.06412,-0.002 0.160304,-0.012023 0.09618,-0.010019 0.128243,-0.024046 0.07214,-0.030057 0.100191,-0.080152 Q 17.803,7.30217 17.803,7.2300331 V 5.2142067 q 0,-0.068129 -0.02605,-0.122232 -0.02605,-0.056106 -0.102194,-0.090171 -0.07614,-0.034065 -0.162308,-0.046088 -0.08416,-0.012023 -0.130247,-0.01603 V 4.7833889 h 1.512872 q 0.24246,0 0.518985,0.062118 0.276525,0.062118 0.533012,0.2304374 z m -0.408776,2.0378683 q 0.09819,-0.1603043 0.14227,-0.3807227 0.04609,-0.2224222 0.04609,-0.5109699 0,-0.2825363 -0.06011,-0.5149775 Q 19.606423,5.4747011 19.490203,5.3103893 19.373982,5.1460774 19.199651,5.0559062 19.027324,4.965735 18.806905,4.965735 q -0.07013,0 -0.160304,0.00401 -0.08817,0.002 -0.132251,0.00401 v 2.1580965 q 0,0.072137 0.01803,0.1282435 0.02004,0.054103 0.06613,0.096183 0.04609,0.04208 0.112213,0.066126 0.06813,0.022042 0.176335,0.022042 0.226429,0 0.388738,-0.08416 0.162308,-0.08416 0.262498,-0.2464679 z"
           style="stroke-width:0.672117;fill:#999999;fill-opacity:1"
           id="path1267" />
        <path
           d="m 24.423729,7.6267862 h -1.54894 V 7.4704895 q 0.108205,-0.00802 0.254483,-0.038072 0.146278,-0.032061 0.146278,-0.078148 0,-0.01603 -0.004,-0.036068 -0.002,-0.020038 -0.01603,-0.054103 l -0.24246,-0.5891183 h -0.981864 q -0.03407,0.082156 -0.07615,0.1923652 -0.04008,0.1102092 -0.07013,0.1963727 -0.03807,0.112213 -0.04609,0.1623081 -0.006,0.050095 -0.006,0.070133 0,0.064122 0.09618,0.1102092 0.09819,0.044084 0.324616,0.064122 V 7.6267862 H 21.087396 V 7.4704895 q 0.06613,-0.00401 0.148282,-0.020038 0.08416,-0.018034 0.132251,-0.048091 0.08216,-0.048091 0.138262,-0.1182244 0.05811,-0.070133 0.09618,-0.1663157 0.232441,-0.5630688 0.464882,-1.1281414 0.234445,-0.5650726 0.516982,-1.2463659 h 0.40076 q 0.392746,0.9658334 0.615168,1.5268984 0.222422,0.561065 0.378719,0.9297649 0.02605,0.060114 0.06613,0.1102092 0.04008,0.048091 0.114217,0.092175 0.05611,0.032061 0.130247,0.048091 0.07414,0.01603 0.134255,0.020038 z M 22.930896,6.476603 22.518112,5.4466479 22.11134,6.476603 Z"
           style="stroke-width:0.672117;fill:#999999;fill-opacity:1"
           id="path1269" />
        <path
           d="m 27.539806,5.0759442 q 0.260494,0.1703233 0.420799,0.4548634 0.160304,0.2825364 0.160304,0.6933161 0,0.3606847 -0.144274,0.6291943 -0.14227,0.2665059 -0.378719,0.4368292 -0.240456,0.1703233 -0.547038,0.2544831 -0.304578,0.082156 -0.639213,0.082156 h -1.43272 V 7.4704895 q 0.06412,-0.002 0.160304,-0.012023 0.09618,-0.010019 0.128244,-0.024046 0.07214,-0.030057 0.10019,-0.080152 0.02805,-0.052099 0.02805,-0.1242358 V 5.2142067 q 0,-0.068129 -0.02605,-0.122232 -0.02605,-0.056106 -0.102194,-0.090171 -0.07615,-0.034065 -0.162308,-0.046088 -0.08416,-0.012023 -0.130248,-0.01603 V 4.7833889 h 1.512872 q 0.24246,0 0.518985,0.062118 0.276525,0.062118 0.533012,0.2304374 z M 27.13103,7.1138125 q 0.09819,-0.1603043 0.14227,-0.3807227 0.04609,-0.2224222 0.04609,-0.5109699 0,-0.2825363 -0.06011,-0.5149775 Q 27.199159,5.4747011 27.082939,5.3103893 26.966718,5.1460774 26.792387,5.0559062 26.62006,4.965735 26.399642,4.965735 q -0.07013,0 -0.160305,0.00401 -0.08817,0.002 -0.132251,0.00401 v 2.1580965 q 0,0.072137 0.01804,0.1282435 0.02004,0.054103 0.06612,0.096183 0.04609,0.04208 0.112213,0.066126 0.06813,0.022042 0.176335,0.022042 0.22643,0 0.388738,-0.08416 0.162308,-0.08416 0.262498,-0.2464679 z"
           style="stroke-width:0.672117;fill:#999999;fill-opacity:1"
           id="path1271" />
        <path
           d="m 32.016466,7.6267862 h -1.54894 V 7.4704895 q 0.108206,-0.00802 0.254483,-0.038072 0.146278,-0.032061 0.146278,-0.078148 0,-0.01603 -0.004,-0.036068 -0.002,-0.020038 -0.01603,-0.054103 l -0.24246,-0.5891183 h -0.981864 q -0.03406,0.082156 -0.07615,0.1923652 -0.04008,0.1102092 -0.07013,0.1963727 -0.03807,0.112213 -0.04609,0.1623081 -0.006,0.050095 -0.006,0.070133 0,0.064122 0.09618,0.1102092 0.09819,0.044084 0.324616,0.064122 V 7.6267862 H 28.680133 V 7.4704895 q 0.06613,-0.00401 0.148282,-0.020038 0.08416,-0.018034 0.132251,-0.048091 0.08216,-0.048091 0.138262,-0.1182244 0.05811,-0.070133 0.09618,-0.1663157 0.232441,-0.5630688 0.464882,-1.1281414 0.234445,-0.5650726 0.516982,-1.2463659 h 0.40076 q 0.392746,0.9658334 0.615168,1.5268984 0.222422,0.561065 0.378719,0.9297649 0.02605,0.060114 0.06613,0.1102092 0.04008,0.048091 0.114216,0.092175 0.05611,0.032061 0.130248,0.048091 0.07414,0.01603 0.134254,0.020038 z M 30.523633,6.476603 30.110849,5.4466479 29.704077,6.476603 Z"
           style="stroke-width:0.672117;fill:#999999;fill-opacity:1"
           id="path1273" />
        <path
           d="M 36.479099,7.6267862 H 34.938174 V 7.4704895 q 0.06813,-0.00601 0.166316,-0.020038 0.10019,-0.014027 0.136259,-0.030057 0.07414,-0.030057 0.106201,-0.082156 0.03206,-0.052099 0.03206,-0.132251 V 5.0819556 L 34.401155,7.5806987 H 34.148676 Q 34.130641,7.5145732 34.058504,7.3182005 33.988371,7.1218277 33.944288,7.0036033 L 33.224922,5.0498948 v 1.7292825 q 0,0.2484717 0.03206,0.3787189 0.03407,0.1282434 0.108205,0.1883575 0.05009,0.04208 0.178339,0.080152 0.130247,0.038072 0.182346,0.044084 v 0.1562967 h -1.22232 V 7.4704895 q 0.0501,-0.00601 0.162308,-0.026049 0.114217,-0.022042 0.186354,-0.074141 0.08015,-0.056107 0.108205,-0.1883576 0.02805,-0.1342548 0.02805,-0.3807227 V 5.3925452 q 0,-0.1282434 -0.03206,-0.2124032 -0.03206,-0.086163 -0.09618,-0.1362586 -0.08015,-0.062118 -0.164312,-0.080152 -0.08416,-0.018034 -0.170323,-0.024046 V 4.7833889 h 1.308483 l 0.701332,1.877564 0.591122,-1.5248946 q 0.03006,-0.08416 0.05811,-0.2003803 0.02805,-0.1162206 0.03006,-0.1522891 h 1.260393 v 0.1562967 q -0.06412,0.00401 -0.134255,0.01603 -0.07013,0.012023 -0.134255,0.032061 -0.07815,0.026049 -0.104198,0.082156 -0.02405,0.056107 -0.02405,0.1242358 v 2.0138227 q 0,0.072137 0.02405,0.122232 0.02605,0.048091 0.104198,0.08416 0.04008,0.018034 0.130247,0.034065 0.09217,0.01603 0.14227,0.022042 z"
           style="stroke-width:0.672117;fill:#999999;fill-opacity:1"
           id="path1275" />
        <path
           d="m 39.927808,5.0999899 q 0.210399,0.1923651 0.332631,0.4648824 0.124236,0.2725173 0.124236,0.6211791 0,0.3105896 -0.104198,0.5911221 -0.104197,0.2805325 -0.30057,0.4829167 -0.206392,0.2103993 -0.484921,0.3286238 -0.278528,0.1162206 -0.663259,0.1162206 -0.310589,0 -0.587114,-0.102194 Q 37.968088,7.5005466 37.757689,7.3061777 37.549293,7.1158163 37.427061,6.843299 37.304829,6.5707817 37.304829,6.2361465 q 0,-0.3486618 0.118225,-0.6311981 0.120228,-0.2845401 0.328623,-0.4869243 0.206392,-0.1983766 0.488928,-0.3045781 0.28454,-0.1082054 0.605149,-0.1082054 0.318605,0 0.597134,0.1041977 0.280532,0.1041978 0.48492,0.2905516 z M 39.41283,7.1338505 q 0.09017,-0.1823461 0.130248,-0.4127835 0.04008,-0.2304374 0.04008,-0.5209889 0,-0.2464679 -0.03607,-0.4789091 -0.03406,-0.234445 -0.118224,-0.4167912 -0.08616,-0.1823461 -0.228434,-0.2925553 -0.14227,-0.1102092 -0.354673,-0.1102092 -0.362688,0 -0.551046,0.3446542 -0.188357,0.3426505 -0.188357,0.969841 0,0.2665059 0.04008,0.5029547 0.04208,0.2364488 0.130247,0.4127835 0.09017,0.1783386 0.228433,0.2785287 0.138263,0.098186 0.340647,0.098186 0.198377,0 0.340647,-0.1001902 0.14227,-0.1001901 0.226429,-0.2745211 z"
           style="stroke-width:0.672117;fill:#999999;fill-opacity:1"
           id="path1277" />
        <path
           d="m 42.386639,7.7029308 q -0.260494,0 -0.486924,-0.064122 Q 41.675289,7.5746873 41.518992,7.48652 L 41.38073,7.6267862 H 41.210407 L 41.184357,6.598835 h 0.172327 q 0.05811,0.1462776 0.148282,0.3085857 0.09017,0.1623081 0.208395,0.2905516 0.122232,0.1342548 0.272518,0.2184146 0.152289,0.08416 0.354673,0.08416 0.272517,0 0.416791,-0.132251 0.146278,-0.1342549 0.146278,-0.336639 0,-0.1663157 -0.124236,-0.2785287 Q 42.657153,6.638911 42.398662,6.5567551 42.230343,6.5026524 42.088073,6.4565649 41.947806,6.4104774 41.823571,6.3623862 41.537027,6.2481693 41.39676,6.0357662 41.258498,5.823363 41.258498,5.5608647 q 0,-0.1663157 0.07214,-0.3186048 0.07214,-0.1542928 0.210399,-0.2765249 0.132251,-0.1142168 0.338643,-0.1863537 0.206392,-0.072137 0.448852,-0.072137 0.236449,0 0.442841,0.066125 0.206391,0.064122 0.324616,0.1302472 l 0.122232,-0.1202282 h 0.174331 l 0.01603,0.969841 h -0.172327 q -0.06011,-0.1562967 -0.14227,-0.3186048 -0.08015,-0.1643119 -0.170323,-0.2725173 -0.09819,-0.1162206 -0.22643,-0.1843499 -0.128244,-0.070133 -0.300571,-0.070133 -0.21641,0 -0.354673,0.122232 -0.136259,0.1222321 -0.136259,0.3025744 0,0.1703233 0.118225,0.2785287 0.120228,0.1082054 0.372707,0.1903613 0.148282,0.050095 0.302575,0.1001902 0.154293,0.050095 0.274521,0.096183 0.290551,0.112213 0.440837,0.3105896 0.152289,0.1963727 0.152289,0.488928 0,0.18435 -0.08616,0.3566771 -0.08616,0.1723271 -0.232441,0.2865439 -0.160304,0.1262396 -0.370704,0.1943689 -0.210399,0.068129 -0.490932,0.068129 z"
           style="stroke-width:0.672117;fill:#999999;fill-opacity:1"
           id="path1279" />
      </g>
    </g>
    <g
       id="g1320"
       transform="translate(0,9.7073353)"
       inkscape:export-filename=".\text-albedo.png"
       inkscape:export-xdpi="304.68597"
       inkscape:export-ydpi="304.68597">
      <rect
         style="opacity:0;fill:#ffc061;fill-opacity:1;stroke-width:0.449014"
         id="rect1296"
         width="42.682632"
         height="6.2986531"
         x="3.3345807"
         y="3.0381737" />
      <g
         aria-label="DORDADAMOS "
         id="g1318"
         style="font-weight:bold;font-size:4.10379px;font-family:Georgia;-inkscape-font-specification:'Georgia Bold';letter-spacing:0.529167px;stroke-width:0.672115">
        <path
           d="m 8.3004757,5.0759442 q 0.2604945,0.1703233 0.4207987,0.4548634 0.1603043,0.2825364 0.1603043,0.6933161 0,0.3606847 -0.1442738,0.6291943 Q 8.5950348,7.1198239 8.358586,7.2901472 8.1181296,7.4604705 7.8115476,7.5446303 7.5069695,7.6267862 7.1723343,7.6267862 H 5.7396147 V 7.4704895 q 0.064122,-0.002 0.1603043,-0.012023 0.096183,-0.010019 0.1282434,-0.024046 0.072137,-0.030057 0.1001902,-0.080152 0.028053,-0.052099 0.028053,-0.1242358 v -2.015826 q 0,-0.068129 -0.026049,-0.122232 -0.02605,-0.056106 -0.102194,-0.090171 -0.076145,-0.034065 -0.1623081,-0.046088 -0.08416,-0.012023 -0.1302472,-0.01603 V 4.7833889 H 7.248479 q 0.2424602,0 0.5189851,0.062118 0.2765249,0.062118 0.5330116,0.2304373 z m -0.408776,2.0378683 q 0.098186,-0.1603043 0.1422701,-0.3807227 0.046088,-0.2224222 0.046088,-0.5109699 0,-0.2825363 -0.060114,-0.5149775 Q 7.9598291,5.4747011 7.8436085,5.3103893 7.7273879,5.1460774 7.5530569,5.0559062 7.3807298,4.965735 7.1603114,4.965735 q -0.070133,0 -0.1603043,0.00401 -0.088167,0.002 -0.132251,0.00401 v 2.1580965 q 0,0.072137 0.018034,0.1282435 0.020038,0.054103 0.066126,0.096183 0.046087,0.04208 0.112213,0.066126 0.068129,0.022042 0.1763347,0.022042 0.2264298,0 0.3887379,-0.08416 0.1623081,-0.08416 0.2624982,-0.2464679 z"
           style="stroke-width:0.672117"
           id="path1298" />
        <path
           d="m 12.318264,5.0999899 q 0.2104,0.1923651 0.332632,0.4648824 0.124236,0.2725173 0.124236,0.6211791 0,0.3105896 -0.104198,0.5911221 -0.104198,0.2805325 -0.300571,0.4829167 -0.206391,0.2103993 -0.48492,0.3286238 -0.278529,0.1162206 -0.663259,0.1162206 -0.31059,0 -0.587115,-0.102194 Q 10.358545,7.5005466 10.148145,7.3061777 9.9397496,7.1158163 9.8175175,6.843299 9.6952855,6.5707817 9.6952855,6.2361465 q 0,-0.3486618 0.1182244,-0.6311981 0.1202283,-0.2845401 0.3286241,-0.4869243 0.206392,-0.1983766 0.488928,-0.3045781 0.28454,-0.1082054 0.605149,-0.1082054 0.318604,0 0.597133,0.1041977 0.280532,0.1041978 0.48492,0.2905516 z m -0.514977,2.0338606 q 0.09017,-0.1823461 0.130247,-0.4127835 0.04008,-0.2304374 0.04008,-0.5209889 0,-0.2464679 -0.03607,-0.4789091 -0.03407,-0.234445 -0.118225,-0.4167912 -0.08616,-0.1823461 -0.228433,-0.2925553 -0.14227,-0.1102092 -0.354673,-0.1102092 -0.362689,0 -0.551046,0.3446542 -0.188358,0.3426505 -0.188358,0.969841 0,0.2665059 0.04008,0.5029547 0.04208,0.2364488 0.130247,0.4127835 0.09017,0.1783386 0.228434,0.2785287 0.138262,0.098186 0.340647,0.098186 0.198376,0 0.340646,-0.1001902 0.14227,-0.1001901 0.22643,-0.2745211 z"
           style="stroke-width:0.672117"
           id="path1300" />
        <path
           d="M 16.849027,7.6267862 H 15.758958 Q 15.476422,7.1939647 15.288064,6.9374778 15.10171,6.6809909 14.823182,6.3443519 h -0.11021 v 0.8636394 q 0,0.072137 0.02605,0.122232 0.02805,0.050095 0.104198,0.08416 0.03807,0.016031 0.118224,0.034065 0.08216,0.01603 0.140266,0.022042 V 7.6267862 H 13.584831 V 7.4704895 q 0.05811,-0.00601 0.152289,-0.01603 0.09618,-0.012023 0.136259,-0.028053 0.07614,-0.032061 0.102194,-0.080152 0.02605,-0.050095 0.02605,-0.1262396 V 5.2142067 q 0,-0.072137 -0.02204,-0.1202282 -0.02204,-0.048091 -0.106201,-0.08416 -0.06412,-0.026049 -0.152289,-0.044084 -0.08616,-0.018034 -0.136259,-0.026049 V 4.7833889 h 1.595028 q 0.535015,0 0.81154,0.1683195 0.278529,0.1663157 0.278529,0.5049585 0,0.2985668 -0.172327,0.4809129 -0.170324,0.1803423 -0.520989,0.2825363 0.136258,0.1763347 0.316601,0.4087759 0.182346,0.2324413 0.378719,0.4749015 0.06212,0.078148 0.168319,0.1923651 0.108205,0.112213 0.190361,0.1382625 0.04609,0.014027 0.116221,0.024046 0.07214,0.010019 0.102194,0.012023 z m -1.36459,-2.1140128 q 0,-0.2845401 -0.160305,-0.4147873 -0.1583,-0.1322511 -0.452859,-0.1322511 h -0.158301 v 1.1902594 h 0.152289 q 0.29456,0 0.456868,-0.1542929 0.162308,-0.1542929 0.162308,-0.4889281 z"
           style="stroke-width:0.672117"
           id="path1302" />
        <path
           d="m 19.94707,5.0759442 q 0.260494,0.1703233 0.420798,0.4548634 0.160305,0.2825364 0.160305,0.6933161 0,0.3606847 -0.144274,0.6291943 -0.14227,0.2665059 -0.378719,0.4368292 -0.240456,0.1703233 -0.547038,0.2544831 -0.304578,0.082156 -0.639214,0.082156 H 17.386209 V 7.4704895 q 0.06412,-0.002 0.160304,-0.012023 0.09618,-0.010019 0.128243,-0.024046 0.07214,-0.030057 0.100191,-0.080152 Q 17.803,7.30217 17.803,7.2300331 V 5.2142067 q 0,-0.068129 -0.02605,-0.122232 -0.02605,-0.056106 -0.102194,-0.090171 -0.07614,-0.034065 -0.162308,-0.046088 -0.08416,-0.012023 -0.130247,-0.01603 V 4.7833889 h 1.512872 q 0.24246,0 0.518985,0.062118 0.276525,0.062118 0.533012,0.2304373 z m -0.408776,2.0378683 q 0.09819,-0.1603043 0.14227,-0.3807227 0.04609,-0.2224222 0.04609,-0.5109699 0,-0.2825363 -0.06011,-0.5149775 Q 19.606423,5.4747011 19.490203,5.3103893 19.373982,5.1460774 19.199651,5.0559062 19.027324,4.965735 18.806905,4.965735 q -0.07013,0 -0.160304,0.00401 -0.08817,0.002 -0.132251,0.00401 v 2.1580965 q 0,0.072137 0.01803,0.1282435 0.02004,0.054103 0.06613,0.096183 0.04609,0.04208 0.112213,0.066126 0.06813,0.022042 0.176335,0.022042 0.226429,0 0.388738,-0.08416 0.162308,-0.08416 0.262498,-0.2464679 z"
           style="stroke-width:0.672117"
           id="path1304" />
        <path
           d="m 24.423729,7.6267862 h -1.54894 V 7.4704895 q 0.108205,-0.00802 0.254483,-0.038072 0.146278,-0.032061 0.146278,-0.078148 0,-0.01603 -0.004,-0.036068 -0.002,-0.020038 -0.01603,-0.054103 L 23.01306,6.6749802 h -0.981864 q -0.03407,0.082156 -0.07615,0.1923652 -0.04008,0.1102092 -0.07013,0.1963727 -0.03807,0.112213 -0.04609,0.1623081 -0.006,0.050095 -0.006,0.070133 0,0.064122 0.09618,0.1102092 0.09819,0.044084 0.324616,0.064122 V 7.6267862 H 21.087396 V 7.4704895 q 0.06613,-0.00401 0.148282,-0.020038 0.08416,-0.018034 0.132251,-0.048091 0.08216,-0.048091 0.138262,-0.1182244 0.05811,-0.070133 0.09618,-0.1663157 0.232441,-0.5630688 0.464882,-1.1281414 0.234445,-0.5650726 0.516982,-1.2463659 h 0.40076 q 0.392746,0.9658334 0.615168,1.5268984 0.222422,0.561065 0.378719,0.9297649 0.02605,0.060114 0.06613,0.1102092 0.04008,0.048091 0.114217,0.092175 0.05611,0.032061 0.130247,0.048091 0.07414,0.01603 0.134255,0.020038 z M 22.930896,6.476603 22.518112,5.4466479 22.11134,6.476603 Z"
           style="stroke-width:0.672117"
           id="path1306" />
        <path
           d="m 27.539806,5.0759442 q 0.260494,0.1703233 0.420799,0.4548634 0.160304,0.2825364 0.160304,0.6933161 0,0.3606847 -0.144274,0.6291943 -0.14227,0.2665059 -0.378719,0.4368292 -0.240456,0.1703233 -0.547038,0.2544831 -0.304578,0.082156 -0.639213,0.082156 h -1.43272 V 7.4704895 q 0.06412,-0.002 0.160304,-0.012023 0.09618,-0.010019 0.128244,-0.024046 0.07214,-0.030057 0.10019,-0.080152 0.02805,-0.052099 0.02805,-0.1242358 v -2.015826 q 0,-0.068129 -0.02605,-0.122232 -0.02605,-0.056106 -0.102194,-0.090171 -0.07615,-0.034065 -0.162308,-0.046088 -0.08416,-0.012023 -0.130248,-0.01603 V 4.7833889 h 1.512872 q 0.24246,0 0.518985,0.062118 0.276525,0.062118 0.533012,0.2304374 z M 27.13103,7.1138125 q 0.09819,-0.1603043 0.14227,-0.3807227 0.04609,-0.2224222 0.04609,-0.5109699 0,-0.2825363 -0.06011,-0.5149775 Q 27.199159,5.4747011 27.082939,5.3103893 26.966718,5.1460774 26.792387,5.0559062 26.62006,4.965735 26.399642,4.965735 q -0.07013,0 -0.160305,0.00401 -0.08817,0.002 -0.132251,0.00401 v 2.1580965 q 0,0.072137 0.01804,0.1282435 0.02004,0.054103 0.06612,0.096183 0.04609,0.04208 0.112213,0.066126 0.06813,0.022042 0.176335,0.022042 0.22643,0 0.388738,-0.08416 0.162308,-0.08416 0.262498,-0.2464679 z"
           style="stroke-width:0.672117"
           id="path1308" />
        <path
           d="m 32.016466,7.6267862 h -1.54894 V 7.4704895 q 0.108206,-0.00802 0.254483,-0.038072 0.146278,-0.032061 0.146278,-0.078148 0,-0.01603 -0.004,-0.036068 -0.002,-0.020038 -0.01603,-0.054103 l -0.24246,-0.5891183 h -0.981864 q -0.03406,0.082156 -0.07615,0.1923652 -0.04008,0.1102092 -0.07013,0.1963727 -0.03807,0.112213 -0.04609,0.1623081 -0.006,0.050095 -0.006,0.070133 0,0.064122 0.09618,0.1102092 0.09819,0.044084 0.324616,0.064122 V 7.6267862 H 28.680133 V 7.4704895 q 0.06613,-0.00401 0.148282,-0.020038 0.08416,-0.018034 0.132251,-0.048091 0.08216,-0.048091 0.138262,-0.1182244 0.05811,-0.070133 0.09618,-0.1663157 0.232441,-0.5630688 0.464882,-1.1281414 0.234445,-0.5650726 0.516982,-1.2463659 h 0.40076 q 0.392746,0.9658334 0.615168,1.5268984 0.222422,0.561065 0.378719,0.9297649 0.02605,0.060114 0.06613,0.1102092 0.04008,0.048091 0.114216,0.092175 0.05611,0.032061 0.130248,0.048091 0.07414,0.01603 0.134254,0.020038 z M 30.523633,6.476603 30.110849,5.4466479 29.704077,6.476603 Z"
           style="stroke-width:0.672117"
           id="path1310" />
        <path
           d="M 36.479099,7.6267862 H 34.938174 V 7.4704895 q 0.06813,-0.00601 0.166316,-0.020038 0.10019,-0.014027 0.136259,-0.030057 0.07414,-0.030057 0.106201,-0.082156 0.03206,-0.052099 0.03206,-0.132251 V 5.0819556 L 34.401155,7.5806987 H 34.148676 Q 34.130641,7.5145732 34.058504,7.3182005 33.988371,7.1218277 33.944288,7.0036033 L 33.224922,5.0498948 v 1.7292825 q 0,0.2484717 0.03206,0.3787189 0.03407,0.1282434 0.108205,0.1883575 0.05009,0.04208 0.178339,0.080152 0.130247,0.038072 0.182346,0.044084 v 0.1562967 h -1.22232 V 7.4704895 q 0.0501,-0.00601 0.162308,-0.026049 0.114217,-0.022042 0.186354,-0.074141 0.08015,-0.056107 0.108205,-0.1883576 0.02805,-0.1342548 0.02805,-0.3807227 v -1.408674 q 0,-0.1282434 -0.03206,-0.2124032 -0.03206,-0.086163 -0.09618,-0.1362586 -0.08015,-0.062118 -0.164312,-0.080152 -0.08416,-0.018034 -0.170323,-0.024046 V 4.7833889 h 1.308483 l 0.701332,1.877564 0.591122,-1.5248946 q 0.03006,-0.08416 0.05811,-0.2003803 0.02805,-0.1162206 0.03006,-0.1522891 h 1.260393 v 0.1562967 q -0.06412,0.00401 -0.134255,0.01603 -0.07013,0.012023 -0.134255,0.032061 -0.07815,0.026049 -0.104198,0.082156 -0.02405,0.056107 -0.02405,0.1242358 v 2.0138227 q 0,0.072137 0.02405,0.122232 0.02605,0.048091 0.104198,0.08416 0.04008,0.018034 0.130247,0.034065 0.09217,0.01603 0.14227,0.022042 z"
           style="stroke-width:0.672117"
           id="path1312" />
        <path
           d="m 39.927808,5.0999899 q 0.210399,0.1923651 0.332631,0.4648824 0.124236,0.2725173 0.124236,0.6211791 0,0.3105896 -0.104198,0.5911221 -0.104197,0.2805325 -0.30057,0.4829167 -0.206392,0.2103993 -0.484921,0.3286238 -0.278528,0.1162206 -0.663259,0.1162206 -0.310589,0 -0.587114,-0.102194 Q 37.968088,7.5005466 37.757689,7.3061777 37.549293,7.1158163 37.427061,6.843299 37.304829,6.5707817 37.304829,6.2361465 q 0,-0.3486618 0.118225,-0.6311981 0.120228,-0.2845401 0.328623,-0.4869243 0.206392,-0.1983766 0.488928,-0.3045781 0.28454,-0.1082054 0.605149,-0.1082054 0.318605,0 0.597134,0.1041977 0.280532,0.1041978 0.48492,0.2905516 z M 39.41283,7.1338505 Q 39.503,6.9515044 39.543078,6.721067 q 0.04008,-0.2304374 0.04008,-0.5209889 0,-0.2464679 -0.03607,-0.4789091 Q 39.513028,5.486724 39.428864,5.3043778 39.342704,5.1220317 39.20043,5.0118225 39.05816,4.9016133 38.845757,4.9016133 q -0.362688,0 -0.551046,0.3446542 -0.188357,0.3426505 -0.188357,0.969841 0,0.2665059 0.04008,0.5029547 0.04208,0.2364488 0.130247,0.4127835 0.09017,0.1783386 0.228433,0.2785287 0.138263,0.098186 0.340647,0.098186 0.198377,0 0.340647,-0.1001902 0.14227,-0.1001901 0.226429,-0.2745211 z"
           style="stroke-width:0.672117"
           id="path1314" />
        <path
           d="m 42.386639,7.7029308 q -0.260494,0 -0.486924,-0.064122 Q 41.675289,7.5746873 41.518992,7.48652 L 41.38073,7.6267862 H 41.210407 L 41.184357,6.598835 h 0.172327 q 0.05811,0.1462776 0.148282,0.3085857 0.09017,0.1623081 0.208395,0.2905516 0.122232,0.1342548 0.272518,0.2184146 0.152289,0.08416 0.354673,0.08416 0.272517,0 0.416791,-0.132251 0.146278,-0.1342549 0.146278,-0.336639 0,-0.1663157 -0.124236,-0.2785287 Q 42.657153,6.638911 42.398662,6.5567551 42.230343,6.5026524 42.088073,6.4565649 41.947806,6.4104774 41.823571,6.3623862 41.537027,6.2481693 41.39676,6.0357662 41.258498,5.823363 41.258498,5.5608647 q 0,-0.1663157 0.07214,-0.3186048 0.07214,-0.1542928 0.210399,-0.2765249 0.132251,-0.1142168 0.338643,-0.1863537 0.206392,-0.072137 0.448852,-0.072137 0.236449,0 0.442841,0.066125 0.206391,0.064122 0.324616,0.1302472 l 0.122232,-0.1202282 h 0.174331 l 0.01603,0.969841 h -0.172327 q -0.06011,-0.1562967 -0.14227,-0.3186048 -0.08015,-0.1643119 -0.170323,-0.2725173 -0.09819,-0.1162206 -0.22643,-0.1843499 -0.128244,-0.070133 -0.300571,-0.070133 -0.21641,0 -0.354673,0.122232 -0.136259,0.1222321 -0.136259,0.3025744 0,0.1703233 0.118225,0.2785287 0.120228,0.1082054 0.372707,0.1903613 0.148282,0.050095 0.302575,0.1001902 0.154293,0.050095 0.274521,0.096183 0.290551,0.112213 0.440837,0.3105896 0.152289,0.1963727 0.152289,0.488928 0,0.18435 -0.08616,0.3566771 -0.08616,0.1723271 -0.232441,0.2865439 -0.160304,0.1262396 -0.370704,0.1943689 -0.210399,0.068129 -0.490932,0.068129 z"
           style="stroke-width:0.672117"
           id="path1316" />
      </g>
    </g>
  </g>
</svg>
