<?xml version="1.0" encoding="UTF-8" standalone="no"?>
<!-- Created with Inkscape (http://www.inkscape.org/) -->

<svg
   width="210mm"
   height="297mm"
   viewBox="0 0 210 297"
   version="1.1"
   id="svg5"
   inkscape:version="1.2.1 (9c6d41e410, 2022-07-14)"
   sodipodi:docname="match-box-texture2.svg"
   xmlns:inkscape="http://www.inkscape.org/namespaces/inkscape"
   xmlns:sodipodi="http://sodipodi.sourceforge.net/DTD/sodipodi-0.dtd"
   xmlns="http://www.w3.org/2000/svg"
   xmlns:svg="http://www.w3.org/2000/svg">
  <sodipodi:namedview
     id="namedview7"
     pagecolor="#ffffff"
     bordercolor="#000000"
     borderopacity="0.25"
     inkscape:showpageshadow="2"
     inkscape:pageopacity="0.0"
     inkscape:pagecheckerboard="0"
     inkscape:deskcolor="#d1d1d1"
     inkscape:document-units="mm"
     showgrid="false"
     inkscape:zoom="2.5247521"
     inkscape:cx="160.41179"
     inkscape:cy="134.27061"
     inkscape:window-width="2560"
     inkscape:window-height="1377"
     inkscape:window-x="1272"
     inkscape:window-y="-8"
     inkscape:window-maximized="1"
     inkscape:current-layer="layer1" />
  <defs
     id="defs2" />
  <g
     inkscape:label="Layer 1"
     inkscape:groupmode="layer"
     id="layer1">
    <g
       id="g20555"
       transform="matrix(0.77941037,0,0,0.77941037,-13.717507,-10.611237)"
       inkscape:export-filename=".\g20555.png"
       inkscape:export-xdpi="96"
       inkscape:export-ydpi="96">
      <rect
         style="opacity:1;fill:#b9fff5;fill-opacity:1;stroke:#000000;stroke-width:0.144596"
         id="rect6982"
         width="85.843277"
         height="49.978012"
         x="23.399467"
         y="18.953358" />
      <rect
         style="opacity:1;fill:#393cb0;fill-opacity:1;stroke:#000000;stroke-width:0.0847"
         id="rect234"
         width="85.903175"
         height="17.136709"
         x="23.369518"
         y="18.923409" />
      <g
         aria-label="DorDadamos"
         id="text5420"
         style="font-weight:bold;font-size:10.2907px;font-family:Rubik;-inkscape-font-specification:'Rubik Bold';opacity:1;fill:#fffec1;stroke-width:0.57693">
        <path
           d="m 39.608911,26.732633 q 0.02058,0.576279 0.02058,0.74093 0,0.164652 -0.02058,0.720349 -0.03087,0.843838 -0.4425,1.492152 -0.401337,0.648314 -1.111395,1.018779 -0.710059,0.360175 -1.646512,0.360175 h -2.778489 q -0.113198,0 -0.195524,-0.08233 -0.08233,-0.08233 -0.08233,-0.195523 v -6.647792 q 0,-0.113198 0.08233,-0.195524 0.08233,-0.08233 0.195524,-0.08233 h 2.727035 q 0.936454,0 1.656803,0.370465 0.73064,0.360174 1.142268,1.018779 0.421918,0.648314 0.45279,1.481861 z M 35.255945,25.50804 v 3.910466 h 1.101105 q 1.296628,0 1.348082,-1.183431 0.02058,-0.59686 0.02058,-0.782093 0,-0.205814 -0.02058,-0.761512 -0.03087,-0.58657 -0.391047,-0.885 -0.349883,-0.29843 -1.008488,-0.29843 z"
           id="path20350" />
        <path
           d="m 46.040595,28.790773 q -0.03087,0.658605 -0.380756,1.204012 -0.349884,0.535116 -0.977617,0.854128 -0.627733,0.319012 -1.440698,0.319012 -0.812965,0 -1.440698,-0.319012 -0.627733,-0.319012 -0.977616,-0.854128 -0.349884,-0.545407 -0.380756,-1.204012 l -0.01029,-0.401337 0.01029,-0.391047 q 0.02058,-0.658605 0.370465,-1.204012 0.349884,-0.545407 0.977616,-0.864419 0.638024,-0.319011 1.450989,-0.319011 0.812965,0 1.440698,0.319011 0.638024,0.319012 0.987907,0.864419 0.349884,0.545407 0.370466,1.204012 0.01029,0.102907 0.01029,0.391047 0,0.29843 -0.01029,0.401337 z m -2.799071,0.782093 q 0.411628,0 0.658605,-0.216104 0.257267,-0.226396 0.28814,-0.617442 0.02058,-0.205814 0.02058,-0.349884 0,-0.14407 -0.02058,-0.349884 -0.03087,-0.391047 -0.28814,-0.607151 -0.246977,-0.226396 -0.658605,-0.226396 -0.411628,0 -0.668895,0.226396 -0.246977,0.216104 -0.277849,0.607151 -0.01029,0.102907 -0.01029,0.349884 0,0.246977 0.01029,0.349884 0.03087,0.391046 0.277849,0.617442 0.257267,0.216104 0.668895,0.216104 z"
           id="path20352" />
        <path
           d="m 50.743436,25.713854 q 0.113198,0 0.195524,0.08232 0.08232,0.08233 0.08232,0.195524 v 1.03936 q 0,0.113198 -0.08232,0.195524 -0.08233,0.08233 -0.195524,0.08233 h -0.936453 q -0.463082,0 -0.710059,0.246977 -0.236686,0.236686 -0.236686,0.699768 v 2.531512 q 0,0.113198 -0.08233,0.195523 -0.08233,0.08233 -0.195524,0.08233 h -1.296628 q -0.113197,0 -0.195523,-0.08233 -0.08233,-0.08233 -0.08233,-0.195523 v -4.795466 q 0,-0.113198 0.08233,-0.195524 0.08233,-0.08232 0.195523,-0.08232 h 1.193721 q 0.113198,0 0.195524,0.08232 0.08232,0.08233 0.08232,0.195524 v 0.236686 q 0.535117,-0.514535 1.368663,-0.514535 z"
           id="path20354" />
        <path
           d="m 58.111574,26.732633 q 0.02058,0.576279 0.02058,0.74093 0,0.164652 -0.02058,0.720349 -0.03087,0.843838 -0.4425,1.492152 -0.401337,0.648314 -1.111396,1.018779 -0.710058,0.360175 -1.646512,0.360175 h -2.778489 q -0.113197,0 -0.195523,-0.08233 -0.08232,-0.08233 -0.08232,-0.195523 v -6.647792 q 0,-0.113198 0.08232,-0.195524 0.08233,-0.08233 0.195523,-0.08233 h 2.727036 q 0.936454,0 1.656803,0.370465 0.730639,0.360174 1.142267,1.018779 0.421919,0.648314 0.452791,1.481861 z M 53.758608,25.50804 v 3.910466 h 1.101105 q 1.296628,0 1.348082,-1.183431 0.02058,-0.59686 0.02058,-0.782093 0,-0.205814 -0.02058,-0.761512 -0.03087,-0.58657 -0.391047,-0.885 -0.349884,-0.29843 -1.008489,-0.29843 z"
           id="path20356" />
        <path
           d="m 62.238139,27.56618 q 0,-0.565989 -0.596861,-0.565989 -0.339593,0 -0.555697,0.185233 -0.08233,0.08232 -0.164652,0.102907 -0.08233,0.02058 -0.205814,0.02058 h -1.306918 q -0.102907,0 -0.174942,-0.06174 -0.06175,-0.06174 -0.05145,-0.164651 0.03087,-0.319012 0.349884,-0.658605 0.329302,-0.349884 0.885,-0.576279 0.555698,-0.236686 1.224593,-0.236686 1.224594,0 1.831745,0.555698 0.617442,0.555697 0.617442,1.502442 v 3.118082 q 0,0.113198 -0.08233,0.195523 -0.08232,0.08233 -0.195523,0.08233 h -1.296628 q -0.113198,0 -0.195523,-0.08233 -0.08233,-0.08233 -0.08233,-0.195523 v -0.28814 q -0.267558,0.329303 -0.638023,0.504245 -0.370466,0.164651 -0.936454,0.164651 -0.864419,0 -1.358372,-0.452791 -0.483663,-0.452791 -0.483663,-1.17314 0,-0.689477 0.535116,-1.131977 0.535116,-0.4425 1.677384,-0.638023 z m -0.946744,1.368663 q -0.28814,0.05145 -0.452791,0.185232 -0.164651,0.123489 -0.164651,0.308721 0,0.349884 0.493953,0.349884 0.452791,0 0.761512,-0.288139 0.308721,-0.28814 0.308721,-0.699768 z"
           id="path20358" />
        <path
           d="m 68.710997,24.03647 q 0,-0.113198 0.08232,-0.195524 0.08233,-0.08232 0.195524,-0.08232 h 1.296628 q 0.113197,0 0.195523,0.08232 0.08233,0.08233 0.08233,0.195524 v 6.750699 q 0,0.113198 -0.08233,0.195523 -0.08233,0.08233 -0.195523,0.08233 h -1.245175 q -0.113198,0 -0.195523,-0.08233 -0.08233,-0.08233 -0.08233,-0.195523 v -0.236686 q -0.164651,0.195523 -0.319011,0.319011 -0.14407,0.123489 -0.421919,0.205814 -0.267558,0.09262 -0.689477,0.09262 -0.977617,0 -1.625931,-0.596861 -0.638023,-0.59686 -0.679186,-1.75971 l -0.01029,-0.421918 0.01029,-0.411628 q 0.04116,-1.162849 0.679186,-1.75971 0.638024,-0.607151 1.625931,-0.607151 0.535116,0 0.864419,0.185232 0.329302,0.185233 0.514535,0.43221 z m -1.842036,4.641105 q 0.03087,0.401338 0.246977,0.648314 0.226396,0.246977 0.679186,0.246977 0.421919,0 0.638024,-0.236686 0.226395,-0.236686 0.277849,-0.58657 0.02058,-0.102907 0.02058,-0.360174 0,-0.257268 -0.02058,-0.360175 -0.04116,-0.339593 -0.267558,-0.576279 -0.226396,-0.246977 -0.648315,-0.246977 -0.45279,0 -0.679186,0.246977 -0.216104,0.246977 -0.246977,0.648314 -0.01029,0.102907 -0.01029,0.28814 0,0.185232 0.01029,0.288139 z"
           id="path20360" />
        <path
           d="m 74.82368,27.56618 q 0,-0.565989 -0.596861,-0.565989 -0.339593,0 -0.555698,0.185233 -0.08232,0.08232 -0.164651,0.102907 -0.08232,0.02058 -0.205814,0.02058 h -1.306919 q -0.102907,0 -0.174942,-0.06174 -0.06174,-0.06174 -0.05145,-0.164651 0.03087,-0.319012 0.349884,-0.658605 0.329302,-0.349884 0.885,-0.576279 0.555698,-0.236686 1.224593,-0.236686 1.224593,0 1.831745,0.555698 0.617442,0.555697 0.617442,1.502442 v 3.118082 q 0,0.113198 -0.08233,0.195523 -0.08233,0.08233 -0.195523,0.08233 h -1.296628 q -0.113198,0 -0.195524,-0.08233 -0.08232,-0.08233 -0.08232,-0.195523 v -0.28814 q -0.267558,0.329303 -0.638024,0.504245 -0.370465,0.164651 -0.936453,0.164651 -0.864419,0 -1.358373,-0.452791 -0.483663,-0.452791 -0.483663,-1.17314 0,-0.689477 0.535117,-1.131977 0.535116,-0.4425 1.677384,-0.638023 z m -0.946745,1.368663 q -0.288139,0.05145 -0.45279,0.185232 -0.164652,0.123489 -0.164652,0.308721 0,0.349884 0.493954,0.349884 0.452791,0 0.761512,-0.288139 0.308721,-0.28814 0.308721,-0.699768 z"
           id="path20362" />
        <path
           d="m 86.256659,30.787169 q 0,0.113198 -0.08233,0.195523 -0.08233,0.08233 -0.195523,0.08233 h -1.245175 q -0.113198,0 -0.195523,-0.08233 -0.08233,-0.08233 -0.08233,-0.195523 V 28.15275 q 0,-0.493954 -0.185232,-0.720349 -0.185233,-0.226396 -0.565989,-0.226396 -0.370465,0 -0.555698,0.226396 -0.185232,0.226395 -0.185232,0.720349 v 2.634419 q 0,0.113198 -0.08233,0.195523 -0.08233,0.08233 -0.195523,0.08233 h -1.245175 q -0.113198,0 -0.195523,-0.08233 -0.08233,-0.08233 -0.08233,-0.195523 V 28.15275 q 0,-0.493954 -0.185232,-0.720349 -0.185233,-0.226396 -0.565989,-0.226396 -0.74093,0 -0.74093,0.915873 v 2.665291 q 0,0.113198 -0.08233,0.195523 -0.08233,0.08233 -0.195523,0.08233 h -1.296628 q -0.113198,0 -0.195524,-0.08233 -0.08232,-0.08233 -0.08232,-0.195523 v -4.795466 q 0,-0.113198 0.08232,-0.195524 0.08233,-0.08232 0.195524,-0.08232 h 1.245174 q 0.113198,0 0.195524,0.08232 0.08232,0.08233 0.08232,0.195524 v 0.236686 q 0.483663,-0.617442 1.306919,-0.617442 0.535116,0 0.957035,0.205814 0.421919,0.195523 0.689477,0.59686 0.29843,-0.391046 0.720349,-0.59686 0.432209,-0.205814 0.926163,-0.205814 0.936454,0 1.481861,0.58657 0.555698,0.58657 0.555698,1.759709 z"
           id="path20364" />
        <path
           d="m 92.770665,28.790773 q -0.03087,0.658605 -0.380756,1.204012 -0.349884,0.535116 -0.977616,0.854128 -0.627733,0.319012 -1.440698,0.319012 -0.812966,0 -1.440698,-0.319012 -0.627733,-0.319012 -0.977617,-0.854128 -0.349884,-0.545407 -0.380756,-1.204012 l -0.01029,-0.401337 0.01029,-0.391047 q 0.02058,-0.658605 0.370466,-1.204012 0.349883,-0.545407 0.977616,-0.864419 0.638023,-0.319011 1.450989,-0.319011 0.812965,0 1.440698,0.319011 0.638023,0.319012 0.987907,0.864419 0.349884,0.545407 0.370465,1.204012 0.01029,0.102907 0.01029,0.391047 0,0.29843 -0.01029,0.401337 z m -2.79907,0.782093 q 0.411628,0 0.658605,-0.216104 0.257267,-0.226396 0.288139,-0.617442 0.02058,-0.205814 0.02058,-0.349884 0,-0.14407 -0.02058,-0.349884 -0.03087,-0.391047 -0.288139,-0.607151 -0.246977,-0.226396 -0.658605,-0.226396 -0.411628,0 -0.668896,0.226396 -0.246977,0.216104 -0.277849,0.607151 -0.01029,0.102907 -0.01029,0.349884 0,0.246977 0.01029,0.349884 0.03087,0.391046 0.277849,0.617442 0.257268,0.216104 0.668896,0.216104 z"
           id="path20366" />
        <path
           d="m 95.178683,28.976006 q -0.782093,-0.14407 -1.204012,-0.57628 -0.421918,-0.4425 -0.421918,-1.131977 0,-0.463081 0.29843,-0.833546 0.308721,-0.380756 0.854128,-0.596861 0.555698,-0.226395 1.255466,-0.226395 0.689476,0 1.245174,0.216104 0.565989,0.205814 0.895291,0.535117 0.329303,0.329302 0.360175,0.689477 0.01029,0.113197 -0.08233,0.195523 -0.08233,0.08233 -0.195523,0.08233 H 96.95897 q -0.113197,0 -0.267558,-0.113198 -0.133779,-0.102907 -0.288139,-0.154361 -0.154361,-0.06174 -0.4425,-0.06174 -0.246977,0 -0.401338,0.07203 -0.15436,0.07203 -0.15436,0.216105 0,0.123488 0.05145,0.185232 0.06174,0.06175 0.205814,0.09262 0.154361,0.03087 0.524826,0.08233 l 0.638023,0.102907 q 0.895291,0.14407 1.337791,0.617442 0.452791,0.463082 0.452791,1.111396 0,0.463081 -0.319012,0.854128 -0.308721,0.380756 -0.905581,0.607151 -0.58657,0.226396 -1.389245,0.226396 -0.771802,0 -1.348081,-0.216105 -0.565989,-0.226395 -0.87471,-0.565988 -0.29843,-0.339594 -0.329302,-0.689477 -0.01029,-0.113198 0.07203,-0.195524 0.09262,-0.08233 0.205814,-0.08233 h 1.276046 q 0.07203,0 0.113198,0.03087 0.05145,0.02058 0.113198,0.08233 0.123488,0.113198 0.277849,0.185233 0.15436,0.06174 0.493953,0.06174 0.319012,0 0.535117,-0.08233 0.226395,-0.09262 0.226395,-0.236686 0,-0.164652 -0.164651,-0.216105 -0.154361,-0.06174 -0.679186,-0.14407 z"
           id="path20368" />
      </g>
      <g
         aria-label="WINDPROOF   WATERPROOF"
         transform="matrix(0.86793325,0,0,0.6257718,5.0868653,12.240708)"
         id="text6986"
         style="font-weight:bold;font-size:4.47269px;font-family:'Sitka Small';-inkscape-font-specification:'Sitka Small Bold';opacity:1;fill:#393939;stroke-width:0.250753">
        <path
           d="m 25.025658,40.510722 q -0.01423,-0.02846 -0.03456,-0.05692 -0.0183,-0.02846 -0.05286,-0.04473 l -0.213469,-0.09759 v -0.189073 h 1.331642 v 0.189073 l -0.34765,0.132147 0.463533,1.518682 0.05286,0.282593 h 0.04676 l 0.496062,-1.522748 0.217535,-0.538756 h 0.504195 l 0.57535,1.787043 0.06099,0.278527 h 0.04269 l 0.563153,-1.791109 -0.355783,-0.146379 v -0.189073 h 1.061248 v 0.189073 L 29.227951,40.4172 q -0.02846,0.01423 -0.05693,0.04269 -0.02846,0.02846 -0.03863,0.05896 l -0.679036,2.051338 -0.209403,0.530624 h -0.518426 l -0.569251,-1.78501 -0.06709,-0.274461 h -0.04066 l -0.500128,1.528847 -0.215503,0.530624 h -0.512326 z"
           id="path20475" />
        <path
           d="M 29.675226,42.883281 30.024909,42.7491 q 0.03456,-0.01423 0.05286,-0.03253 0.0183,-0.02033 0.0183,-0.06506 v -2.116396 q 0,-0.04066 -0.02236,-0.05896 -0.02033,-0.02033 -0.04879,-0.0305 l -0.349683,-0.13418 v -0.189073 h 1.545111 v 0.189073 l -0.34765,0.13418 q -0.03253,0.0122 -0.05489,0.0305 -0.02033,0.0183 -0.02033,0.05896 v 2.116396 q 0,0.04473 0.02033,0.06506 0.02236,0.02033 0.05489,0.03253 l 0.34765,0.134181 v 0.189072 h -1.545111 z"
           id="path20477" />
        <path
           d="m 32.669897,41.132832 -0.14028,-0.25413 h -0.04269 v 1.760614 q 0,0.04473 0.02236,0.06302 0.0244,0.0183 0.04879,0.0305 l 0.323253,0.150445 v 0.189072 h -1.211692 v -0.189072 l 0.329353,-0.150445 q 0.03049,-0.01423 0.05083,-0.0305 0.02033,-0.0183 0.02033,-0.06302 v -2.104198 q 0,-0.04066 -0.02236,-0.05896 -0.02033,-0.02033 -0.04879,-0.0305 l -0.339518,-0.13418 v -0.189073 h 1.101908 l 1.225924,1.760613 0.146379,0.256164 h 0.04269 V 40.54731 q 0,-0.04066 -0.02033,-0.05489 -0.02033,-0.01626 -0.05489,-0.03253 l -0.325286,-0.148412 v -0.189073 h 1.211692 v 0.189073 l -0.32732,0.148412 q -0.02643,0.0122 -0.05083,0.0305 -0.02236,0.01626 -0.02236,0.05692 v 2.077768 l -0.06302,0.4676 H 34.0422 Z"
           id="path20479" />
        <path
           d="M 35.394173,42.883281 35.723526,42.7491 q 0.02846,-0.0122 0.04879,-0.03253 0.02236,-0.02033 0.02236,-0.06506 v -2.116396 q 0,-0.04066 -0.02236,-0.05896 -0.02033,-0.0183 -0.04879,-0.0305 l -0.329353,-0.13418 v -0.189073 h 1.502417 q 0.162644,0 0.343584,0.02846 0.180941,0.02643 0.357816,0.09149 0.176874,0.06506 0.337484,0.174842 0.160611,0.109784 0.282593,0.27446 0.124016,0.164677 0.195172,0.390344 0.07319,0.223635 0.07319,0.520459 0,0.378145 -0.126049,0.654639 -0.124016,0.276494 -0.343584,0.457434 -0.217535,0.180941 -0.514359,0.270395 -0.294791,0.08742 -0.636342,0.08742 h -1.471922 z m 1.51055,-0.185007 q 0.217535,0 0.374079,-0.06912 0.156544,-0.07116 0.258196,-0.205337 0.101652,-0.13418 0.148412,-0.327319 0.04879,-0.193139 0.04879,-0.439137 0,-0.270395 -0.06506,-0.485897 -0.06506,-0.215502 -0.18704,-0.363914 -0.121982,-0.150445 -0.296824,-0.229734 -0.172808,-0.08132 -0.388311,-0.08132 h -0.30089 v 2.201784 z"
           id="path20481" />
        <path
           d="M 38.911334,42.883281 39.240686,42.7491 q 0.03456,-0.01423 0.05286,-0.03253 0.0183,-0.02033 0.0183,-0.06506 v -2.116396 q 0,-0.04066 -0.02033,-0.05896 -0.02033,-0.0183 -0.05083,-0.0305 l -0.329352,-0.13418 v -0.189073 h 1.50445 q 0.237866,0 0.445236,0.04879 0.209403,0.04879 0.363914,0.152478 0.154511,0.103685 0.243965,0.268361 0.08945,0.162644 0.08945,0.392377 0,0.241932 -0.07726,0.435071 -0.07726,0.193139 -0.215502,0.32732 -0.138247,0.13418 -0.329353,0.20737 -0.191105,0.07116 -0.418806,0.07116 -0.05286,0 -0.119949,-0.01017 -0.06709,-0.0122 -0.136214,-0.03253 -0.06709,-0.02033 -0.134181,-0.04676 -0.06506,-0.02846 -0.11385,-0.05896 v 0.774589 q 0,0.04473 0.02236,0.06709 0.0244,0.02033 0.05286,0.0305 l 0.343584,0.134181 v 0.189072 h -1.520714 z m 1.433294,-1.244222 q 0.101652,0 0.176874,-0.02846 0.07522,-0.0305 0.128082,-0.07726 0.05286,-0.04676 0.08539,-0.105718 0.03456,-0.06099 0.05286,-0.121982 0.0183,-0.06302 0.0244,-0.11995 0.0081,-0.05692 0.0081,-0.09962 0,-0.115883 -0.02846,-0.221601 -0.02643,-0.107751 -0.09352,-0.189073 -0.06506,-0.08132 -0.176875,-0.130115 -0.111817,-0.04879 -0.278527,-0.04879 h -0.229733 v 1.108008 q 0.02846,0.0081 0.06912,0.01423 0.04066,0.0061 0.08539,0.0122 0.04473,0.0041 0.08945,0.0061 0.04676,0.002 0.08742,0.002 z"
           id="path20483" />
        <path
           d="M 41.948696,42.883281 42.278048,42.7491 q 0.02846,-0.0122 0.04879,-0.03253 0.02236,-0.02033 0.02236,-0.06506 v -2.116396 q 0,-0.04066 -0.02236,-0.05896 -0.02033,-0.02033 -0.04879,-0.0305 l -0.329352,-0.13418 v -0.189073 h 1.536979 q 0.225667,0 0.39441,0.0305 0.170775,0.0305 0.290724,0.08539 0.121983,0.05286 0.199239,0.126049 0.07929,0.07116 0.124015,0.154511 0.04676,0.08336 0.06506,0.174841 0.0183,0.08945 0.0183,0.178908 0,0.168742 -0.05083,0.296824 -0.05083,0.128082 -0.132148,0.223635 -0.08132,0.09352 -0.185007,0.158577 -0.101652,0.06302 -0.205337,0.101652 l 0.685135,0.998223 q 0.0122,0.0183 0.02643,0.03863 0.01627,0.0183 0.03456,0.03659 0.02033,0.01626 0.04066,0.0305 0.02033,0.01423 0.04269,0.02033 l 0.325286,0.105719 v 0.189072 h -0.774588 q -0.107751,0 -0.168743,-0.01626 -0.06099,-0.0183 -0.103685,-0.05286 -0.04066,-0.03456 -0.07319,-0.08742 -0.03253,-0.05489 -0.08132,-0.128081 L 43.329127,41.836267 43.0506,41.767147 v 0.884373 q 0,0.04473 0.02033,0.06506 0.02236,0.0183 0.05489,0.03253 l 0.32732,0.134181 v 0.189072 h -1.50445 z m 1.400765,-1.384501 q 0.126048,0 0.217535,-0.04269 0.09149,-0.04473 0.150445,-0.115884 0.05896,-0.07116 0.08742,-0.162643 0.02846,-0.09352 0.02846,-0.189073 0,-0.256163 -0.134181,-0.374079 -0.134181,-0.117917 -0.392377,-0.117917 H 43.0506 v 0.977893 q 0.01626,0.0041 0.05489,0.0081 0.04066,0.0041 0.08539,0.0081 0.04676,0.0041 0.08945,0.0061 0.04473,0.002 0.06912,0.002 z"
           id="path20485" />
        <path
           d="m 46.779202,43.139444 q -0.36798,0 -0.652606,-0.105718 -0.282593,-0.105719 -0.477764,-0.304957 -0.193139,-0.201271 -0.292758,-0.487929 -0.09962,-0.286659 -0.09962,-0.64854 0,-0.339518 0.103685,-0.622111 0.103685,-0.282593 0.30089,-0.485897 0.197205,-0.205337 0.479797,-0.317154 0.284626,-0.11385 0.642441,-0.11385 0.390344,0 0.67497,0.115883 0.286659,0.115883 0.473699,0.32122 0.189072,0.205337 0.280559,0.48793 0.09149,0.282593 0.09149,0.613979 0,0.197205 -0.03863,0.390343 -0.03863,0.191106 -0.117916,0.363915 -0.07929,0.170775 -0.203304,0.317154 -0.124016,0.144346 -0.292758,0.250064 -0.168742,0.105718 -0.386278,0.164676 -0.217535,0.06099 -0.485897,0.06099 z m 0.0305,-0.359849 q 0.185007,0 0.323253,-0.07929 0.138247,-0.08132 0.229734,-0.227701 0.09149,-0.146379 0.136214,-0.351716 0.04676,-0.20737 0.04676,-0.4615 0,-0.292758 -0.04879,-0.522492 -0.04676,-0.231766 -0.146379,-0.390343 -0.09759,-0.160611 -0.248031,-0.245998 -0.150445,-0.08539 -0.355782,-0.08539 -0.197205,0 -0.335452,0.08742 -0.138247,0.08539 -0.227701,0.235832 -0.08742,0.148412 -0.128081,0.351716 -0.04066,0.201271 -0.04066,0.433038 0,0.290725 0.04676,0.522492 0.04676,0.231766 0.144346,0.396443 0.09759,0.162643 0.245998,0.250064 0.150445,0.08742 0.357815,0.08742 z"
           id="path20487" />
        <path
           d="m 50.225205,43.139444 q -0.36798,0 -0.652606,-0.105718 -0.282593,-0.105719 -0.477764,-0.304957 -0.193139,-0.201271 -0.292758,-0.487929 -0.09962,-0.286659 -0.09962,-0.64854 0,-0.339518 0.103685,-0.622111 0.103685,-0.282593 0.30089,-0.485897 0.197205,-0.205337 0.479797,-0.317154 0.284626,-0.11385 0.642441,-0.11385 0.390344,0 0.67497,0.115883 0.286659,0.115883 0.473699,0.32122 0.189072,0.205337 0.280559,0.48793 0.09149,0.282593 0.09149,0.613979 0,0.197205 -0.03863,0.390343 -0.03863,0.191106 -0.117916,0.363915 -0.07929,0.170775 -0.203304,0.317154 -0.124016,0.144346 -0.292758,0.250064 -0.168743,0.105718 -0.386278,0.164676 -0.217535,0.06099 -0.485897,0.06099 z m 0.0305,-0.359849 q 0.185007,0 0.323253,-0.07929 0.138247,-0.08132 0.229734,-0.227701 0.09149,-0.146379 0.136214,-0.351716 0.04676,-0.20737 0.04676,-0.4615 0,-0.292758 -0.04879,-0.522492 -0.04676,-0.231766 -0.146379,-0.390343 -0.09759,-0.160611 -0.248031,-0.245998 -0.150445,-0.08539 -0.355782,-0.08539 -0.197205,0 -0.335452,0.08742 -0.138247,0.08539 -0.227701,0.235832 -0.08742,0.148412 -0.128081,0.351716 -0.04066,0.201271 -0.04066,0.433038 0,0.290725 0.04676,0.522492 0.04676,0.231766 0.144346,0.396443 0.09759,0.162643 0.245998,0.250064 0.150445,0.08742 0.357815,0.08742 z"
           id="path20489" />
        <path
           d="M 52.17489,42.883281 52.504243,42.7491 q 0.03253,-0.01423 0.05083,-0.03253 0.02033,-0.02033 0.02033,-0.06506 v -2.116396 q 0,-0.04066 -0.02236,-0.05896 -0.02033,-0.0183 -0.04879,-0.0305 L 52.1749,40.311474 v -0.189073 h 2.59416 v 0.845745 h -0.309022 l -0.101652,-0.390344 q -0.01017,-0.03863 -0.03253,-0.05692 -0.02236,-0.02033 -0.05489,-0.02033 h -0.994157 v 0.896571 h 0.55502 q 0.04269,0 0.05896,-0.02033 0.0183,-0.02236 0.02846,-0.05489 l 0.101652,-0.317154 h 0.252097 v 1.144602 h -0.252097 l -0.101652,-0.315122 q -0.0122,-0.04066 -0.02846,-0.05896 -0.01626,-0.0183 -0.05896,-0.0183 h -0.55502 v 0.894538 q 0,0.04473 0.02033,0.06506 0.02236,0.02033 0.05489,0.03253 l 0.343584,0.134181 V 43.07235 H 52.17489 Z"
           id="path20491" />
        <path
           d="m 59.377968,40.510722 q -0.01423,-0.02846 -0.03456,-0.05692 -0.0183,-0.02846 -0.05286,-0.04473 l -0.213469,-0.09759 v -0.189073 h 1.331642 v 0.189073 l -0.34765,0.132147 0.463533,1.518682 0.05286,0.282593 h 0.04676 l 0.496062,-1.522748 0.217536,-0.538756 h 0.504194 l 0.57535,1.787043 0.06099,0.278527 h 0.04269 l 0.563153,-1.791109 -0.355782,-0.146379 v -0.189073 h 1.061247 v 0.189073 L 63.580261,40.4172 q -0.02846,0.01423 -0.05692,0.04269 -0.02846,0.02846 -0.03863,0.05896 l -0.679036,2.051338 -0.209403,0.530624 h -0.518426 l -0.569251,-1.78501 -0.06709,-0.274461 h -0.04066 l -0.500128,1.528847 -0.215503,0.530624 h -0.512326 z"
           id="path20493" />
        <path
           d="M 63.610764,42.883281 63.8283,42.777562 q 0.06912,-0.03253 0.09962,-0.109784 l 0.833547,-2.098098 0.245997,-0.491996 h 0.546888 l 0.996191,2.600259 q 0.01423,0.03456 0.03659,0.06506 0.02236,0.0305 0.05286,0.04269 l 0.227701,0.09759 v 0.189072 h -1.35197 V 42.883281 L 65.855242,42.7491 65.61331,42.157485 h -1.061248 l -0.223634,0.579417 0.345617,0.146379 v 0.189072 h -1.063281 z m 1.862266,-1.085644 -0.28056,-0.723763 -0.07319,-0.27446 h -0.04473 l -0.378146,0.998223 z"
           id="path20495" />
        <path
           d="M 67.447114,42.883281 67.792731,42.7491 q 0.03456,-0.01423 0.05286,-0.03253 0.02033,-0.02033 0.02033,-0.06506 v -2.15909 h -0.593648 q -0.03456,0 -0.05692,0.02033 -0.02033,0.0183 -0.0305,0.05692 L 67.0832,41.008817 h -0.306989 v -0.886406 h 2.882852 v 0.886406 H 69.350041 L 69.248388,40.56968 q -0.01017,-0.03659 -0.03456,-0.05692 -0.02236,-0.02033 -0.05083,-0.02033 H 68.56935 v 2.15909 q 0,0.04473 0.02236,0.06709 0.02236,0.02033 0.05083,0.0305 l 0.345617,0.134181 v 0.189072 h -1.541045 z"
           id="path20497" />
        <path
           d="M 70.004682,42.883281 70.334035,42.7491 q 0.0305,-0.0122 0.05083,-0.03253 0.02033,-0.02033 0.02033,-0.06506 v -2.116396 q 0,-0.04066 -0.02236,-0.05896 -0.02033,-0.02033 -0.04879,-0.0305 l -0.329353,-0.13418 v -0.189073 h 2.618557 v 0.845745 h -0.311055 l -0.101652,-0.390344 q -0.01017,-0.03863 -0.03253,-0.05692 -0.02033,-0.02033 -0.05489,-0.02033 H 71.10659 v 0.859976 h 0.536723 q 0.04269,0 0.05692,-0.01626 0.01627,-0.0183 0.0305,-0.06099 l 0.101652,-0.317154 h 0.256163 v 1.146635 h -0.256163 l -0.101652,-0.315121 q -0.01017,-0.03456 -0.02846,-0.05692 -0.01626,-0.02236 -0.05896,-0.02236 H 71.10659 v 0.97586 h 1.168999 q 0.02846,0 0.05286,-0.02236 0.0244,-0.02236 0.03253,-0.05692 l 0.103685,-0.435071 h 0.309022 v 0.892505 h -2.769002 z"
           id="path20499" />
        <path
           d="M 73.237215,42.883281 73.566567,42.7491 q 0.02846,-0.0122 0.04879,-0.03253 0.02236,-0.02033 0.02236,-0.06506 v -2.116396 q 0,-0.04066 -0.02236,-0.05896 -0.02033,-0.02033 -0.04879,-0.0305 l -0.329352,-0.13418 v -0.189073 h 1.536979 q 0.225667,0 0.39441,0.0305 0.170775,0.0305 0.290724,0.08539 0.121983,0.05286 0.199238,0.126049 0.07929,0.07116 0.124016,0.154511 0.04676,0.08336 0.06506,0.174841 0.0183,0.08945 0.0183,0.178908 0,0.168742 -0.05083,0.296824 -0.05083,0.128082 -0.132148,0.223635 -0.08132,0.09352 -0.185007,0.158577 -0.101652,0.06302 -0.205337,0.101652 l 0.685135,0.998223 q 0.0122,0.0183 0.02643,0.03863 0.01627,0.0183 0.03456,0.03659 0.02033,0.01626 0.04066,0.0305 0.02033,0.01423 0.04269,0.02033 l 0.325286,0.105719 v 0.189072 h -0.774588 q -0.107751,0 -0.168743,-0.01626 -0.06099,-0.0183 -0.103685,-0.05286 -0.04066,-0.03456 -0.07319,-0.08742 -0.03253,-0.05489 -0.08132,-0.128081 l -0.62821,-0.951464 -0.278526,-0.06912 v 0.884373 q 0,0.04473 0.02033,0.06506 0.02236,0.0183 0.05489,0.03253 l 0.32732,0.134181 v 0.189072 h -1.50445 z M 74.63798,41.49878 q 0.126048,0 0.217535,-0.04269 0.09149,-0.04473 0.150445,-0.115884 0.05896,-0.07116 0.08742,-0.162643 0.02846,-0.09352 0.02846,-0.189073 0,-0.256163 -0.134181,-0.374079 -0.134181,-0.117917 -0.392377,-0.117917 h -0.256163 v 0.977893 q 0.01626,0.0041 0.05489,0.0081 0.04066,0.0041 0.08539,0.0081 0.04676,0.0041 0.08945,0.0061 0.04473,0.002 0.06912,0.002 z"
           id="path20501" />
        <path
           d="M 76.612062,42.883281 76.941415,42.7491 q 0.03456,-0.01423 0.05286,-0.03253 0.0183,-0.02033 0.0183,-0.06506 v -2.116396 q 0,-0.04066 -0.02033,-0.05896 -0.02033,-0.0183 -0.05083,-0.0305 l -0.329353,-0.13418 v -0.189073 h 1.50445 q 0.237866,0 0.445236,0.04879 0.209404,0.04879 0.363915,0.152478 0.154511,0.103685 0.243965,0.268361 0.08945,0.162644 0.08945,0.392377 0,0.241932 -0.07725,0.435071 -0.07726,0.193139 -0.215503,0.32732 -0.138246,0.13418 -0.329352,0.20737 -0.191106,0.07116 -0.418807,0.07116 -0.05286,0 -0.119949,-0.01017 -0.06709,-0.0122 -0.136214,-0.03253 -0.06709,-0.02033 -0.13418,-0.04676 -0.06506,-0.02846 -0.113851,-0.05896 v 0.774589 q 0,0.04473 0.02236,0.06709 0.0244,0.02033 0.05286,0.0305 l 0.343584,0.134181 v 0.189072 h -1.520715 z m 1.433294,-1.244222 q 0.101652,0 0.176874,-0.02846 0.07522,-0.0305 0.128082,-0.07726 0.05286,-0.04676 0.08539,-0.105718 0.03456,-0.06099 0.05286,-0.121982 0.0183,-0.06302 0.0244,-0.11995 0.0081,-0.05692 0.0081,-0.09962 0,-0.115883 -0.02846,-0.221601 -0.02643,-0.107751 -0.09352,-0.189073 -0.06506,-0.08132 -0.176875,-0.130115 -0.111817,-0.04879 -0.278526,-0.04879 H 77.71397 v 1.108008 q 0.02846,0.0081 0.06912,0.01423 0.04066,0.0061 0.08539,0.0122 0.04473,0.0041 0.08945,0.0061 0.04676,0.002 0.08742,0.002 z"
           id="path20503" />
        <path
           d="M 79.649423,42.883281 79.978776,42.7491 q 0.02846,-0.0122 0.04879,-0.03253 0.02236,-0.02033 0.02236,-0.06506 v -2.116396 q 0,-0.04066 -0.02236,-0.05896 -0.02033,-0.02033 -0.04879,-0.0305 l -0.329353,-0.13418 v -0.189073 h 1.536979 q 0.225668,0 0.39441,0.0305 0.170776,0.0305 0.290725,0.08539 0.121982,0.05286 0.199238,0.126049 0.07929,0.07116 0.124015,0.154511 0.04676,0.08336 0.06506,0.174841 0.0183,0.08945 0.0183,0.178908 0,0.168742 -0.05083,0.296824 -0.05083,0.128082 -0.132148,0.223635 -0.08132,0.09352 -0.185006,0.158577 -0.101652,0.06302 -0.205337,0.101652 l 0.685134,0.998223 q 0.0122,0.0183 0.02643,0.03863 0.01626,0.0183 0.03456,0.03659 0.02033,0.01626 0.04066,0.0305 0.02033,0.01423 0.04269,0.02033 l 0.325287,0.105719 v 0.189072 h -0.774589 q -0.107751,0 -0.168742,-0.01626 -0.06099,-0.0183 -0.103685,-0.05286 -0.04066,-0.03456 -0.07319,-0.08742 -0.03253,-0.05489 -0.08132,-0.128081 l -0.62821,-0.951464 -0.278527,-0.06912 v 0.884373 q 0,0.04473 0.02033,0.06506 0.02236,0.0183 0.05489,0.03253 l 0.32732,0.134181 v 0.189072 h -1.504451 z m 1.400765,-1.384501 q 0.126049,0 0.217536,-0.04269 0.09149,-0.04473 0.150445,-0.115884 0.05896,-0.07116 0.08742,-0.162643 0.02846,-0.09352 0.02846,-0.189073 0,-0.256163 -0.134181,-0.374079 -0.13418,-0.117917 -0.392376,-0.117917 h -0.256164 v 0.977893 q 0.01627,0.0041 0.05489,0.0081 0.04066,0.0041 0.08539,0.0081 0.04676,0.0041 0.08945,0.0061 0.04473,0.002 0.06912,0.002 z"
           id="path20505" />
        <path
           d="m 84.479928,43.139444 q -0.367981,0 -0.652606,-0.105718 -0.282593,-0.105719 -0.477765,-0.304957 -0.193139,-0.201271 -0.292758,-0.487929 -0.09962,-0.286659 -0.09962,-0.64854 0,-0.339518 0.103685,-0.622111 0.103685,-0.282593 0.30089,-0.485897 0.197205,-0.205337 0.479798,-0.317154 0.284626,-0.11385 0.642441,-0.11385 0.390344,0 0.67497,0.115883 0.286658,0.115883 0.473698,0.32122 0.189073,0.205337 0.28056,0.48793 0.09149,0.282593 0.09149,0.613979 0,0.197205 -0.03863,0.390343 -0.03863,0.191106 -0.117917,0.363915 -0.07929,0.170775 -0.203304,0.317154 -0.124015,0.144346 -0.292758,0.250064 -0.168742,0.105718 -0.386277,0.164676 -0.217536,0.06099 -0.485897,0.06099 z m 0.0305,-0.359849 q 0.185006,0 0.323253,-0.07929 0.138247,-0.08132 0.229734,-0.227701 0.09149,-0.146379 0.136213,-0.351716 0.04676,-0.20737 0.04676,-0.4615 0,-0.292758 -0.04879,-0.522492 -0.04676,-0.231766 -0.146379,-0.390343 -0.09759,-0.160611 -0.248031,-0.245998 -0.150445,-0.08539 -0.355782,-0.08539 -0.197205,0 -0.335452,0.08742 -0.138246,0.08539 -0.2277,0.235832 -0.08742,0.148412 -0.128082,0.351716 -0.04066,0.201271 -0.04066,0.433038 0,0.290725 0.04676,0.522492 0.04676,0.231766 0.144346,0.396443 0.09759,0.162643 0.245998,0.250064 0.150445,0.08742 0.357816,0.08742 z"
           id="path20507" />
        <path
           d="m 87.925931,43.139444 q -0.367981,0 -0.652606,-0.105718 -0.282593,-0.105719 -0.477765,-0.304957 -0.193139,-0.201271 -0.292758,-0.487929 -0.09962,-0.286659 -0.09962,-0.64854 0,-0.339518 0.103685,-0.622111 0.103685,-0.282593 0.30089,-0.485897 0.197205,-0.205337 0.479798,-0.317154 0.284626,-0.11385 0.642441,-0.11385 0.390344,0 0.67497,0.115883 0.286658,0.115883 0.473698,0.32122 0.189073,0.205337 0.28056,0.48793 0.09149,0.282593 0.09149,0.613979 0,0.197205 -0.03863,0.390343 -0.03863,0.191106 -0.117917,0.363915 -0.07929,0.170775 -0.203304,0.317154 -0.124015,0.144346 -0.292758,0.250064 -0.168742,0.105718 -0.386277,0.164676 -0.217536,0.06099 -0.485897,0.06099 z m 0.03049,-0.359849 q 0.185007,0 0.323254,-0.07929 0.138247,-0.08132 0.229734,-0.227701 0.09149,-0.146379 0.136213,-0.351716 0.04676,-0.20737 0.04676,-0.4615 0,-0.292758 -0.04879,-0.522492 -0.04676,-0.231766 -0.146379,-0.390343 -0.09759,-0.160611 -0.248031,-0.245998 -0.150445,-0.08539 -0.355782,-0.08539 -0.197205,0 -0.335452,0.08742 -0.138246,0.08539 -0.2277,0.235832 -0.08742,0.148412 -0.128082,0.351716 -0.04066,0.201271 -0.04066,0.433038 0,0.290725 0.04676,0.522492 0.04676,0.231766 0.144346,0.396443 0.09759,0.162643 0.245998,0.250064 0.150445,0.08742 0.357815,0.08742 z"
           id="path20509" />
        <path
           d="M 89.875619,42.883281 90.204972,42.7491 q 0.03253,-0.01423 0.05083,-0.03253 0.02033,-0.02033 0.02033,-0.06506 v -2.116396 q 0,-0.04066 -0.02236,-0.05896 -0.02033,-0.0183 -0.04879,-0.0305 l -0.329353,-0.13418 v -0.189073 h 2.594161 v 0.845745 h -0.309022 l -0.101653,-0.390344 q -0.01017,-0.03863 -0.03253,-0.05692 -0.02236,-0.02033 -0.05489,-0.02033 h -0.994157 v 0.896571 h 0.55502 q 0.04269,0 0.05896,-0.02033 0.0183,-0.02236 0.02846,-0.05489 l 0.101652,-0.317154 h 0.252097 v 1.144602 H 91.72163 l -0.101652,-0.315122 q -0.0122,-0.04066 -0.02846,-0.05896 -0.01626,-0.0183 -0.05896,-0.0183 h -0.55502 v 0.894538 q 0,0.04473 0.02033,0.06506 0.02236,0.02033 0.05489,0.03253 l 0.343584,0.134181 v 0.189072 h -1.520715 z"
           id="path20511" />
      </g>
      <g
         aria-label="Matches"
         transform="matrix(0.68406909,0,0,1.0798088,-0.10188083,16.807776)"
         id="text19432"
         style="font-weight:bold;font-size:19.176px;font-family:'Sitka Small';-inkscape-font-specification:'Sitka Small Bold';opacity:1;fill:#050200;stroke:#c7bb02;stroke-width:0.548955">
        <path
           d="m 67.956828,42.534395 1.412051,-0.645011 q 0.122029,-0.06101 0.209192,-0.130746 0.09588,-0.07845 0.09588,-0.270207 v -9.021437 q 0,-0.174327 -0.08716,-0.252774 -0.08716,-0.07845 -0.217909,-0.130746 l -1.412051,-0.57528 v -0.810622 h 5.900978 l 2.475447,7.21715 0.374804,1.4382 h 0.183044 l 2.8764,-8.65535 h 5.805098 v 0.810622 l -1.394618,0.57528 q -0.122029,0.0523 -0.226626,0.130746 -0.104596,0.07845 -0.104596,0.252774 v 9.073735 q 0,0.19176 0.09588,0.278924 0.104596,0.08716 0.235342,0.139462 l 1.394618,0.57528 v 0.810621 h -6.406527 v -0.810621 l 1.385901,-0.57528 q 0.139462,-0.06101 0.235342,-0.139462 0.09588,-0.08716 0.09588,-0.278924 v -8.646633 h -0.209192 l -0.400953,1.281306 -2.510313,7.252014 -0.801905,1.9176 H 75.165261 L 72.018653,34.175402 71.64385,32.894096 h -0.200477 v 8.594335 q 0,0.19176 0.08716,0.270207 0.09588,0.07845 0.217909,0.130746 l 1.385902,0.645011 v 0.810621 h -5.17752 z"
           id="path20371" />
        <path
           d="m 90.331716,43.52806 q -0.679876,0 -1.211574,-0.235342 -0.531698,-0.244058 -0.897786,-0.636294 -0.366087,-0.392237 -0.566563,-0.889069 -0.19176,-0.505549 -0.19176,-1.037248 0,-0.618862 0.209192,-1.115694 0.209193,-0.496833 0.557848,-0.880353 0.357371,-0.38352 0.819338,-0.653727 0.461967,-0.278924 0.967516,-0.453251 0.505549,-0.183044 1.019815,-0.270208 0.522982,-0.08716 0.984949,-0.08716 0.09588,0 0.322506,0.01743 0.235341,0.01743 0.488116,0.04358 0.252774,0.02615 0.4794,0.0523 0.226625,0.02615 0.322505,0.03487 v -0.723458 q 0,-0.461967 -0.07845,-0.819338 -0.06973,-0.366088 -0.244058,-0.610146 -0.174327,-0.244058 -0.453251,-0.366087 -0.278924,-0.130746 -0.688593,-0.130746 -0.366087,0 -0.836771,0.217909 -0.461967,0.209193 -0.932651,0.50555 -0.461967,0.28764 -0.871636,0.583996 -0.409669,0.28764 -0.662444,0.444535 h -0.662443 v -2.32727 q 0.4794,-0.139461 0.941367,-0.278923 0.470684,-0.139462 0.976233,-0.244058 0.514265,-0.113313 1.098262,-0.183044 0.592712,-0.06973 1.324887,-0.06973 0.758324,0 1.473065,0.130745 0.714742,0.12203 1.263873,0.470684 0.557847,0.339938 0.889069,0.950084 0.339938,0.601429 0.339938,1.551513 v 4.663254 q 0,0.174328 0.06101,0.322506 0.06101,0.139462 0.156895,0.244058 0.09588,0.104596 0.217909,0.165611 0.122029,0.0523 0.252774,0.0523 0.200477,0 0.427102,-0.03486 0.235342,-0.04358 0.435818,-0.09588 h 0.331222 v 0.915218 q -0.183044,0.113312 -0.470684,0.252774 -0.28764,0.130746 -0.618861,0.252775 -0.322506,0.113313 -0.653728,0.19176 -0.331222,0.07845 -0.601429,0.07845 -0.566563,0 -0.984949,-0.104596 Q 94.646309,43.3276 94.367385,43.127123 94.097178,42.926647 93.957716,42.621574 93.82697,42.307785 93.82697,41.8894 h -0.139461 q -0.348655,0.531698 -0.775757,0.854203 -0.427102,0.322506 -0.871636,0.496833 -0.444535,0.174327 -0.889069,0.226626 -0.444535,0.06101 -0.819339,0.06101 z m 1.516648,-1.699691 q 0.217909,0 0.461967,-0.04358 0.252775,-0.0523 0.488116,-0.156894 0.244059,-0.113313 0.461968,-0.278924 0.217909,-0.174327 0.374803,-0.418385 v -2.344702 q -0.714741,0 -1.307454,0.08716 -0.583997,0.07845 -1.002382,0.28764 -0.418385,0.200477 -0.653727,0.549131 -0.226626,0.339939 -0.226626,0.871637 0,0.427102 0.130746,0.706025 0.139462,0.278924 0.339938,0.444535 0.209193,0.165611 0.453251,0.235342 0.252774,0.06101 0.4794,0.06101 z"
           id="path20373" />
        <path
           d="m 103.51086,43.501911 q -0.62758,0 -1.20286,-0.139462 -0.56656,-0.139462 -1.00238,-0.392236 -0.43582,-0.261491 -0.69731,-0.627578 -0.25277,-0.366088 -0.25277,-0.828055 v -6.301931 h -1.560231 v -1.351036 q 0.38352,-0.0523 0.697309,-0.09588 0.313789,-0.0523 0.540412,-0.174328 0.22663,-0.130745 0.35737,-0.374803 0.13075,-0.244059 0.1569,-0.688593 l 0.0872,-1.351037 2.58876,-0.366087 v 2.8764 h 3.41682 v 1.525364 h -3.41682 v 5.17752 q 0,0.313789 0.18305,0.57528 0.18304,0.252775 0.45325,0.435818 0.2702,0.183044 0.56656,0.28764 0.29636,0.09588 0.52298,0.09588 0.13946,0 0.32251,-0.0087 0.19176,-0.0087 0.38352,-0.01743 0.19176,-0.01743 0.36608,-0.02615 0.17433,-0.01743 0.27893,-0.03487 h 0.41838 v 0.880352 q -0.16561,0.08716 -0.49683,0.244059 -0.3225,0.156894 -0.75832,0.305072 -0.4271,0.148179 -0.93265,0.261491 -0.50555,0.113313 -1.01982,0.113313 z"
           id="path20375" />
        <path
           d="m 112.58461,43.562926 q -1.12441,0 -2.01348,-0.357371 -0.88907,-0.366088 -1.50793,-1.019815 -0.61015,-0.653727 -0.93266,-1.560229 -0.3225,-0.915218 -0.3225,-2.01348 0,-0.775757 0.21791,-1.455633 0.21791,-0.688593 0.60143,-1.263873 0.39223,-0.57528 0.9065,-1.028531 0.52298,-0.461967 1.12441,-0.775756 0.61015,-0.313789 1.26387,-0.4794 0.66245,-0.174327 1.32489,-0.174327 0.55785,0 1.0111,0.08716 0.46197,0.07845 0.81934,0.200477 0.36608,0.113312 0.63629,0.235342 0.27021,0.122029 0.45325,0.200476 v 2.431865 h -0.66244 q -0.34866,-0.226625 -0.75833,-0.496832 -0.40966,-0.278924 -0.8542,-0.514266 -0.43582,-0.235342 -0.88907,-0.392236 -0.44453,-0.165611 -0.87163,-0.165611 -0.2092,0 -0.37481,0.08716 -0.16561,0.07845 -0.31379,0.278923 -0.10459,0.148178 -0.22662,0.418386 -0.12203,0.261491 -0.21791,0.636294 -0.0959,0.366088 -0.16561,0.836771 -0.061,0.461967 -0.061,1.019815 0,0.810622 0.19176,1.429483 0.19176,0.618862 0.55785,1.045964 0.36609,0.418386 0.9065,0.636295 0.54042,0.217909 1.24644,0.217909 0.32251,0 0.64501,-0.06101 0.33122,-0.06973 0.62758,-0.174327 0.30507,-0.104596 0.584,-0.244058 0.27892,-0.148178 0.51426,-0.305073 h 0.4794 v 1.237724 q -0.36608,0.270207 -0.78447,0.540414 -0.40967,0.261491 -0.88907,0.470684 -0.4794,0.209193 -1.04596,0.339938 -0.55785,0.130746 -1.22029,0.130746 z"
           id="path20377" />
        <path
           d="m 117.70983,42.543111 1.08954,-0.470684 q 0.17433,-0.06973 0.25278,-0.148178 0.0785,-0.07845 0.0785,-0.252774 V 31.63894 q 0,-0.174328 -0.1046,-0.252775 -0.1046,-0.07845 -0.22663,-0.148178 l -1.20285,-0.645011 v -0.828054 h 4.40176 v 4.584807 l -0.0872,0.819338 q 0.3748,-0.566564 0.78447,-0.906502 0.40967,-0.348654 0.82805,-0.531698 0.41839,-0.183044 0.82806,-0.235342 0.41838,-0.06101 0.8019,-0.06101 0.65373,0 1.23773,0.174327 0.58399,0.174327 1.02853,0.557847 0.44453,0.38352 0.70602,1.002382 0.26149,0.610146 0.26149,1.481782 v 4.977044 q 0,0.209193 0.0872,0.296356 0.0872,0.07845 0.23534,0.148178 l 1.00238,0.470684 v 0.801905 h -5.42158 v -0.801905 l 0.87164,-0.470684 q 0.13946,-0.06973 0.23534,-0.148178 0.1046,-0.08716 0.1046,-0.296356 v -3.8352 q 0,-0.636295 -0.0697,-1.098262 -0.0697,-0.470684 -0.26149,-0.775757 -0.19176,-0.313789 -0.52299,-0.461967 -0.33122,-0.148178 -0.8542,-0.148178 -0.20048,0 -0.45325,0.02615 -0.24406,0.02615 -0.49683,0.104596 -0.24406,0.07845 -0.47069,0.235342 -0.21791,0.148178 -0.3748,0.400953 v 5.595906 q 0,0.174327 0.0872,0.244058 0.0959,0.06973 0.24406,0.156894 l 0.81062,0.470684 v 0.801905 h -5.43029 z"
           id="path20379" />
        <path
           d="m 136.12749,43.562926 q -1.08954,0 -2.02219,-0.322506 -0.93266,-0.331222 -1.61253,-0.9588 -0.67988,-0.636294 -1.07211,-1.568945 -0.38352,-0.932651 -0.38352,-2.13551 0,-1.098261 0.36608,-2.039629 0.37481,-0.950083 1.03725,-1.638676 0.67116,-0.697309 1.60381,-1.089546 0.94137,-0.392236 2.08321,-0.392236 1.08083,0 1.92632,0.305073 0.84549,0.305072 1.42948,0.828054 0.584,0.522982 0.88907,1.220291 0.31379,0.697309 0.31379,1.481782 0,0.08716 -0.009,0.28764 -0.009,0.200476 -0.0261,0.427102 -0.009,0.217909 -0.0261,0.418385 -0.0174,0.19176 -0.0262,0.270208 h -6.64187 q 0,1.446916 0.82805,2.213956 0.83677,0.758324 2.45802,0.758324 0.49683,0 0.92393,-0.06973 0.43582,-0.06973 0.80191,-0.174327 0.36608,-0.104597 0.67116,-0.226626 0.30507,-0.130745 0.54041,-0.252774 h 0.4794 v 1.159276 q -0.39224,0.270207 -0.89778,0.540415 -0.49684,0.26149 -1.08083,0.4794 -0.57528,0.209192 -1.22901,0.339938 -0.64501,0.139462 -1.32489,0.139462 z m 1.62125,-6.319364 q 0,-0.592713 -0.0959,-1.05468 -0.0959,-0.461968 -0.31379,-0.784473 -0.2092,-0.322506 -0.55785,-0.488116 -0.33994,-0.165611 -0.82806,-0.165611 -0.41838,0 -0.76704,0.165611 -0.34865,0.16561 -0.61014,0.4794 -0.26149,0.313789 -0.4271,0.784472 -0.1569,0.461968 -0.19176,1.063397 z"
           id="path20381" />
        <path
           d="m 146.48252,43.580358 q -0.57528,0 -1.14184,-0.06101 -0.56656,-0.06101 -1.08955,-0.156895 -0.51426,-0.09588 -0.96751,-0.209193 -0.44454,-0.113312 -0.79319,-0.226625 v -2.632342 h 1.47306 l 0.2615,0.784473 q 0.0261,0.06973 0.061,0.139462 0.0349,0.06101 0.0785,0.122029 0.0436,0.06101 0.0872,0.113313 0.0523,0.04358 0.1046,0.07845 0.18304,0.130745 0.40967,0.261491 0.23534,0.130745 0.51426,0.235342 0.27893,0.09588 0.60143,0.156894 0.33122,0.06101 0.69731,0.06101 0.33122,0 0.61886,-0.08716 0.29636,-0.08716 0.50555,-0.244058 0.21791,-0.165611 0.33994,-0.38352 0.13074,-0.226626 0.13074,-0.505549 0,-0.261491 -0.0872,-0.444535 -0.0872,-0.19176 -0.27021,-0.339938 -0.17432,-0.148178 -0.44453,-0.252775 -0.27021,-0.113312 -0.6363,-0.217909 -0.4271,-0.122029 -0.93265,-0.235342 -0.50555,-0.122029 -0.9065,-0.235341 -0.62758,-0.174328 -1.09826,-0.444535 -0.46197,-0.270207 -0.76704,-0.610145 -0.30507,-0.348655 -0.45325,-0.749608 -0.14818,-0.409669 -0.14818,-0.854203 0,-0.740891 0.3748,-1.333604 0.37481,-0.601429 1.0111,-1.019815 0.6363,-0.418385 1.47307,-0.645011 0.83677,-0.226625 1.7607,-0.226625 0.54913,0 1.02853,0.03487 0.4794,0.03487 0.89779,0.09588 0.4271,0.0523 0.79319,0.139462 0.3748,0.07845 0.71474,0.174328 v 2.667207 h -1.46435 l -0.26149,-0.854204 q -0.0436,-0.122029 -0.14818,-0.217909 -0.10459,-0.09588 -0.20047,-0.165611 -0.14818,-0.09588 -0.35737,-0.19176 -0.20048,-0.09588 -0.44454,-0.174327 -0.23534,-0.07845 -0.50555,-0.122029 -0.27021,-0.0523 -0.54041,-0.0523 -0.33122,0 -0.584,0.07845 -0.24406,0.07845 -0.41838,0.217909 -0.16562,0.139462 -0.25278,0.331222 -0.0872,0.183044 -0.0872,0.392236 0,0.252775 0.10459,0.461968 0.1046,0.200476 0.30508,0.366087 0.20047,0.165611 0.49683,0.305073 0.29636,0.130745 0.68859,0.235341 0.44454,0.122029 0.92394,0.244059 0.4794,0.122029 0.87163,0.244058 0.59272,0.174327 1.03725,0.427102 0.45325,0.252774 0.74961,0.583996 0.29635,0.331222 0.44453,0.740891 0.14818,0.409669 0.14818,0.897785 0,0.86292 -0.40095,1.490499 -0.39224,0.618861 -1.04597,1.028531 -0.65372,0.400952 -1.50793,0.592712 -0.84548,0.19176 -1.75199,0.19176 z"
           id="path20383" />
      </g>
    </g>
  </g>
</svg>
