<?xml version="1.0" encoding="UTF-8" standalone="no"?>
<!-- Created with Inkscape (http://www.inkscape.org/) -->

<svg
   width="210mm"
   height="297mm"
   viewBox="0 0 210 297"
   version="1.1"
   id="svg5"
   sodipodi:docname="tnt-bomb.svg"
   inkscape:version="1.2.1 (9c6d41e410, 2022-07-14)"
   inkscape:export-filename="tnt-bomb.png"
   inkscape:export-xdpi="96"
   inkscape:export-ydpi="96"
   xmlns:inkscape="http://www.inkscape.org/namespaces/inkscape"
   xmlns:sodipodi="http://sodipodi.sourceforge.net/DTD/sodipodi-0.dtd"
   xmlns="http://www.w3.org/2000/svg"
   xmlns:svg="http://www.w3.org/2000/svg">
  <sodipodi:namedview
     id="namedview7"
     pagecolor="#ffffff"
     bordercolor="#000000"
     borderopacity="0.25"
     inkscape:showpageshadow="2"
     inkscape:pageopacity="0.0"
     inkscape:pagecheckerboard="0"
     inkscape:deskcolor="#d1d1d1"
     inkscape:document-units="mm"
     showgrid="false"
     inkscape:zoom="0.89263468"
     inkscape:cx="171.96285"
     inkscape:cy="273.34811"
     inkscape:window-width="2560"
     inkscape:window-height="1377"
     inkscape:window-x="1272"
     inkscape:window-y="-8"
     inkscape:window-maximized="1"
     inkscape:current-layer="layer1" />
  <defs
     id="defs2" />
  <g
     inkscape:label="Layer 1"
     inkscape:groupmode="layer"
     id="layer1">
    <g
       id="g4800"
       transform="matrix(0.70674485,0,0,0.70674485,15.08982,5.6786752)">
      <rect
         style="fill:#ffffff;fill-opacity:1;stroke-width:1.01613"
         id="rect234"
         width="202.14969"
         height="82.104782"
         x="-9.1886244"
         y="6.2245517" />
      <g
         aria-label="TNT"
         id="text290"
         style="font-weight:bold;font-size:66.2897px;font-family:Rubik;-inkscape-font-specification:'Rubik Bold';letter-spacing:9.88103px;fill:#ff1000;stroke-width:16.7028"
         transform="translate(-5.8879352)">
        <path
           d="m 60.714339,23.794321 q 0.729187,0 1.259504,0.530317 0.530318,0.530318 0.530318,1.259505 v 7.026708 q 0,0.729187 -0.530318,1.259505 -0.530317,0.530317 -1.259504,0.530317 H 49.047351 v 34.006618 q 0,0.729187 -0.530318,1.259504 -0.530317,0.530318 -1.259504,0.530318 h -8.683951 q -0.729187,0 -1.259504,-0.530318 -0.530318,-0.530317 -0.530318,-1.259504 V 34.400673 H 25.116768 q -0.729187,0 -1.259504,-0.530317 -0.530318,-0.530318 -0.530318,-1.259505 v -7.026708 q 0,-0.729187 0.530318,-1.259505 0.530317,-0.530317 1.259504,-0.530317 z"
           id="path4788" />
        <path
           d="m 108.51312,70.197113 q -0.99435,0 -1.72354,-0.464028 -0.72918,-0.530318 -0.99434,-1.060635 L 90.614896,46.001371 v 22.40592 q 0,0.729187 -0.530318,1.259504 -0.530317,0.530318 -1.259504,0.530318 h -8.683951 q -0.729187,0 -1.259505,-0.530318 -0.530317,-0.530317 -0.530317,-1.259504 V 25.584143 q 0,-0.729187 0.530317,-1.259505 0.530318,-0.530317 1.259505,-0.530317 h 6.894129 q 0.994345,0 1.723532,0.530317 0.729187,0.464028 0.994346,0.994346 l 15.18034,22.671078 V 25.584143 q 0,-0.729187 0.53032,-1.259505 0.53032,-0.530317 1.2595,-0.530317 h 8.68395 q 0.72919,0 1.25951,0.530317 0.53032,0.530318 0.53032,1.259505 v 42.823148 q 0,0.729187 -0.53032,1.259504 -0.53032,0.530318 -1.25951,0.530318 z"
           id="path4790" />
        <path
           d="m 170.43155,23.794321 q 0.72918,0 1.2595,0.530317 0.53032,0.530318 0.53032,1.259505 v 7.026708 q 0,0.729187 -0.53032,1.259505 -0.53032,0.530317 -1.2595,0.530317 h -11.66699 v 34.006618 q 0,0.729187 -0.53032,1.259504 -0.53032,0.530318 -1.2595,0.530318 h -8.68395 q -0.72919,0 -1.25951,-0.530318 -0.53032,-0.530317 -0.53032,-1.259504 V 34.400673 h -11.66698 q -0.72919,0 -1.25951,-0.530317 -0.53032,-0.530318 -0.53032,-1.259505 v -7.026708 q 0,-0.729187 0.53032,-1.259505 0.53032,-0.530317 1.25951,-0.530317 z"
           id="path4792" />
      </g>
    </g>
  </g>
</svg>
