<?xml version="1.0" encoding="UTF-8" standalone="no"?>
<!-- Created with Inkscape (http://www.inkscape.org/) -->

<svg
   width="210mm"
   height="297mm"
   viewBox="0 0 210 297"
   version="1.1"
   id="svg5"
   inkscape:version="1.1.2 (b8e25be833, 2022-02-05)"
   sodipodi:docname="label.svg"
   xmlns:inkscape="http://www.inkscape.org/namespaces/inkscape"
   xmlns:sodipodi="http://sodipodi.sourceforge.net/DTD/sodipodi-0.dtd"
   xmlns="http://www.w3.org/2000/svg"
   xmlns:svg="http://www.w3.org/2000/svg">
  <sodipodi:namedview
     id="namedview7"
     pagecolor="#ffffff"
     bordercolor="#666666"
     borderopacity="1.0"
     inkscape:pageshadow="2"
     inkscape:pageopacity="0.0"
     inkscape:pagecheckerboard="0"
     inkscape:document-units="mm"
     showgrid="false"
     inkscape:zoom="0.77771465"
     inkscape:cx="768.91956"
     inkscape:cy="672.48316"
     inkscape:window-width="2560"
     inkscape:window-height="1377"
     inkscape:window-x="-8"
     inkscape:window-y="-8"
     inkscape:window-maximized="1"
     inkscape:current-layer="layer1" />
  <defs
     id="defs2" />
  <g
     inkscape:label="Layer 1"
     inkscape:groupmode="layer"
     id="layer1">
    <rect
       style="fill:#000000;fill-opacity:1;fill-rule:evenodd;stroke-width:0.269438"
       id="rect10098"
       width="200.04124"
       height="28.237114"
       x="6.4639173"
       y="106.48454" />
    <g
       aria-label="Zombie Hunter"
       id="text2828"
       style="font-size:10.5833px;line-height:1.25;fill:#ffffff;stroke-width:0.264583">
      <path
         d="M 20.264152,124.85567 H 14.25937 v -0.95085 l 4.718043,-5.83425 h -4.542344 v -0.9095 h 5.715395 v 0.92501 l -4.764552,5.86008 h 4.87824 z"
         id="path11690" />
      <path
         d="m 26.423963,121.97213 q 0,1.41076 -0.723468,2.22725 -0.723468,0.81648 -1.93786,0.81648 -1.224727,0 -1.948195,-0.81648 -0.7183,-0.81649 -0.7183,-2.22725 0,-1.41076 0.7183,-2.22725 0.723468,-0.82165 1.948195,-0.82165 1.214392,0 1.93786,0.82165 0.723468,0.81649 0.723468,2.22725 z m -1.00252,0 q 0,-1.12137 -0.439248,-1.66397 -0.439248,-0.54777 -1.21956,-0.54777 -0.790647,0 -1.229895,0.54777 -0.434081,0.5426 -0.434081,1.66397 0,1.0852 0.439249,1.64847 0.439248,0.55811 1.224727,0.55811 0.775144,0 1.214392,-0.55294 0.444416,-0.5581 0.444416,-1.65364 z"
         id="path11692" />
      <path
         d="M 36.350974,124.85567 H 35.37946 v -3.28661 q 0,-0.37207 -0.03617,-0.7183 -0.03101,-0.34623 -0.139526,-0.55294 -0.118856,-0.22221 -0.341064,-0.3359 -0.222208,-0.11368 -0.640785,-0.11368 -0.408243,0 -0.816485,0.2067 -0.408243,0.20154 -0.816486,0.51676 0.0155,0.11886 0.02584,0.27906 0.01033,0.15503 0.01033,0.31005 v 3.69486 H 31.6536 v -3.28661 q 0,-0.38241 -0.03617,-0.72347 -0.03101,-0.34623 -0.139526,-0.55294 -0.118856,-0.22221 -0.341064,-0.33073 -0.222208,-0.11368 -0.640785,-0.11368 -0.397908,0 -0.800983,0.19637 -0.397907,0.19637 -0.795814,0.50126 v 4.3098 h -0.971514 v -5.77224 h 0.971514 v 0.64078 q 0.454751,-0.37723 0.904335,-0.58911 0.454751,-0.21187 0.966346,-0.21187 0.589109,0 0.997352,0.24805 0.41341,0.24804 0.614947,0.68729 0.58911,-0.49609 1.074867,-0.71313 0.485757,-0.22221 1.038693,-0.22221 0.950843,0 1.400427,0.57878 0.454751,0.5736 0.454751,1.60713 z"
         id="path11694" />
      <path
         d="m 43.301431,121.92562 q 0,0.72347 -0.206705,1.30224 -0.201537,0.57878 -0.547768,0.97152 -0.366902,0.40824 -0.80615,0.61495 -0.439248,0.20153 -0.966346,0.20153 -0.490925,0 -0.857826,-0.11885 -0.366902,-0.11369 -0.723468,-0.31006 l -0.06201,0.26872 h -0.909502 v -8.04083 h 0.971514 v 2.8732 q 0.408242,-0.3359 0.868161,-0.54777 0.459919,-0.21704 1.033526,-0.21704 1.02319,0 1.612299,0.78548 0.594277,0.78548 0.594277,2.21691 z m -1.002519,0.0258 q 0,-1.03352 -0.341064,-1.56579 -0.341063,-0.53743 -1.100704,-0.53743 -0.423746,0 -0.857826,0.18603 -0.434081,0.18087 -0.80615,0.47026 v 3.30728 q 0.41341,0.18603 0.707965,0.25838 0.299722,0.0723 0.676959,0.0723 0.80615,0 1.260901,-0.52709 0.459919,-0.53227 0.459919,-1.66398 z"
         id="path11696" />
      <path
         d="m 45.859408,118.11708 h -1.095537 v -1.00769 h 1.095537 z m -0.06201,6.73859 h -0.971514 v -5.77224 h 0.971514 z"
         id="path11698" />
      <path
         d="m 52.551485,122.07032 h -4.252956 q 0,0.53226 0.160196,0.93017 0.160196,0.39274 0.439248,0.64595 0.268717,0.24805 0.635618,0.37207 0.372069,0.12402 0.816485,0.12402 0.58911,0 1.183387,-0.23254 0.599445,-0.23771 0.852658,-0.46508 h 0.05168 v 1.05936 q -0.490925,0.2067 -1.00252,0.34623 -0.511595,0.13953 -1.074866,0.13953 -1.436601,0 -2.24275,-0.77515 -0.80615,-0.78031 -0.80615,-2.21174 0,-1.41593 0.769976,-2.24792 0.775144,-0.83199 2.036045,-0.83199 1.167884,0 1.798334,0.68213 0.635618,0.68213 0.635618,1.93786 z m -0.945675,-0.74414 q -0.0052,-0.76481 -0.387572,-1.18339 -0.377237,-0.41858 -1.152381,-0.41858 -0.780312,0 -1.245398,0.45992 -0.459919,0.45992 -0.52193,1.14205 z"
         id="path11700" />
      <path
         d="m 63.708392,124.85567 h -1.02319 v -3.7672 h -3.839547 v 3.7672 h -1.02319 v -7.6946 h 1.02319 v 3.01789 h 3.839547 v -3.01789 h 1.02319 z"
         id="path11702" />
      <path
         d="m 70.483149,124.85567 h -0.971514 v -0.64079 q -0.490924,0.38757 -0.940508,0.59428 -0.449583,0.2067 -0.992184,0.2067 -0.909503,0 -1.41593,-0.55293 -0.506427,-0.55811 -0.506427,-1.63297 v -3.74653 h 0.971513 v 3.28661 q 0,0.43925 0.04134,0.75447 0.04134,0.31006 0.1757,0.53227 0.139526,0.22737 0.361734,0.33073 0.222208,0.10335 0.645953,0.10335 0.377237,0 0.821653,-0.19637 0.449583,-0.19637 0.837155,-0.50126 v -4.3098 h 0.971514 z"
         id="path11704" />
      <path
         d="m 77.221733,124.85567 h -0.971514 v -3.28661 q 0,-0.39791 -0.04651,-0.74414 -0.04651,-0.3514 -0.170531,-0.54777 -0.129191,-0.21704 -0.372069,-0.32039 -0.242879,-0.10852 -0.630451,-0.10852 -0.397907,0 -0.831988,0.19637 -0.434081,0.19637 -0.831988,0.50126 v 4.3098 h -0.971514 v -5.77224 h 0.971514 v 0.64078 q 0.454751,-0.37723 0.940508,-0.58911 0.485757,-0.21187 0.997352,-0.21187 0.935341,0 1.426265,0.56327 0.490925,0.56327 0.490925,1.62264 z"
         id="path11706" />
      <path
         d="m 82.089636,124.80399 q -0.273885,0.0724 -0.599445,0.11886 -0.320393,0.0465 -0.573607,0.0465 -0.883664,0 -1.343583,-0.47542 -0.459918,-0.47542 -0.459918,-1.52445 v -3.06957 h -0.656289 v -0.81648 h 0.656289 v -1.65881 h 0.971513 v 1.65881 h 2.00504 v 0.81648 h -2.00504 v 2.63033 q 0,0.45475 0.02067,0.71313 0.02067,0.25321 0.144694,0.47542 0.113687,0.2067 0.310057,0.30489 0.201538,0.093 0.60978,0.093 0.237711,0 0.496092,-0.0672 0.258382,-0.0724 0.372069,-0.11886 h 0.05168 z"
         id="path11708" />
      <path
         d="m 88.094424,122.07032 h -4.252957 q 0,0.53226 0.160196,0.93017 0.160197,0.39274 0.439248,0.64595 0.268717,0.24805 0.635619,0.37207 0.372069,0.12402 0.816485,0.12402 0.589109,0 1.183386,-0.23254 0.599445,-0.23771 0.852659,-0.46508 h 0.05168 v 1.05936 q -0.490925,0.2067 -1.00252,0.34623 -0.511595,0.13953 -1.074866,0.13953 -1.4366,0 -2.24275,-0.77515 -0.80615,-0.78031 -0.80615,-2.21174 0,-1.41593 0.769976,-2.24792 0.775144,-0.83199 2.036045,-0.83199 1.167884,0 1.798335,0.68213 0.635618,0.68213 0.635618,1.93786 z m -0.945676,-0.74414 q -0.0052,-0.76481 -0.387572,-1.18339 -0.377237,-0.41858 -1.152381,-0.41858 -0.780312,0 -1.245398,0.45992 -0.459919,0.45992 -0.52193,1.14205 z"
         id="path11710" />
      <path
         d="m 93.169033,120.14279 h -0.05168 q -0.217041,-0.0517 -0.423746,-0.0724 -0.201537,-0.0258 -0.480589,-0.0258 -0.449584,0 -0.868161,0.20153 -0.418578,0.19637 -0.80615,0.5116 v 4.09793 h -0.971514 v -5.77224 h 0.971514 v 0.85266 q 0.578774,-0.46509 1.018022,-0.65629 0.444416,-0.19637 0.904335,-0.19637 0.253214,0 0.366901,0.0155 0.113688,0.0103 0.341064,0.0465 z"
         id="path11712" />
    </g>
    <g
       aria-label="Made in Ukraine"
       id="text6462"
       style="font-size:10.5833px;line-height:1.25;fill:#ffffff;stroke-width:0.264583">
      <path
         d="m 122.19507,124.85567 h -1.02319 v -6.63007 l -2.1394,4.51134 h -0.60978 l -2.12389,-4.51134 v 6.63007 h -0.95601 v -7.6946 h 1.39526 l 2.05155,4.28396 1.98436,-4.28396 h 1.4211 z"
         id="path11733" />
      <path
         d="m 128.67011,124.85567 h -0.96635 v -0.61495 q -0.12919,0.0879 -0.3514,0.24805 -0.21704,0.15502 -0.42374,0.24804 -0.24288,0.11886 -0.55811,0.19637 -0.31522,0.0827 -0.73897,0.0827 -0.78031,0 -1.32291,-0.51676 -0.5426,-0.51676 -0.5426,-1.31774 0,-0.65629 0.27905,-1.05937 0.28422,-0.40824 0.80615,-0.64078 0.5271,-0.23255 1.26607,-0.31523 0.73897,-0.0827 1.58646,-0.12402 v -0.14986 q 0,-0.33073 -0.11885,-0.54777 -0.11369,-0.21704 -0.33073,-0.34106 -0.20671,-0.11886 -0.49609,-0.1602 -0.28939,-0.0413 -0.60462,-0.0413 -0.3824,0 -0.85265,0.10335 -0.47026,0.0982 -0.97152,0.28939 h -0.0517 v -0.98702 q 0.28422,-0.0775 0.82166,-0.17053 0.53743,-0.093 1.05936,-0.093 0.60978,0 1.05936,0.10335 0.45476,0.0982 0.78548,0.34107 0.32556,0.23771 0.4961,0.61495 0.17053,0.37723 0.17053,0.93534 z m -0.96635,-1.4211 v -1.60713 q -0.44441,0.0258 -1.04903,0.0775 -0.59944,0.0517 -0.95084,0.14986 -0.41858,0.11886 -0.67696,0.37207 -0.25838,0.24805 -0.25838,0.6873 0,0.49609 0.29972,0.7493 0.29972,0.24805 0.91467,0.24805 0.5116,0 0.93534,-0.19637 0.42375,-0.20154 0.78548,-0.48059 z"
         id="path11735" />
      <path
         d="m 135.22266,124.85567 h -0.97152 v -0.60462 q -0.41857,0.36174 -0.87332,0.56328 -0.45476,0.20153 -0.98702,0.20153 -1.03353,0 -1.64331,-0.79581 -0.60461,-0.79582 -0.60461,-2.20658 0,-0.7338 0.20671,-1.30741 0.21187,-0.5736 0.56844,-0.97668 0.35139,-0.39274 0.81648,-0.59944 0.47025,-0.20671 0.97151,-0.20671 0.45476,0 0.80615,0.0982 0.3514,0.093 0.73897,0.29455 v -2.50113 h 0.97152 z m -0.97152,-1.4211 v -3.31245 q -0.39273,-0.1757 -0.70279,-0.24288 -0.31006,-0.0672 -0.67696,-0.0672 -0.81649,0 -1.27124,0.56844 -0.45475,0.56844 -0.45475,1.6123 0,1.02836 0.3514,1.56579 0.3514,0.53227 1.12654,0.53227 0.41341,0 0.83716,-0.18087 0.42374,-0.18603 0.79064,-0.47542 z"
         id="path11737" />
      <path
         d="m 141.96641,122.07032 h -4.25296 q 0,0.53226 0.1602,0.93017 0.1602,0.39274 0.43925,0.64595 0.26872,0.24805 0.63562,0.37207 0.37207,0.12402 0.81648,0.12402 0.58911,0 1.18339,-0.23254 0.59944,-0.23771 0.85266,-0.46508 h 0.0517 v 1.05936 q -0.49092,0.2067 -1.00252,0.34623 -0.51159,0.13953 -1.07486,0.13953 -1.4366,0 -2.24275,-0.77515 -0.80615,-0.78031 -0.80615,-2.21174 0,-1.41593 0.76997,-2.24792 0.77515,-0.83199 2.03605,-0.83199 1.16788,0 1.79833,0.68213 0.63562,0.68213 0.63562,1.93786 z m -0.94567,-0.74414 q -0.005,-0.76481 -0.38758,-1.18339 -0.37723,-0.41858 -1.15238,-0.41858 -0.78031,0 -1.2454,0.45992 -0.45991,0.45992 -0.52193,1.14205 z"
         id="path11739" />
      <path
         d="m 148.20374,118.11708 h -1.09554 v -1.00769 h 1.09554 z m -0.062,6.73859 h -0.97152 v -5.77224 h 0.97152 z"
         id="path11741" />
      <path
         d="m 154.89064,124.85567 h -0.97151 v -3.28661 q 0,-0.39791 -0.0465,-0.74414 -0.0465,-0.3514 -0.17053,-0.54777 -0.12919,-0.21704 -0.37207,-0.32039 -0.24288,-0.10852 -0.63045,-0.10852 -0.39791,0 -0.83199,0.19637 -0.43408,0.19637 -0.83198,0.50126 v 4.3098 h -0.97152 v -5.77224 h 0.97152 v 0.64078 q 0.45475,-0.37723 0.9405,-0.58911 0.48576,-0.21187 0.99736,-0.21187 0.93534,0 1.42626,0.56327 0.49092,0.56327 0.49092,1.62264 z"
         id="path11743" />
      <path
         d="m 166.35244,121.76543 q 0,0.83715 -0.18603,1.46243 -0.18087,0.62012 -0.59945,1.03353 -0.3979,0.39274 -0.93017,0.57361 -0.53226,0.18086 -1.24023,0.18086 -0.72347,0 -1.2609,-0.1912 -0.53743,-0.1912 -0.90433,-0.56327 -0.41858,-0.42375 -0.60462,-1.02319 -0.18086,-0.59944 -0.18086,-1.47277 v -4.60436 h 1.02319 v 4.65603 q 0,0.62529 0.0827,0.98702 0.0879,0.36173 0.28939,0.65629 0.22737,0.33589 0.61494,0.50643 0.39274,0.17053 0.94051,0.17053 0.55294,0 0.94051,-0.16537 0.38757,-0.17053 0.62011,-0.51159 0.20154,-0.29456 0.28422,-0.67179 0.0879,-0.38241 0.0879,-0.94568 v -4.68187 h 1.02319 z"
         id="path11745" />
      <path
         d="m 173.46826,124.85567 h -1.28157 l -2.3151,-2.52697 -0.63045,0.59944 v 1.92753 h -0.97151 v -8.04083 h 0.97151 v 5.15729 l 2.80602,-2.8887 h 1.22473 l -2.682,2.66649 z"
         id="path11747" />
      <path
         d="m 178.09329,120.14279 h -0.0517 q -0.21704,-0.0517 -0.42374,-0.0724 -0.20154,-0.0258 -0.48059,-0.0258 -0.44959,0 -0.86816,0.20153 -0.41858,0.19637 -0.80615,0.5116 v 4.09793 h -0.97152 v -5.77224 h 0.97152 v 0.85266 q 0.57877,-0.46509 1.01802,-0.65629 0.44442,-0.19637 0.90433,-0.19637 0.25322,0 0.36691,0.0155 0.11368,0.0103 0.34106,0.0465 z"
         id="path11749" />
      <path
         d="m 183.30742,124.85567 h -0.96634 v -0.61495 q -0.12919,0.0879 -0.3514,0.24805 -0.21704,0.15502 -0.42375,0.24804 -0.24287,0.11886 -0.5581,0.19637 -0.31522,0.0827 -0.73897,0.0827 -0.78031,0 -1.32291,-0.51676 -0.5426,-0.51676 -0.5426,-1.31774 0,-0.65629 0.27905,-1.05937 0.28422,-0.40824 0.80615,-0.64078 0.5271,-0.23255 1.26607,-0.31523 0.73897,-0.0827 1.58646,-0.12402 v -0.14986 q 0,-0.33073 -0.11886,-0.54777 -0.11369,-0.21704 -0.33073,-0.34106 -0.2067,-0.11886 -0.49609,-0.1602 -0.28938,-0.0413 -0.60461,-0.0413 -0.3824,0 -0.85266,0.10335 -0.47025,0.0982 -0.97151,0.28939 h -0.0517 v -0.98702 q 0.28422,-0.0775 0.82165,-0.17053 0.53744,-0.093 1.05937,-0.093 0.60978,0 1.05936,0.10335 0.45475,0.0982 0.78548,0.34107 0.32556,0.23771 0.49609,0.61495 0.17053,0.37723 0.17053,0.93534 z m -0.96634,-1.4211 v -1.60713 q -0.44442,0.0258 -1.04903,0.0775 -0.59944,0.0517 -0.95084,0.14986 -0.41858,0.11886 -0.67696,0.37207 -0.25838,0.24805 -0.25838,0.6873 0,0.49609 0.29972,0.7493 0.29972,0.24805 0.91467,0.24805 0.51159,0 0.93534,-0.19637 0.42374,-0.20154 0.78548,-0.48059 z"
         id="path11751" />
      <path
         d="m 186.22197,118.11708 h -1.09554 v -1.00769 h 1.09554 z m -0.062,6.73859 h -0.97151 v -5.77224 h 0.97151 z"
         id="path11753" />
      <path
         d="m 192.90888,124.85567 h -0.97151 v -3.28661 q 0,-0.39791 -0.0465,-0.74414 -0.0465,-0.3514 -0.17054,-0.54777 -0.12919,-0.21704 -0.37206,-0.32039 -0.24288,-0.10852 -0.63045,-0.10852 -0.39791,0 -0.83199,0.19637 -0.43408,0.19637 -0.83199,0.50126 v 4.3098 h -0.97151 v -5.77224 h 0.97151 v 0.64078 q 0.45475,-0.37723 0.94051,-0.58911 0.48575,-0.21187 0.99735,-0.21187 0.93534,0 1.42626,0.56327 0.49093,0.56327 0.49093,1.62264 z"
         id="path11755" />
      <path
         d="m 199.61129,122.07032 h -4.25296 q 0,0.53226 0.1602,0.93017 0.1602,0.39274 0.43925,0.64595 0.26871,0.24805 0.63562,0.37207 0.37206,0.12402 0.81648,0.12402 0.58911,0 1.18339,-0.23254 0.59944,-0.23771 0.85266,-0.46508 h 0.0517 v 1.05936 q -0.49092,0.2067 -1.00252,0.34623 -0.51159,0.13953 -1.07486,0.13953 -1.4366,0 -2.24275,-0.77515 -0.80615,-0.78031 -0.80615,-2.21174 0,-1.41593 0.76997,-2.24792 0.77515,-0.83199 2.03605,-0.83199 1.16788,0 1.79833,0.68213 0.63562,0.68213 0.63562,1.93786 z m -0.94568,-0.74414 q -0.005,-0.76481 -0.38757,-1.18339 -0.37724,-0.41858 -1.15238,-0.41858 -0.78031,0 -1.2454,0.45992 -0.45992,0.45992 -0.52193,1.14205 z"
         id="path11757" />
    </g>
    <ellipse
       style="fill:#ffffff;fill-opacity:1;fill-rule:evenodd;stroke-width:0.264583"
       id="path10074"
       cx="103.42269"
       cy="121.96392"
       rx="2.7216496"
       ry="2.5515463" />
  </g>
</svg>
