<?xml version="1.0" encoding="UTF-8" standalone="no"?>
<!-- Created with Inkscape (http://www.inkscape.org/) -->

<svg
   width="210mm"
   height="297mm"
   viewBox="0 0 210 297"
   version="1.1"
   id="svg5"
   inkscape:version="1.2.1 (9c6d41e410, 2022-07-14)"
   sodipodi:docname="drawing.svg"
   inkscape:export-filename="drawing.png"
   inkscape:export-xdpi="61.927616"
   inkscape:export-ydpi="61.927616"
   xmlns:inkscape="http://www.inkscape.org/namespaces/inkscape"
   xmlns:sodipodi="http://sodipodi.sourceforge.net/DTD/sodipodi-0.dtd"
   xmlns="http://www.w3.org/2000/svg"
   xmlns:svg="http://www.w3.org/2000/svg">
  <sodipodi:namedview
     id="namedview7"
     pagecolor="#ffffff"
     bordercolor="#000000"
     borderopacity="0.25"
     inkscape:showpageshadow="2"
     inkscape:pageopacity="0.0"
     inkscape:pagecheckerboard="0"
     inkscape:deskcolor="#d1d1d1"
     inkscape:document-units="mm"
     showgrid="false"
     inkscape:zoom="0.50758038"
     inkscape:cx="81.76045"
     inkscape:cy="183.22221"
     inkscape:window-width="2544"
     inkscape:window-height="1361"
     inkscape:window-x="1310"
     inkscape:window-y="39"
     inkscape:window-maximized="0"
     inkscape:current-layer="layer1" />
  <defs
     id="defs2" />
  <g
     inkscape:label="Layer 1"
     inkscape:groupmode="layer"
     id="layer1">
    <g
       id="g16901">
      <rect
         style="fill:#88e5ff;fill-opacity:1;stroke-width:0.257339"
         id="rect6429"
         width="157.09581"
         height="87.725777"
         x="22.823351"
         y="25.501768" />
      <path
         id="path10340"
         style="fill:#5388e5;fill-opacity:1;stroke-width:0.279487"
         d="M 173.10158 93.174674 C 171.47135 93.340044 170.8785 96.647847 168.80365 96.647847 C 166.7288 96.647847 167.17362 93.340029 165.54338 93.670768 C 163.91315 94.001509 163.61662 96.813213 161.83818 96.647847 C 160.05975 96.482471 160.65257 93.505404 159.02233 93.505404 C 157.3921 93.505404 156.50296 97.143956 154.87272 96.647847 C 153.24248 96.151739 152.79764 94.001497 151.01921 94.001497 C 149.24077 94.001497 149.53759 97.309319 148.05556 96.978577 C 146.57352 96.647845 145.09146 94.662961 143.75763 94.497591 C 142.4238 94.332221 141.08994 97.805415 139.4597 97.309306 C 137.82947 96.813197 136.79172 94.993691 135.45788 94.82832 C 134.12405 94.66295 133.38346 98.13613 132.49424 97.970764 C 131.60502 97.805387 131.01211 95.324408 129.53008 95.489779 C 128.04804 95.655148 127.60332 98.632251 125.82488 97.8054 C 124.04643 96.978547 125.08384 95.159049 125.08384 95.159049 L 123.60176 95.159049 C 122.11972 95.159049 122.11993 98.466885 120.34149 97.8054 C 118.56304 97.143924 118.56304 94.994175 116.7846 95.821025 C 115.00616 96.647875 115.00605 98.632236 113.0794 98.301493 C 111.15275 97.970762 112.63451 95.489779 110.55966 95.489779 C 108.48481 95.489779 108.92952 98.301496 107.15108 97.970764 C 105.37263 97.640021 106.11357 95.821013 104.18692 95.986389 C 102.26028 96.151755 101.96417 98.466885 100.33393 97.8054 C 98.703691 97.143924 99.14834 95.490272 98.259119 96.151754 C 97.369897 96.813228 96.183942 99.293696 94.257296 98.797587 C 92.330653 98.301468 92.034539 96.482471 90.404301 96.647847 C 88.774064 96.813213 88.922069 100.28589 87.291829 99.789775 C 85.661593 99.293665 86.84715 96.813226 85.068709 96.482483 C 83.290267 96.151751 82.549546 99.459047 81.215715 99.293681 C 79.881882 99.128304 80.029693 96.647847 78.54766 96.647847 C 77.065625 96.647847 76.769427 99.459045 75.287394 99.459045 C 73.805359 99.459045 74.249986 96.151752 72.471545 96.317118 C 70.693102 96.482484 71.285742 99.624398 70.100114 99.789775 C 68.914488 99.95514 68.618399 96.151752 66.988159 96.317118 C 65.357923 96.482484 65.802549 99.624412 64.17231 99.459045 C 62.542074 99.29368 63.134902 96.317121 61.356462 95.986389 C 59.578018 95.655643 59.725915 99.459043 58.095679 99.62441 C 56.465439 99.789787 56.762057 96.151754 54.835413 96.151754 C 52.908767 96.151754 52.760363 100.1205 51.722941 100.1205 C 50.685516 100.1205 49.499967 96.317117 47.573324 96.482483 C 45.646679 96.64786 45.795093 99.78979 44.313057 99.293681 C 42.831022 98.797572 43.275649 96.317117 41.497209 96.482483 C 39.718766 96.64786 38.088177 99.45906 36.754346 98.962952 C 35.420516 98.466843 34.234882 96.813212 33.197457 96.813212 C 32.160034 96.813212 30.233683 99.789787 29.344462 99.62441 C 28.455243 99.459043 27.269284 96.482469 25.342639 96.813212 C 24.52757 96.953133 23.615033 97.777852 22.823413 98.678215 L 22.823413 113.22771 L 179.91925 113.22771 L 179.91925 97.273132 C 178.90322 97.241934 177.53098 97.029564 176.65847 96.813212 C 175.32464 96.482469 174.73182 93.009304 173.10158 93.174674 z " />
      <g
         id="g16890"
         transform="translate(-4.9531222e-8,-96.570378)">
        <path
           style="fill:#ffffff;fill-opacity:1;stroke:#000000;stroke-width:0.408718;stroke-dasharray:none;stroke-opacity:1"
           d="m 97.33851,137.55547 -2.870303,51.21762 2.870303,0.24742 1.32476,-51.71248 z"
           id="path2381" />
        <path
           style="fill:#c98419;fill-opacity:1;stroke:#6e490f;stroke-width:0.8;stroke-dasharray:none;stroke-opacity:1"
           d="m 59.941285,185.0056 76.125775,4.72894 -5.31111,11.82234 -58.643395,-1.89157 z"
           id="path799" />
        <path
           style="fill:#a46e19;fill-opacity:1;stroke:#6e490f;stroke-width:0.8;stroke-dasharray:none;stroke-opacity:1"
           d="m 58.392215,181.22245 v 4.72894 l 78.560025,5.43828 0.22129,-4.25605 z"
           id="path1527" />
        <path
           style="fill:#ffffff;fill-opacity:1;stroke:#000000;stroke-width:0.8;stroke-dasharray:none;stroke-opacity:1"
           d="m 93.635686,141.33823 -24.261696,31.0273 22.655189,7.75 z"
           id="path3298"
           sodipodi:nodetypes="cccc" />
        <path
           style="fill:#ffffff;fill-opacity:1;stroke:#000000;stroke-width:0.8;stroke-dasharray:none;stroke-opacity:1"
           d="m 101.10232,140.08068 -1.991676,41.37821 40.497146,2.36447 z"
           id="path3300" />
      </g>
      <path
         id="path13276"
         style="fill:#1e53ad;fill-opacity:1;stroke-width:0.264583"
         d="M 173.24989 97.814185 C 172.21246 97.814185 171.02674 100.77834 170.28573 100.77834 C 169.54471 100.77834 165.83987 97.962496 164.95066 97.962496 C 164.06144 97.962496 164.20959 100.77823 163.46858 100.63003 C 162.72756 100.48182 159.76355 98.40743 158.57792 98.40743 C 157.39229 98.40743 157.83705 100.77834 156.65142 100.77834 C 155.46579 100.77834 152.35347 98.110807 151.61245 98.110807 C 150.87144 98.110807 150.57507 101.07497 149.53764 101.07497 C 148.50022 101.07497 145.38787 97.962603 143.75763 98.110807 C 142.1274 98.259011 142.86834 101.07508 141.53451 101.22328 C 140.20068 101.37149 137.08844 98.555548 135.90282 99.000159 C 134.71719 99.444769 135.01333 101.51927 134.12411 101.37107 C 133.23489 101.22286 131.75318 99.444576 131.01216 99.444576 C 130.27115 99.444576 129.23352 102.11239 127.89969 101.07497 C 126.56586 100.03755 124.9354 99.592995 124.04618 99.741199 C 123.15696 99.889402 123.30561 101.81591 121.82357 101.6677 C 120.34154 101.5195 118.26626 99.592887 117.67344 99.592887 C 117.08063 99.592887 115.15429 102.11211 114.56148 102.11211 C 113.96866 102.11211 111.15247 100.18562 110.55966 100.18562 C 109.96685 100.18562 109.67059 102.26042 108.63316 102.26042 C 107.59574 102.26042 105.37276 100.18573 104.48354 100.33393 C 103.59433 100.48213 103.29806 103.00156 102.55705 102.40874 C 101.81603 101.81593 100.3339 100.48224 99.592887 100.48224 C 98.851869 100.48224 97.666149 103.59431 96.628727 103.7425 C 96.160468 103.76486 95.098799 98.779406 92.182487 100.33393 C 91.589673 100.33393 89.81114 103.00146 89.218327 103.00146 C 88.625512 103.00146 85.958039 100.63014 85.217021 100.77834 C 84.476003 100.92654 82.697773 103.29809 81.956755 103.29809 C 81.215737 103.29809 78.103413 101.07497 76.917786 101.07497 C 75.73216 101.07497 72.471308 103.74239 71.433883 103.59419 C 70.396458 103.44599 68.914635 100.63003 68.173617 100.63003 C 67.432599 100.63003 66.394997 103.14966 65.802185 103.00146 C 65.209372 102.85325 62.393586 100.77834 61.652568 100.77834 C 60.91155 100.77834 60.763603 103.14978 59.874382 103.14978 C 58.985162 103.14978 56.762187 100.33393 55.724764 100.33393 C 54.687339 100.33393 54.242661 103.74239 53.501644 103.59419 C 52.760626 103.44599 49.796419 101.22328 49.055404 101.22328 C 48.314385 101.22328 47.870009 103.89052 46.536178 104.18692 C 45.202348 104.48333 42.682834 101.22286 41.497209 101.37107 C 40.31158 101.51927 40.311405 103.7425 39.125777 103.7425 C 37.940151 103.7425 36.310097 101.51938 35.124471 101.51938 C 33.938842 101.51938 33.494057 104.03872 32.75304 104.18692 C 32.012024 104.33513 29.78894 101.81612 28.455111 101.96432 C 27.121279 102.11252 25.787443 103.59408 24.898222 103.44588 C 24.141517 103.31976 24.237513 101.26826 22.823413 100.84036 L 22.823413 113.22771 L 179.91925 113.22771 L 179.91925 98.804822 C 178.25154 99.259816 176.43741 100.63003 175.62132 100.63003 C 174.7321 100.63003 174.28731 97.814185 173.24989 97.814185 z " />
    </g>
  </g>
</svg>
