<?xml version="1.0" encoding="UTF-8" standalone="no"?>
<!-- Created with Inkscape (http://www.inkscape.org/) -->

<svg
   width="210mm"
   height="297mm"
   viewBox="0 0 210 297"
   version="1.1"
   id="svg5"
   inkscape:version="1.2.1 (9c6d41e410, 2022-07-14)"
   sodipodi:docname="room-picture2.svg"
   xml:space="preserve"
   xmlns:inkscape="http://www.inkscape.org/namespaces/inkscape"
   xmlns:sodipodi="http://sodipodi.sourceforge.net/DTD/sodipodi-0.dtd"
   xmlns="http://www.w3.org/2000/svg"
   xmlns:svg="http://www.w3.org/2000/svg"><sodipodi:namedview
     id="namedview7"
     pagecolor="#ffffff"
     bordercolor="#666666"
     borderopacity="1.0"
     inkscape:showpageshadow="2"
     inkscape:pageopacity="0.0"
     inkscape:pagecheckerboard="0"
     inkscape:deskcolor="#d1d1d1"
     inkscape:document-units="mm"
     showgrid="false"
     inkscape:zoom="1.3445513"
     inkscape:cx="-58.011918"
     inkscape:cy="262.54112"
     inkscape:window-width="2560"
     inkscape:window-height="1377"
     inkscape:window-x="1272"
     inkscape:window-y="-8"
     inkscape:window-maximized="1"
     inkscape:current-layer="layer1" /><defs
     id="defs2"><filter
       inkscape:collect="always"
       style="color-interpolation-filters:sRGB"
       id="filter3238"
       x="-0.18136934"
       y="-0.12102976"
       width="1.3627387"
       height="1.2420595"><feGaussianBlur
         inkscape:collect="always"
         stdDeviation="0.42711044"
         id="feGaussianBlur3240" /></filter><filter
       inkscape:collect="always"
       style="color-interpolation-filters:sRGB"
       id="filter3242"
       x="-0.16125086"
       y="-0.13639253"
       width="1.3225017"
       height="1.2727851"><feGaussianBlur
         inkscape:collect="always"
         stdDeviation="0.45005468"
         id="feGaussianBlur3244" /></filter><filter
       inkscape:collect="always"
       style="color-interpolation-filters:sRGB"
       id="filter4217"
       x="-0.045712802"
       y="-0.071168486"
       width="1.0914256"
       height="1.142337"><feGaussianBlur
         inkscape:collect="always"
         stdDeviation="0.13985995"
         id="feGaussianBlur4219" /></filter><filter
       inkscape:collect="always"
       style="color-interpolation-filters:sRGB"
       id="filter13063"
       x="-0.23486377"
       y="-0.93786001"
       width="1.4697275"
       height="2.87572"><feGaussianBlur
         inkscape:collect="always"
         stdDeviation="0.0080865445"
         id="feGaussianBlur13065" /></filter><filter
       inkscape:collect="always"
       style="color-interpolation-filters:sRGB"
       id="filter13067"
       x="-0.4296388"
       y="-29590.771"
       width="1.8592776"
       height="59182.542"><feGaussianBlur
         inkscape:collect="always"
         stdDeviation="0.0055865455"
         id="feGaussianBlur13069" /></filter><filter
       inkscape:collect="always"
       style="color-interpolation-filters:sRGB"
       id="filter15394"
       x="-0.044990644"
       y="-0.032298903"
       width="1.0899813"
       height="1.0645978"><feGaussianBlur
         inkscape:collect="always"
         stdDeviation="1.2729867"
         id="feGaussianBlur15396" /></filter><filter
       inkscape:collect="always"
       style="color-interpolation-filters:sRGB"
       id="filter15402"
       x="-0.1314568"
       y="-0.094373182"
       width="1.2629136"
       height="1.1887464"><feGaussianBlur
         inkscape:collect="always"
         stdDeviation="3.7195011"
         id="feGaussianBlur15404" /></filter></defs><g
     inkscape:label="Layer 1"
     inkscape:groupmode="layer"
     id="layer1"
     style="display:inline"><g
       id="g3693"
       inkscape:export-filename=".\g3693.png"
       inkscape:export-xdpi="270.49384"
       inkscape:export-ydpi="270.49384"><rect
         style="fill:#ffffff;stroke:#000000;stroke-width:0.393464"
         id="rect3602"
         width="68.409843"
         height="95.76252"
         x="27.486197"
         y="3.6755879" /><g
         id="g16324"
         transform="matrix(0.43378327,0,0,0.43378327,25.149145,13.916007)"><g
           id="g13828"
           style="display:inline;opacity:1;fill:#000000;fill-opacity:1"
           transform="matrix(1,0,-0.37566369,0.15005296,49.275269,111.45906)"><path
             id="path13826"
             style="display:inline;opacity:0.282609;fill:#000000;fill-opacity:1;stroke:none;stroke-width:1.148;stroke-linecap:round;stroke-linejoin:round;stroke-dasharray:none;stroke-opacity:1;paint-order:markers stroke fill;filter:url(#filter15402)"
             d="m 77.960616,38.379569 c -13.941665,-5.7e-5 -22.201664,9.406022 -23.199617,22.032247 -0.400447,0.03247 -0.80303,0.05491 -1.206645,0.0646 -1.262848,2.057973 0.420646,5.379 0.420646,5.379 0.227431,-0.03324 0.455559,-0.06386 0.683679,-0.09302 v 10.903211 c -0.05739,-0.02243 -0.11447,-0.04464 -0.171566,-0.06563 -0.749594,-0.247096 -1.833332,1.795376 -0.844392,3.524332 -9.75141,6.768072 -11.408682,14.716229 -8.196399,19.084107 -0.413814,0.355859 -0.783147,0.751224 -1.05885,1.185454 1.078378,1.04359 3.409312,1.39118 2.922302,1.5999 -0.48701,0.20872 -1.600285,4.03528 1.565279,5.49631 0,0 -2.017747,0.93904 -2.504757,2.574 1.043593,1.56539 6.15711,-0.0692 7.61814,-1.94768 0.09717,-0.26193 0.178123,-0.58031 0.236161,-0.94206 1.123885,3.2391 2.832795,4.90635 3.826123,6.4673 1.309266,2.05742 8.137853,4.5879 7.747331,9.44904 -0.967111,0.0351 -7.74994,0.457 -8.706962,5.40794 -0.02321,0.12006 -0.03697,0.26273 -0.04496,0.41548 -0.104367,-0.0497 -0.196862,-0.0987 -0.274401,-0.14522 -0.956627,0.92184 -0.44348,2.14663 -0.147795,2.75539 1.078379,0.31308 10.076534,3.02881 19.309416,0.0982 0.644875,-0.62877 0.122673,-1.88378 -0.04031,-2.16111 0.436985,-2.10416 -0.164047,-5.12421 -0.326078,-5.86786 0.02758,-1.30574 0.28294,-4.54454 2.161625,-5.32732 2.26299,0.88552 2.459798,5.903 2.459798,5.903 l 0.01447,-5.2e-4 c -0.225476,1.20652 -0.570622,3.56665 -0.211873,5.29322 -0.163188,0.27795 -0.684943,1.53206 -0.04031,2.16059 9.232882,2.93062 18.231037,0.21489 19.309416,-0.0982 0.295685,-0.60876 0.808833,-1.83355 -0.147794,-2.75539 -0.07744,0.0465 -0.170203,0.0951 -0.274402,0.1447 -0.008,-0.15255 -0.02229,-0.29504 -0.04548,-0.41496 -1.000841,-5.17762 -8.361643,-5.40183 -8.789644,-5.41053 0.08928,-5.39819 5.286804,-6.31253 8.289933,-10.13529 1.074474,-1.13417 2.36333,-4.18433 3.21324,-6.67453 0.0349,0.74218 0.15501,1.377 0.32608,1.83813 1.46103,1.87845 6.57454,3.51307 7.61814,1.94768 -0.48701,-1.63496 -2.50476,-2.574 -2.50476,-2.574 3.16556,-1.46103 2.05281,-5.28759 1.5658,-5.49631 -0.48701,-0.20872 1.8434,-0.55631 2.92178,-1.5999 -0.27564,-0.434126 -0.64464,-0.829661 -1.05833,-1.185454 3.21764,-4.375206 1.54945,-12.342785 -8.24549,-19.118213 0.87593,-1.680149 -0.1345,-3.604272 -0.86713,-3.430282 V 65.622868 c 0.23694,0.02831 0.4717,0.05823 0.70125,0.09198 0,0 1.02922,-2.759538 0.14056,-5.051371 0,0 -0.35765,-0.05755 -0.93742,-0.159681 C 100.20149,47.831426 91.936145,38.379627 77.960616,38.379569 Z M 54.658679,84.724028 v 7.439339 l -1.822628,0.0041 c 0,0 -0.195983,4.59254 0.07958,8.300273 -0.747159,-1.309631 -1.83804,-2.538497 -3.379639,-3.482996 0,0 -0.205811,0.06733 -0.5302,0.193786 -3.360768,-5.470867 2.985968,-10.618178 5.652885,-12.454536 z m 46.603361,0.07028 c 2.71998,1.892077 8.87331,6.978638 5.55263,12.384257 -0.32439,-0.126459 -0.5302,-0.193786 -0.5302,-0.193786 -1.53168,0.938423 -2.61842,2.157506 -3.36517,3.457671 0.23715,-3.02598 -0.0242,-6.953367 -0.003,-8.053256 l -1.65468,-0.01344 z" /></g><g
           id="g13748"
           style="display:inline;fill:#000000;fill-opacity:1"><path
             id="path13742"
             style="display:inline;opacity:1;fill:#000000;fill-opacity:1;stroke:none;stroke-width:1.148;stroke-linecap:round;stroke-linejoin:round;stroke-dasharray:none;stroke-opacity:1;paint-order:markers stroke fill;filter:url(#filter15394)"
             d="m 77.960616,38.379569 c -13.941665,-5.7e-5 -22.201664,9.406022 -23.199617,22.032247 -0.400447,0.03247 -0.80303,0.05491 -1.206645,0.0646 -1.262848,2.057973 0.420646,5.379 0.420646,5.379 0.227431,-0.03324 0.455559,-0.06386 0.683679,-0.09302 v 10.903211 c -0.05739,-0.02243 -0.11447,-0.04464 -0.171566,-0.06563 -0.749594,-0.247096 -1.833332,1.795376 -0.844392,3.524332 -9.75141,6.768072 -11.408682,14.716229 -8.196399,19.084107 -0.413814,0.355859 -0.783147,0.751224 -1.05885,1.185454 1.078378,1.04359 3.409312,1.39118 2.922302,1.5999 -0.48701,0.20872 -1.600285,4.03528 1.565279,5.49631 0,0 -2.017747,0.93904 -2.504757,2.574 1.043593,1.56539 6.15711,-0.0692 7.61814,-1.94768 0.09717,-0.26193 0.178123,-0.58031 0.236161,-0.94206 1.123885,3.2391 2.832795,4.90635 3.826123,6.4673 1.309266,2.05742 8.137853,4.5879 7.747331,9.44904 -0.967111,0.0351 -7.74994,0.457 -8.706962,5.40794 -0.02321,0.12006 -0.03697,0.26273 -0.04496,0.41548 -0.104367,-0.0497 -0.196862,-0.0987 -0.274401,-0.14522 -0.956627,0.92184 -0.44348,2.14663 -0.147795,2.75539 1.078379,0.31308 10.076534,3.02881 19.309416,0.0982 0.644875,-0.62877 0.122673,-1.88378 -0.04031,-2.16111 0.436985,-2.10416 -0.164047,-5.12421 -0.326078,-5.86786 0.02758,-1.30574 0.28294,-4.54454 2.161625,-5.32732 2.26299,0.88552 2.459798,5.903 2.459798,5.903 l 0.01447,-5.2e-4 c -0.225476,1.20652 -0.570622,3.56665 -0.211873,5.29322 -0.163188,0.27795 -0.684943,1.53206 -0.04031,2.16059 9.232882,2.93062 18.231037,0.21489 19.309416,-0.0982 0.295685,-0.60876 0.808833,-1.83355 -0.147794,-2.75539 -0.07744,0.0465 -0.170203,0.0951 -0.274402,0.1447 -0.008,-0.15255 -0.02229,-0.29504 -0.04548,-0.41496 -1.000841,-5.17762 -8.361643,-5.40183 -8.789644,-5.41053 0.08928,-5.39819 5.286804,-6.31253 8.289933,-10.13529 1.074474,-1.13417 2.36333,-4.18433 3.21324,-6.67453 0.0349,0.74218 0.15501,1.377 0.32608,1.83813 1.46103,1.87845 6.57454,3.51307 7.61814,1.94768 -0.48701,-1.63496 -2.50476,-2.574 -2.50476,-2.574 3.16556,-1.46103 2.05281,-5.28759 1.5658,-5.49631 -0.48701,-0.20872 1.8434,-0.55631 2.92178,-1.5999 -0.27564,-0.434126 -0.64464,-0.829661 -1.05833,-1.185454 3.21764,-4.375206 1.54945,-12.342785 -8.24549,-19.118213 0.87593,-1.680149 -0.1345,-3.604272 -0.86713,-3.430282 V 65.622868 c 0.23694,0.02831 0.4717,0.05823 0.70125,0.09198 0,0 1.02922,-2.759538 0.14056,-5.051371 0,0 -0.35765,-0.05755 -0.93742,-0.159681 C 100.20149,47.831426 91.936145,38.379627 77.960616,38.379569 Z M 54.658679,84.724028 v 7.439339 l -1.822628,0.0041 c 0,0 -0.195983,4.59254 0.07958,8.300273 -0.747159,-1.309631 -1.83804,-2.538497 -3.379639,-3.482996 0,0 -0.205811,0.06733 -0.5302,0.193786 -3.360768,-5.470867 2.985968,-10.618178 5.652885,-12.454536 z m 46.603361,0.07028 c 2.71998,1.892077 8.87331,6.978638 5.55263,12.384257 -0.32439,-0.126459 -0.5302,-0.193786 -0.5302,-0.193786 -1.53168,0.938423 -2.61842,2.157506 -3.36517,3.457671 0.23715,-3.02598 -0.0242,-6.953367 -0.003,-8.053256 l -1.65468,-0.01344 z" /></g><g
           id="g13097"
           inkscape:label="Arms"><g
             id="g13085"
             transform="matrix(-1,0,0,1,155.82052,0)"><path
               style="opacity:1;fill:#f6b512;fill-opacity:1;stroke:#000000;stroke-width:0.565;stroke-dasharray:none;stroke-dashoffset:0;stroke-opacity:1"
               d="m 55.86704,78.68695 c -12.07397,7.262352 -13.987052,16.382546 -10.088073,20.941443 0,0 2.02171,-1.281129 4.137116,-1.231933 -6.444607,-7.28093 5.844124,-14.382664 5.844124,-14.382664 z"
               id="path13077"
               sodipodi:nodetypes="ccccc" /><path
               style="opacity:1;fill:#272727;fill-opacity:1;stroke:#000000;stroke-width:0.565;stroke-linecap:round;stroke-linejoin:round;stroke-dasharray:none;stroke-dashoffset:0;stroke-opacity:1;paint-order:normal"
               d="m 49.535905,96.984623 c 0,0 -3.756937,1.217521 -5.148395,3.409067 1.07838,1.04359 3.409072,1.39146 2.922061,1.60018 -0.48701,0.20872 -1.600176,4.03523 1.565391,5.49626 0,0 -2.017615,0.93924 -2.504625,2.5742 1.043594,1.56539 6.157203,-0.0696 7.618234,-1.94805 0.800089,-2.15676 0.48701,-8.10524 -4.452666,-11.131657 z"
               id="path13079"
               sodipodi:nodetypes="ccscccc" /><path
               style="opacity:1;fill:#272727;fill-opacity:1;stroke:#000000;stroke-width:0.531516;stroke-linecap:round;stroke-linejoin:round;stroke-dasharray:none;stroke-dashoffset:0;stroke-opacity:1;paint-order:normal;filter:url(#filter13063)"
               d="m 47.137116,101.74409 1.214175,0.30406"
               id="path13081"
               sodipodi:nodetypes="cc" /><path
               style="opacity:1;fill:#272727;fill-opacity:1;stroke:#000000;stroke-width:0.565;stroke-linecap:round;stroke-linejoin:round;stroke-dasharray:none;stroke-dashoffset:0;stroke-opacity:1;paint-order:normal;filter:url(#filter13067)"
               d="m 48.949493,107.44291 0.688736,1e-5"
               id="path13083"
               sodipodi:nodetypes="cc" /></g><g
             id="g13075"><path
               style="opacity:1;fill:#f6b512;fill-opacity:1;stroke:#000000;stroke-width:0.565;stroke-dasharray:none;stroke-dashoffset:0;stroke-opacity:1"
               d="m 55.86704,78.68695 c -12.07397,7.262352 -13.987052,16.382546 -10.088073,20.941443 0,0 2.02171,-1.281129 4.137116,-1.231933 -6.444607,-7.28093 5.844124,-14.382664 5.844124,-14.382664 z"
               id="path10912"
               sodipodi:nodetypes="ccccc" /><path
               style="opacity:1;fill:#272727;fill-opacity:1;stroke:#000000;stroke-width:0.565;stroke-linecap:round;stroke-linejoin:round;stroke-dasharray:none;stroke-dashoffset:0;stroke-opacity:1;paint-order:normal"
               d="m 49.535905,96.984623 c 0,0 -3.756937,1.217521 -5.148395,3.409067 1.07838,1.04359 3.409072,1.39146 2.922061,1.60018 -0.48701,0.20872 -1.600176,4.03523 1.565391,5.49626 0,0 -2.017615,0.93924 -2.504625,2.5742 1.043594,1.56539 6.157203,-0.0696 7.618234,-1.94805 0.800089,-2.15676 0.48701,-8.10524 -4.452666,-11.131657 z"
               id="path12157"
               sodipodi:nodetypes="ccscccc" /><path
               style="opacity:1;fill:#272727;fill-opacity:1;stroke:#000000;stroke-width:0.531516;stroke-linecap:round;stroke-linejoin:round;stroke-dasharray:none;stroke-dashoffset:0;stroke-opacity:1;paint-order:normal;filter:url(#filter13063)"
               d="m 47.137116,101.74409 1.214175,0.30406"
               id="path13059"
               sodipodi:nodetypes="cc" /><path
               style="opacity:1;fill:#272727;fill-opacity:1;stroke:#000000;stroke-width:0.565;stroke-linecap:round;stroke-linejoin:round;stroke-dasharray:none;stroke-dashoffset:0;stroke-opacity:1;paint-order:normal;filter:url(#filter13067)"
               d="m 48.949493,107.44291 0.688736,1e-5"
               id="path13061"
               sodipodi:nodetypes="cc" /></g></g><g
           id="g3269"
           style="display:inline;opacity:1"
           inkscape:label="Body"><g
             id="g13642"
             inkscape:label="Body"><path
               id="path418"
               style="display:inline;opacity:1;fill:#fec80c;fill-opacity:1;stroke:#000000;stroke-width:1.14794;stroke-linecap:round;stroke-linejoin:round;stroke-dasharray:none;stroke-opacity:1;paint-order:markers stroke fill"
               d="M 77.960432,38.379312 C 63.067729,38.379251 54.658407,49.112328 54.658553,63.038405 V 97.859534 H 101.26181 V 63.038405 C 101.26196,49.11254 92.853135,38.379373 77.960432,38.379312 Z"
               sodipodi:nodetypes="zccccz" /><path
               id="path319"
               style="display:inline;opacity:1;fill:#f5b512;fill-opacity:1;stroke:none;stroke-width:0.264583px;stroke-linecap:butt;stroke-linejoin:miter;stroke-opacity:1"
               d="M 71.771847,39.064282 C 60.760433,41.633688 54.658555,51.177028 54.658679,63.038529 V 97.85966 h 9.197372 C 62.789429,87.987735 61.614548,73.190217 63.949585,71.520699 65.632547,70.317406 79.128922,70.892104 75.498751,69.434005 70.658661,67.489928 65.88662,62.695386 65.062695,57.467293 64.447307,53.56244 68.539826,44.849163 71.771847,39.064282 Z" /></g><path
             style="display:inline;opacity:1;fill:#000000;fill-opacity:1;stroke:none;stroke-width:0.264583px;stroke-linecap:butt;stroke-linejoin:miter;stroke-opacity:1"
             d="m 76.84667,77.828885 c 0,0 0.841901,-0.374175 1.777344,0.233863 l 0.09354,-0.608039 c -0.210475,-0.04677 -0.444336,0.09355 -0.561266,-0.23386 0,0 2.911224,-4.754226 8.495999,-1.978131 0.07855,0.219108 -0.077,0.387877 -0.077,0.387877 0,0 0.257124,0.107 0.327404,0.280633 0.252181,-0.454753 0.985862,-0.927175 1.262848,-0.935443 -0.194303,-0.05374 -0.327403,-0.420952 -0.327403,-0.420952 0,0 -0.479639,0.320436 -0.764892,0.32457 -6.184301,-3.386483 -9.571757,2.154356 -9.571757,2.154356 0,0 -0.210475,0.327405 -0.561266,0 z"
             id="path9088"
             sodipodi:nodetypes="ccccccccccccc"
             inkscape:label="Mouth" /><g
             id="g13393"
             inkscape:label="Eye"><path
               style="display:inline;opacity:1;fill:#ffffff;fill-opacity:1;stroke:#000000;stroke-width:0.465;stroke-linecap:butt;stroke-linejoin:miter;stroke-dasharray:none;stroke-opacity:1"
               d="m 67.726099,55.658879 c 1.35599,0.396875 13.47475,2.036824 20.05626,-0.04677 0.467562,3.047223 0.621333,5.802503 -0.271635,7.390003 -7.963995,3.188533 -12.321023,3.309478 -19.129816,0.187091 -0.297656,-0.429948 -1.713142,-3.991522 -0.654809,-7.530324 z"
               id="path9106"
               sodipodi:nodetypes="ccccc" /><path
               id="path9160"
               style="display:inline;opacity:1;fill:#000000;fill-opacity:1;stroke:none;stroke-width:0.465;stroke-linecap:round;stroke-linejoin:round;stroke-dasharray:none;stroke-opacity:1;paint-order:markers stroke fill"
               d="m 72.806925,56.35625 a 5.1924477,5.0436196 0 0 0 -1.20406,3.224609 5.1924477,5.0436196 0 0 0 5.192447,5.04362 5.1924477,5.0436196 0 0 0 5.192448,-5.04362 5.1924477,5.0436196 0 0 0 -0.997355,-2.971911 c -2.851253,0.111559 -5.787964,-0.03682 -8.18348,-0.252698 z" /><ellipse
               style="display:inline;opacity:1;fill:#ffffff;fill-opacity:1;stroke:none;stroke-width:0.557482;stroke-linecap:round;stroke-linejoin:round;stroke-dasharray:none;stroke-opacity:1;paint-order:markers stroke fill"
               id="path9581"
               cx="74.959763"
               cy="59.134377"
               rx="1.6701823"
               ry="1.7197917" /><ellipse
               style="display:inline;opacity:1;fill:#ffffff;fill-opacity:1;stroke:none;stroke-width:0.361712;stroke-linecap:round;stroke-linejoin:round;stroke-dasharray:none;stroke-opacity:1;paint-order:markers stroke fill"
               id="ellipse9583"
               cx="78.399345"
               cy="60.093494"
               rx="1.1079427"
               ry="1.0914062" /><path
               style="display:inline;fill:#e08145;fill-opacity:1;stroke:none;stroke-width:0.264583px;stroke-linecap:butt;stroke-linejoin:miter;stroke-opacity:1"
               d="m 73.501719,61.227059 c -0.115755,0.01546 -0.248048,0.340231 -0.148829,0.683696 0.264584,0.474933 0.942579,1.104906 0.942579,1.104906 l 0.132292,-0.953158 C 74.063959,61.80634 73.700157,61.450968 73.501719,61.227059 Z"
               id="path9605"
               sodipodi:nodetypes="ccccc"
               inkscape:transform-center-x="0.046772168"
               inkscape:transform-center-y="0.21047475" /><path
               style="display:inline;fill:#e08145;fill-opacity:1;stroke:none;stroke-width:0.257215px;stroke-linecap:butt;stroke-linejoin:miter;stroke-opacity:1"
               d="m 74.827473,62.221018 -0.06615,1.062721 c 0.264584,0.375078 0.926043,0.54699 0.926043,0.54699 l 0.115755,-1.234633 c -0.384191,-0.08788 -0.542395,-0.120961 -0.975648,-0.375078 z"
               id="path11677"
               sodipodi:nodetypes="ccccc" /><path
               style="display:inline;fill:#e08145;fill-opacity:1;stroke:none;stroke-width:0.258207px;stroke-linecap:butt;stroke-linejoin:miter;stroke-opacity:1"
               d="m 76.183463,62.644117 0.01653,1.291426 c 0.463022,0.220488 1.074871,0.04725 1.074871,0.04725 -0.01654,-0.141742 0.03307,-1.307177 0.03307,-1.307177 -0.372973,0.09827 -0.632286,0.07873 -1.124474,-0.0315 z"
               id="path11679"
               sodipodi:nodetypes="cccccc"
               inkscape:transform-center-x="-0.11575518"
               inkscape:transform-center-y="-0.047247696" /><path
               style="display:inline;fill:#e08145;fill-opacity:1;stroke:none;stroke-width:0.264583px;stroke-linecap:butt;stroke-linejoin:miter;stroke-opacity:1"
               d="m 78.763143,62.259766 0.01654,1.091405 c -0.281121,0.380338 -0.909507,0.479558 -0.909507,0.479558 0.04961,-0.330729 -0.115755,-1.306381 -0.115755,-1.306381 0.384191,-0.09299 0.625077,-0.144526 1.008722,-0.264582 z"
               id="path11681"
               sodipodi:nodetypes="ccccc" /><path
               style="display:inline;fill:#e08145;fill-opacity:1;stroke:none;stroke-width:0.264583px;stroke-linecap:butt;stroke-linejoin:miter;stroke-opacity:1"
               d="m 80.317576,61.39987 c 0.231511,0.198437 0.363803,0.413411 0.198438,0.694531 -0.241841,0.411129 -0.909505,0.826823 -1.091407,0.909505 0.04961,-0.314192 -0.132292,-0.992188 -0.132292,-0.992188 0.363802,-0.148832 0.844974,-0.426862 1.025261,-0.611848 z"
               id="path11683"
               sodipodi:nodetypes="ccccc" /><path
               style="display:inline;opacity:0.832685;fill:#ffffff;fill-opacity:1;stroke:none;stroke-width:0.264583px;stroke-linecap:butt;stroke-linejoin:miter;stroke-opacity:1;filter:url(#filter3238)"
               d="m 80.367186,53.214322 c 2.260948,1.062613 3.388732,4.281819 3.241146,6.250781 0.102904,0.548273 1.391548,0.99121 2.050521,0.264584 0.497807,-1.500792 0.363802,-5.093229 -3.472656,-7.9375 -1.985504,-0.660314 -2.193822,1.022417 -1.819011,1.422135 z"
               id="path11710"
               sodipodi:nodetypes="ccccc" /><path
               style="display:inline;opacity:0.731517;fill:#ffffff;fill-opacity:1;stroke:none;stroke-width:0.264583px;stroke-linecap:butt;stroke-linejoin:miter;stroke-opacity:1;filter:url(#filter3242)"
               d="m 71.833877,59.24103 c 0.0547,2.497606 2.540212,4.833714 4.399925,5.497083 0.459469,0.316356 0.341911,1.673919 -0.589486,1.981704 -1.573738,-0.153413 -4.803344,-1.732403 -5.847936,-6.392566 0.20138,-2.082711 1.824066,-1.590905 2.037497,-1.086221 z"
               id="path11712"
               sodipodi:nodetypes="ccccc" /></g><g
             id="g13617"
             inkscape:label="Glasses"
             style="display:inline;opacity:1"><path
               style="display:inline;fill:#3b3b3e;fill-opacity:1;stroke:#000000;stroke-width:0.465;stroke-linecap:butt;stroke-linejoin:round;stroke-dasharray:none;stroke-opacity:1"
               d="m 53.554132,60.476412 c -1.262849,2.057975 0.420949,5.3788 0.420949,5.3788 6.080382,-0.888672 12.53494,-0.280633 12.53494,-0.280633 -0.841899,-1.07576 -1.543482,-5.051395 -1.403165,-7.951269 0,0 -5.706204,2.712785 -11.552724,2.853102 z"
               id="path2208"
               sodipodi:nodetypes="ccccc" /><path
               style="display:inline;fill:#393939;fill-opacity:1;stroke:#000000;stroke-width:0.465;stroke-linecap:butt;stroke-linejoin:round;stroke-dasharray:none;stroke-opacity:1"
               d="m 90.64446,57.576537 c 2.385381,1.637026 11.45918,3.086965 11.45918,3.086965 0.88867,2.291836 -0.14032,5.051393 -0.14032,5.051393 -4.770761,-0.701583 -11.295473,-0.187088 -13.002657,-0.140316 1.543482,-2.174906 1.660411,-4.840921 1.683797,-7.998042 z"
               id="path5961"
               sodipodi:nodetypes="ccccc" /><path
               style="display:inline;fill:#605862;fill-opacity:1;stroke:#000000;stroke-width:0.465;stroke-linecap:butt;stroke-linejoin:round;stroke-dasharray:none;stroke-opacity:1"
               d="m 88.773573,56.968498 c 0,0 1.683798,-0.233861 2.525697,-0.09354 0,0 0.09354,6.454559 -1.496709,9.214117 -0.748355,0.374177 -4.022407,0.467723 -4.022407,0.467723 2.245064,-3.180507 3.648229,-5.285257 2.993419,-9.588296 z"
               id="path3256"
               sodipodi:nodetypes="ccccc" /><path
               style="display:inline;opacity:1;fill:#000000;fill-opacity:1;stroke:none;stroke-width:0.264583px;stroke-linecap:butt;stroke-linejoin:miter;stroke-opacity:1"
               d="m 102.40766,62.744863 c -2.37758,-0.389769 -3.795424,-0.691469 -6.980745,-0.795128 -0.16729,0.654501 0.305295,0.78292 0.689888,1.07576 0.908865,-0.141236 3.507913,0.01169 6.290857,0.608039 0.0234,-0.05846 0,-0.888671 0,-0.888671 z"
               id="path9076"
               sodipodi:nodetypes="ccccc" /><path
               style="display:inline;opacity:1;fill:#000000;fill-opacity:1;stroke:none;stroke-width:0.265;stroke-linecap:butt;stroke-linejoin:miter;stroke-dasharray:none;stroke-opacity:1"
               d="m 53.536421,62.502491 -0.169379,1.177814 c 0.257247,-0.11693 4.401379,-1.023702 6.735194,-0.888669 0.212216,-0.43761 0.429775,-0.667933 0.581814,-0.880648 -1.86862,-0.01654 -3.889947,-0.0038 -7.147629,0.591503 z"
               id="path9086"
               sodipodi:nodetypes="ccccc" /><path
               style="display:inline;opacity:1;fill:#565756;fill-opacity:1;stroke:#000000;stroke-width:0.465;stroke-linecap:butt;stroke-linejoin:round;stroke-dasharray:none;stroke-opacity:1"
               d="m 66.939582,57.017708 c 0,0 -1.336212,-0.272609 -2.645833,-0.132292 0,4.115951 0.745601,7.966845 1.447183,9.042605 1.309621,0.654811 4.505942,0.614686 4.505942,0.614686 -2.993419,-4.396584 -3.400836,-9.010505 -3.307292,-9.524999 z"
               id="path419"
               sodipodi:nodetypes="ccccc" /><path
               id="path2462"
               style="display:inline;opacity:1;fill:#000000;fill-opacity:1;stroke:none;stroke-width:1.38;stroke-linecap:round;stroke-linejoin:round;stroke-dasharray:none;stroke-opacity:1;paint-order:markers stroke fill"
               d="M 77.743058,46.573901 A 11.814364,11.91038 0 0 0 65.928792,58.484285 11.814364,11.91038 0 0 0 77.743058,70.39467 11.814364,11.91038 0 0 0 89.557841,58.484285 11.814364,11.91038 0 0 0 77.743058,46.573901 Z m 0,2.639116 a 9.3981094,9.438509 0 0 1 9.398393,9.438183 9.3981094,9.438509 0 0 1 -9.398393,9.438701 9.3981094,9.438509 0 0 1 -9.397876,-9.438701 9.3981094,9.438509 0 0 1 9.397876,-9.438183 z" /><path
               id="path13286"
               style="display:inline;opacity:1;fill:#a2a2a2;fill-opacity:1;stroke:none;stroke-width:1.38;stroke-linecap:round;stroke-linejoin:round;stroke-dasharray:none;stroke-opacity:1;paint-order:markers stroke fill"
               d="m 76.279297,47.201172 c -3.33834,0.459275 -6.424702,2.45528 -8.151019,5.357811 -2.093611,3.387539 -2.200173,7.877492 -0.279625,11.366104 1.83923,3.469802 5.594807,5.824818 9.528208,5.915662 4.325382,0.260847 8.647869,-2.459891 10.46103,-6.27239 1.601562,-3.124201 1.553207,-7.09373 0.01172,-10.148437 -1.984023,-4.161588 -6.710627,-6.82593 -11.302811,-6.236584 -0.08917,0.0059 -0.178334,0.01189 -0.267501,0.01783 z m 1.505859,1.484375 c 2.514848,0.04241 4.998397,1.022658 6.813206,2.773763 2.677706,2.547729 3.748704,6.638742 2.617581,10.166824 -1.258186,4.300073 -5.733991,7.41339 -10.212627,6.936302 -3.289079,-0.199412 -6.379127,-2.215772 -7.939155,-5.112039 -1.544752,-2.765718 -1.632101,-6.268484 -0.251658,-9.118813 1.328554,-2.794014 4.020809,-4.888824 7.068902,-5.450784 0.619046,-0.148305 1.271441,-0.137262 1.903751,-0.195253 z" /><path
               id="path13546"
               style="display:inline;opacity:1;fill:#606060;fill-opacity:1;stroke:none;stroke-width:1.38;stroke-linecap:round;stroke-linejoin:round;stroke-dasharray:none;stroke-dashoffset:0;stroke-opacity:1;paint-order:normal"
               d="m 77.839693,47.102035 c -0.430509,-4.96e-4 -0.862427,0.02588 -1.292944,0.08113 -0.08917,0.0059 -0.178517,0.01215 -0.267684,0.01809 -3.338337,0.459275 -6.424608,2.455285 -8.150924,5.357813 -0.915863,1.4819 -1.451526,3.174825 -1.603519,4.902543 0.126441,0.03933 0.264046,0.07214 0.416512,0.0956 0,0.442759 0.174541,-3.33937 3.643188,-7.198527 0.639541,0.442759 -2.331751,2.389456 -3.020487,6.128308 0.119225,0.05503 0.291194,0.0549 0.504878,0.0098 0.162293,-0.746705 0.409472,-1.475288 0.743624,-2.165243 1.328553,-2.794011 4.020729,-4.88887 7.068819,-5.45083 0.619046,-0.148305 1.271451,-0.137346 1.90376,-0.195337 2.259553,0.03811 4.49378,0.833801 6.240446,2.264978 0.17655,-0.136446 0.391366,-0.198149 0.644922,-0.0925 0.834873,0.347865 1.366122,1.781387 1.71049,1.486214 -0.03564,-0.570264 -0.580911,-1.597168 -0.880566,-2.123385 -2.053781,-1.938203 -4.83079,-3.115417 -7.660515,-3.118672 z"
               sodipodi:nodetypes="sccccccccccccsccs" /><path
               id="path13605"
               style="display:inline;opacity:1;fill:#525252;fill-opacity:1;stroke:none;stroke-width:1.38;stroke-linecap:round;stroke-linejoin:round;stroke-dasharray:none;stroke-dashoffset:0;stroke-opacity:1;paint-order:normal"
               d="m 85.452464,65.184025 c -0.103875,0.02397 0.384126,-0.640091 0.282871,-0.61484 -0.296854,0.398263 -0.625409,0.77307 -0.978235,1.123446 0.382348,-0.340789 0.22199,-0.0447 0.695364,-0.508606 z m 1.131398,-0.393664 c -0.688736,0.245976 -2.984184,2.933748 -3.73879,3.049943 -0.01839,-0.375023 0.354073,-0.763396 1.021643,-1.360124 -1.928478,1.515994 -4.394684,2.344997 -6.863146,2.082043 -2.023531,-0.122683 -3.97111,-0.933893 -5.53403,-2.213818 -0.875704,-0.472301 -1.514073,-0.867267 -1.562695,-0.721403 -0.344368,0.737931 1.819947,1.721456 2.361096,2.656169 -0.03374,0.02381 -0.07034,0.04548 -0.109554,0.06511 1.582595,0.913414 3.38087,1.449979 5.218286,1.492415 2.707655,0.163288 5.414424,-0.841888 7.504969,-2.551782 0.920424,-1.174873 1.80788,-2.234409 1.702221,-2.498555 z"
               sodipodi:nodetypes="ccccccccccccccc" /></g><g
             id="g13192"
             inkscape:label="Hair"
             style="display:inline;opacity:1"><path
               id="path2540"
               style="display:inline;fill:#000000;fill-opacity:1;stroke:none;stroke-width:0.264583px;stroke-linecap:butt;stroke-linejoin:miter;stroke-opacity:1"
               d="m 58.9132,49.132402 c -0.405775,0.07685 -0.740771,0.371807 -1.103445,0.563199 -2.099549,1.282688 -3.858293,3.157018 -4.860916,5.416373 -0.396537,0.884666 -0.710876,1.809674 -0.933622,2.752142 0.08584,0.595595 0.767029,0.346411 0.855746,-0.205612 0.754258,-2.582136 2.183208,-5.036466 4.350778,-6.676546 0.621724,-0.485857 1.316019,-0.870425 2.01384,-1.229336 0.222493,-0.233179 -0.03038,-0.626835 -0.322381,-0.62022 z m -0.109037,1.970939 c -0.462472,0.136323 -0.775463,0.566188 -1.120038,0.884118 -1.461225,1.592255 -2.604475,3.449257 -3.609719,5.354227 -0.259252,0.466116 -0.0424,0.996343 0.427542,0.799878 0.226151,-0.369793 0.361253,-0.801422 0.586645,-1.178423 1.030606,-1.884953 2.339229,-3.607362 3.761622,-5.212429 0.26491,-0.159582 0.359877,-0.608957 -0.04605,-0.647371 z m 0.819071,1.084171 c -0.424875,0.08231 -0.685879,0.504597 -0.969863,0.804062 -0.859529,1.093069 -1.447027,2.38072 -1.871944,3.697881 -0.09322,0.555182 0.691603,0.665299 0.807537,0.130267 0.46393,-1.013765 0.735947,-2.129044 1.425793,-3.027971 0.270655,-0.412741 0.671153,-0.720598 0.992877,-1.080067 0.08072,-0.240818 -0.137131,-0.518938 -0.3844,-0.524172 z"
               sodipodi:nodetypes="ccccccccscccccssccccccc"
               inkscape:label="hair1" /><path
               id="path298"
               style="display:inline;fill:#000000;fill-opacity:1;stroke:none;stroke-width:0.264583px;stroke-linecap:butt;stroke-linejoin:miter;stroke-opacity:1"
               d="m 96.915295,49.264694 c 0.405775,0.07685 0.740771,0.371807 1.103445,0.563199 2.09955,1.282688 3.85829,3.157018 4.86092,5.416373 0.39653,0.884666 0.71087,1.809674 0.93362,2.752142 -0.0858,0.595595 -0.76703,0.346411 -0.85575,-0.205612 -0.75426,-2.582136 -2.18321,-5.036466 -4.350776,-6.676546 -0.621724,-0.485857 -1.316019,-0.870425 -2.01384,-1.229336 -0.222493,-0.233179 0.03038,-0.626835 0.322381,-0.62022 z m 0.109037,1.970939 c 0.462472,0.136323 0.775463,0.566188 1.120038,0.884118 1.461225,1.592255 2.60448,3.449257 3.60972,5.354227 0.25925,0.466116 0.0424,0.996343 -0.42754,0.799878 -0.22615,-0.369793 -0.36126,-0.801422 -0.58665,-1.178423 -1.030604,-1.884953 -2.339227,-3.607362 -3.76162,-5.212429 -0.26491,-0.159582 -0.359877,-0.608957 0.04605,-0.647371 z m -0.819071,1.084171 c 0.424875,0.08231 0.685879,0.504597 0.969863,0.804062 0.859529,1.093069 1.447027,2.38072 1.871944,3.697881 0.09322,0.555182 -0.691603,0.665299 -0.807537,0.130267 -0.46393,-1.013765 -0.735947,-2.129044 -1.425793,-3.027971 -0.270655,-0.412741 -0.671153,-0.720598 -0.992877,-1.080067 -0.08072,-0.240818 0.137131,-0.518938 0.3844,-0.524172 z"
               sodipodi:nodetypes="ccccccccscccccssccccccc"
               inkscape:label="hair1" /></g></g><g
           id="g6228"
           style="display:inline;opacity:1"
           inkscape:label="Uniform"><g
             id="g2234"><path
               style="fill:#d8d8d8;fill-opacity:1;stroke:#000000;stroke-width:0.565;stroke-linecap:butt;stroke-linejoin:miter;stroke-dasharray:none;stroke-opacity:1"
               d="m 62.970203,92.143118 -10.134267,0.02461 c 0,0 -0.368965,8.633802 0.614944,11.782312 8.781392,0.0246 9.519323,-11.806922 9.519323,-11.806922 z"
               id="path1915"
               sodipodi:nodetypes="cccc" /><path
               style="fill:none;stroke:#000000;stroke-width:0.562;stroke-linecap:butt;stroke-linejoin:miter;stroke-dasharray:1.124, 0.562;stroke-dashoffset:0;stroke-opacity:1"
               d="m 53.621606,93.45188 6.622759,0.05895"
               id="path2124" /></g><g
             id="g2238"><path
               style="opacity:1;fill:#d8d8d8;fill-opacity:1;stroke:#000000;stroke-width:0.565;stroke-linecap:butt;stroke-linejoin:miter;stroke-dasharray:none;stroke-opacity:1"
               d="m 90.716448,92.290703 12.200482,0.09839 c -0.0348,1.774109 0.66793,10.907407 -1.17575,11.742287 C 96.210134,103.57479 90.716448,92.290703 90.716448,92.290703 Z"
               id="path388"
               sodipodi:nodetypes="cccc" /><path
               style="fill:none;stroke:#000000;stroke-width:0.562;stroke-linecap:butt;stroke-linejoin:miter;stroke-dasharray:1.124, 0.562;stroke-dashoffset:0;stroke-opacity:1"
               d="m 95.921931,93.45188 6.622759,0.05895"
               id="path1869" /></g><g
             id="g6206"><path
               style="display:inline;opacity:1;fill:#000000;fill-opacity:1;stroke:none;stroke-width:0.565;stroke-linecap:round;stroke-linejoin:miter;stroke-dasharray:none;stroke-opacity:1"
               d="m 90.027714,123.97259 c -0.491955,-6.19863 5.104106,-6.99641 8.264837,-11.01979 1.771039,-1.86943 4.132419,-8.95357 4.132419,-10.13426 -8.26484,-3.148513 -7.764619,-10.8675 -7.576101,-21.055667 -15.053815,1.574255 -23.712218,0.590345 -33.846485,0.393563 0.498947,10.481635 -0.270667,18.583244 -7.744065,20.470264 0.661256,6.4829 3.414865,8.85023 4.792338,11.01484 1.394586,2.19149 9.051966,4.91954 7.576102,10.42943 l 9.937486,0.0984 c 0,0 -0.196784,-4.91955 2.164599,-5.90346 2.262992,0.88552 2.459775,5.90345 2.459775,5.90345 z"
               id="path3306"
               sodipodi:nodetypes="ccccccsccccc" /><path
               id="path2167"
               style="display:inline;opacity:1;fill:#ffffff;fill-opacity:1;stroke:none;stroke-width:0.565;stroke-linecap:round;stroke-linejoin:miter;stroke-dasharray:none;stroke-opacity:1"
               d="m 92.150391,82.556641 c -7.868266,0.7288 -15.783435,0.72966 -23.672218,0.372838 -2.30755,-0.08467 -4.614759,-0.182971 -6.923485,-0.23026 0.148685,4.626393 0.313183,9.403481 -1.185217,13.849599 -0.930537,2.84483 -3.087067,5.355402 -5.986221,6.285442 -0.687364,0.025 -0.52209,0.58133 -0.416724,1.09119 0.423458,2.99871 1.74143,5.81271 3.63295,8.16399 0.676022,0.9328 1.282631,1.94295 2.289407,2.56523 2.299828,1.73901 5.046522,3.35577 6.12191,6.18596 0.318615,0.85885 0.408569,1.80199 0.262645,2.70625 2.921223,0.0293 5.842447,0.0586 8.763671,0.0879 0.08192,-1.88887 0.302973,-4.04793 1.765625,-5.41211 0.407751,-0.31033 0.931185,-0.73962 1.40625,-0.31446 1.609345,0.98735 2.052211,3.02007 2.349578,4.75282 0.09202,0.5107 -0.04114,1.23253 0.719053,0.95785 2.722533,-0.0701 5.513002,-0.0789 8.193088,-0.18723 -0.128279,-2.3181 0.996305,-4.56652 2.782418,-6.01236 1.948208,-1.70173 4.193802,-2.90376 5.773328,-4.96609 1.317608,-1.77399 2.040211,-3.82434 2.793861,-5.80866 0.38912,-1.1484 0.79642,-2.298 1.0293,-3.49023 -2.930799,-1.12139 -5.386426,-3.486454 -6.400989,-6.481666 -1.427298,-4.039163 -1.200384,-8.402454 -1.171138,-12.619276 -0.06436,-0.520417 0.167918,-1.361652 -0.06842,-1.696064 -0.686223,0.06645 -1.372445,0.132898 -2.058668,0.199347 z" /><path
               id="path1984"
               style="opacity:1;fill:#252623;fill-opacity:1;stroke:none;stroke-width:0.264583"
               d="m 59.487325,114.36976 c 0.127038,0.10154 0.259972,0.19725 0.401526,0.28474 2.299826,1.73901 5.04672,3.356 6.122107,6.18619 0.318615,0.85885 0.40844,1.80203 0.262516,2.70629 l 8.763806,0.0878 c 0.08192,-1.88887 0.302617,-4.04789 1.765267,-5.41207 0.407751,-0.31033 0.931568,-0.73987 1.406633,-0.31471 1.609343,0.98735 2.051844,3.02045 2.34921,4.7532 0.09202,0.5107 -0.04086,1.23224 0.719336,0.95756 2.722531,-0.0701 5.512698,-0.0787 8.192782,-0.18707 -0.128279,-2.3181 0.996664,-4.56671 2.782776,-6.01255 1.102008,-0.96259 2.298906,-1.76514 3.416845,-2.6541 -14.802058,1.61926 -29.076787,0.54598 -36.182804,-0.39533 z" /><path
               id="path2227"
               style="opacity:1;fill:#252623;fill-opacity:1;stroke:none;stroke-width:0.264583"
               d="m 58.024882,100.50084 c -1.002388,1.05472 -2.233442,1.88145 -3.641638,2.33319 -0.687363,0.025 -0.521878,0.58155 -0.416512,1.09141 0.114066,0.80775 0.294665,1.6016 0.532267,2.37712 8.204417,2.51251 32.336787,3.85227 46.412671,0.0723 0.36023,-1.05901 0.72326,-2.12146 0.93793,-3.22047 -1.33492,-0.51077 -2.568801,-1.28221 -3.615286,-2.25103 -11.05252,3.29517 -27.026127,4.80539 -40.209432,-0.40256 z" /><path
               id="path2303"
               style="opacity:1;fill:#252623;fill-opacity:1;stroke:none;stroke-width:0.264583"
               d="m 61.646366,87.218449 c -0.0087,2.452552 -0.162203,4.903641 -0.703833,7.283793 7.774699,2.17716 21.869999,3.570267 33.84703,-0.22996 -0.459365,-2.236786 -0.544082,-4.540807 -0.542086,-6.838859 -7.794703,0.995321 -22.238089,1.952514 -32.601111,-0.214974 z" /><path
               style="opacity:1;fill:none;fill-opacity:1;stroke:#000000;stroke-width:0.565;stroke-dasharray:1.695, 1.695;stroke-dashoffset:0;stroke-opacity:1"
               d="m 65.050662,83.626627 c 7.270368,0.59137 22.124183,0.904447 25.88112,-10e-7"
               id="path3098"
               sodipodi:nodetypes="cc" /></g><g
             id="g5520"
             transform="matrix(-1,0,0,1,155.71561,-0.06957291)"><path
               style="opacity:1;fill:#d8d8d8;fill-opacity:1;stroke:#000000;stroke-width:0.565;stroke-linecap:butt;stroke-linejoin:miter;stroke-dasharray:none;stroke-opacity:1"
               d="m 101.22857,76.669338 c -4.730957,1.739323 -10.505505,8.487894 -10.505505,8.487894 -0.626156,2.017614 1.321886,2.643771 2.226334,2.504625 2.782916,-4.522239 8.279171,-6.748572 8.696611,-6.887718 1.66975,-1.808895 0.41836,-4.380313 -0.41744,-4.104801 z"
               id="path5514"
               sodipodi:nodetypes="ccccc" /><ellipse
               style="opacity:1;fill:#383836;fill-opacity:1;stroke:#000000;stroke-width:0.590642;stroke-linecap:round;stroke-dasharray:none;stroke-opacity:1;paint-order:markers stroke fill"
               id="ellipse5516"
               cx="92.427605"
               cy="85.713821"
               rx="0.83359939"
               ry="0.80272532" /><path
               id="path5518"
               style="opacity:1;fill:#252623;fill-opacity:1;stroke:none;stroke-width:0.269107px;stroke-linecap:butt;stroke-linejoin:miter;stroke-opacity:1"
               d="m 96.719125,79.725952 c -1.028592,0.805707 -1.999261,1.689097 -2.814589,2.483986 0.510882,0.690118 1.058412,1.456334 1.537906,2.184394 0.85758,-0.8139 1.771247,-1.479026 2.600669,-2.00201 -0.419904,-0.894621 -0.879596,-1.820795 -1.323986,-2.66637 z" /></g><g
             id="g5512"
             style="display:inline"><path
               style="opacity:1;fill:#d8d8d8;fill-opacity:1;stroke:#000000;stroke-width:0.565;stroke-linecap:butt;stroke-linejoin:miter;stroke-dasharray:none;stroke-opacity:1"
               d="m 101.22857,76.669338 c -4.730957,1.739323 -10.505505,8.487894 -10.505505,8.487894 -0.626156,2.017614 1.321886,2.643771 2.226334,2.504625 2.782916,-4.522239 8.279171,-6.748572 8.696611,-6.887718 1.66975,-1.808895 0.41836,-4.380313 -0.41744,-4.104801 z"
               id="path3308"
               sodipodi:nodetypes="ccccc" /><ellipse
               style="opacity:1;fill:#383836;fill-opacity:1;stroke:#000000;stroke-width:0.590642;stroke-linecap:round;stroke-dasharray:none;stroke-opacity:1;paint-order:markers stroke fill"
               id="path3362"
               cx="92.427605"
               cy="85.713821"
               rx="0.83359939"
               ry="0.80272532" /><path
               id="path4261"
               style="opacity:1;fill:#252623;fill-opacity:1;stroke:none;stroke-width:0.269107px;stroke-linecap:butt;stroke-linejoin:miter;stroke-opacity:1"
               d="m 96.719125,79.725952 c -1.028592,0.805707 -1.999261,1.689097 -2.814589,2.483986 0.510882,0.690118 1.058412,1.456334 1.537906,2.184394 0.85758,-0.8139 1.771247,-1.479026 2.600669,-2.00201 -0.419904,-0.894621 -0.879596,-1.820795 -1.323986,-2.66637 z" /></g><g
             id="g4697"
             style="display:inline"><path
               style="opacity:1;fill:#cccccc;fill-opacity:1;stroke:#000000;stroke-width:0.565;stroke-linecap:butt;stroke-linejoin:miter;stroke-dasharray:none;stroke-opacity:1"
               d="m 68.184921,93.963346 h 19.087843 c 0,0 2.49788,12.324144 -9.150358,12.298864 -13.097156,-0.0284 -9.937485,-12.298864 -9.937485,-12.298864 z"
               id="path392"
               sodipodi:nodetypes="ccsc" /><path
               style="opacity:1;fill:none;fill-opacity:1;stroke:#000000;stroke-width:0.575;stroke-linecap:round;stroke-linejoin:round;stroke-dasharray:1.725, 1.725;stroke-dashoffset:1.38;stroke-opacity:1"
               d="m 69.397306,95.148393 h 16.649046 c 0,0 2.178734,9.998487 -7.981244,9.977967 -11.423772,-0.0231 -8.667802,-9.977967 -8.667802,-9.977967 z"
               id="path1735"
               sodipodi:nodetypes="ccsc" /><g
               aria-label="001"
               transform="scale(0.91985894,1.0871232)"
               id="text1791"
               style="font-weight:300;font-size:7.15367px;line-height:1.25;font-family:'Bookman Old Style';-inkscape-font-specification:'Bookman Old Style Light';letter-spacing:0px;word-spacing:0px;stroke-width:0.178842"><path
                 d="m 80.015882,89.288523 q 0.537922,0 0.939617,0.275947 0.401696,0.272455 0.653192,0.859279 0.251496,0.586825 0.251496,1.421652 0,1.236523 -0.618261,1.924645 -0.502993,0.55888 -1.271453,0.55888 -0.520458,0 -0.922153,-0.275947 -0.401695,-0.27944 -0.649699,-0.834828 -0.248003,-0.555387 -0.248003,-1.411173 0,-0.862771 0.241017,-1.40768 0.244511,-0.544908 0.663671,-0.827842 0.41916,-0.282933 0.960576,-0.282933 z m -0.01747,0.345808 q -0.363273,0 -0.63922,0.265468 -0.241017,0.230538 -0.380737,0.726544 -0.160678,0.565867 -0.160678,1.250495 0,0.530937 0.0978,0.964069 0.101297,0.42964 0.265468,0.670657 0.164171,0.237524 0.370258,0.352793 0.20958,0.115269 0.440119,0.115269 0.345807,0 0.646205,-0.268961 0.241017,-0.220059 0.380738,-0.656685 0.167664,-0.530936 0.167664,-1.247002 0,-0.740516 -0.171157,-1.257481 -0.171158,-0.516964 -0.422654,-0.716065 -0.248003,-0.199101 -0.59381,-0.199101 z"
                 id="path3897" /><path
                 d="m 84.451996,89.288523 q 0.537922,0 0.939617,0.275947 0.401696,0.272455 0.653192,0.859279 0.251496,0.586825 0.251496,1.421652 0,1.236523 -0.618261,1.924645 -0.502993,0.55888 -1.271453,0.55888 -0.520458,0 -0.922153,-0.275947 -0.401696,-0.27944 -0.649699,-0.834828 -0.248003,-0.555387 -0.248003,-1.411173 0,-0.862771 0.241017,-1.40768 0.24451,-0.544908 0.663671,-0.827842 0.41916,-0.282933 0.960576,-0.282933 z m -0.01746,0.345808 q -0.363273,0 -0.63922,0.265468 -0.241017,0.230538 -0.380737,0.726544 -0.160678,0.565867 -0.160678,1.250495 0,0.530937 0.0978,0.964069 0.101297,0.42964 0.265468,0.670657 0.164171,0.237524 0.370258,0.352793 0.20958,0.115269 0.440119,0.115269 0.345807,0 0.646205,-0.268961 0.241017,-0.220059 0.380737,-0.656685 0.167664,-0.530936 0.167664,-1.247002 0,-0.740516 -0.171157,-1.257481 -0.171157,-0.516964 -0.422653,-0.716065 -0.248003,-0.199101 -0.59381,-0.199101 z"
                 id="path3899" /><path
                 d="m 89.06276,89.372355 h 0.261975 v 4.044898 q 0,0.286426 0.03493,0.370258 0.03842,0.08034 0.122255,0.122255 0.08383,0.04192 0.331835,0.04192 h 0.342314 v 0.293412 h -2.301888 v -0.293412 h 0.380737 q 0.248003,0 0.328342,-0.04192 0.08383,-0.04541 0.129241,-0.13972 0.04541,-0.0978 0.04541,-0.352793 v -3.325339 h -0.883729 v -0.300398 q 0.723051,-0.101297 1.208578,-0.419161 z"
                 id="path3901" /></g></g><g
             id="g9938"><path
               style="opacity:1;fill:none;fill-opacity:1;stroke:#000000;stroke-width:0.568314;stroke-dasharray:1.13663, 0.568314;stroke-dashoffset:0;stroke-opacity:1"
               d="m 76.646542,106.26221 v 12.69244"
               id="path6530" /><path
               style="opacity:1;fill:none;fill-opacity:1;stroke:#000000;stroke-width:0.571608;stroke-dasharray:1.14322, 0.571608;stroke-dashoffset:0;stroke-opacity:1"
               d="m 79.05712,106.16382 v 12.84003"
               id="path9934" /></g></g><g
           id="g6319"
           style="display:inline"
           inkscape:label="Shoes"><g
             id="g6233"
             style="display:inline"><path
               style="display:inline;opacity:1;fill:#181818;fill-opacity:1;stroke:#000000;stroke-width:0.565;stroke-linecap:round;stroke-linejoin:round;stroke-dasharray:none;stroke-opacity:1"
               d="m 65.921929,123.08706 c 0,0 -7.799804,0.079 -8.830586,5.41151 -0.133862,0.6925 0.02459,2.1154 0.02459,2.1154 0,0 15.140503,2.89959 17.941937,0.50636 1.915613,-1.63648 0.462626,-7.73563 0.462626,-7.73563 z"
               id="path446"
               sodipodi:nodetypes="cscscc" /><path
               style="fill:#101010;fill-opacity:1;stroke:#000000;stroke-width:0.565;stroke-linecap:round;stroke-linejoin:round;stroke-dasharray:none;stroke-opacity:1;paint-order:normal"
               d="m 56.771571,128.76914 c 1.967819,1.18069 12.841766,3.4971 19.08959,0.64377 0.10436,0.12175 0.767774,1.53123 0.07205,2.20957 -9.232891,2.93063 -18.230842,0.21468 -19.309222,-0.0984 -0.295685,-0.60876 -0.80904,-1.8331 0.147587,-2.75494 z"
               id="path2502"
               sodipodi:nodetypes="ccccc" /><path
               style="opacity:1;mix-blend-mode:normal;fill:#363636;fill-opacity:1;stroke:none;stroke-width:0.264583px;stroke-linecap:butt;stroke-linejoin:miter;stroke-opacity:1;filter:url(#filter4217)"
               d="m 90.175296,124.39198 c 4.835317,-0.087 7.165145,3.26028 7.182538,4.00819 -0.184483,0.60264 -1.087395,0.86602 -2.280385,0.60774 -0.08138,-2.34925 -2.661413,-3.82283 -4.852959,-4.03155 -0.270575,-0.17218 -0.270574,-0.48599 -0.04919,-0.58438 z"
               id="path3111"
               sodipodi:nodetypes="ccccc"
               transform="matrix(-1,0,0,1,156.08447,-0.39356376)" /></g><g
             id="g6309"
             transform="matrix(-1,0,0,1,155.88389,0)"
             style="display:inline"><path
               style="display:inline;opacity:1;fill:#181818;fill-opacity:1;stroke:#000000;stroke-width:0.565;stroke-linecap:round;stroke-linejoin:round;stroke-dasharray:none;stroke-opacity:1"
               d="m 65.921929,123.08706 c 0,0 -7.799804,0.079 -8.830586,5.41151 -0.133862,0.6925 0.02459,2.1154 0.02459,2.1154 0,0 15.140503,2.89959 17.941937,0.50636 1.915613,-1.63648 0.462626,-7.73563 0.462626,-7.73563 z"
               id="path6303"
               sodipodi:nodetypes="cscscc" /><path
               style="fill:#101010;fill-opacity:1;stroke:#000000;stroke-width:0.565;stroke-linecap:round;stroke-linejoin:round;stroke-dasharray:none;stroke-opacity:1;paint-order:normal"
               d="m 56.771571,128.76914 c 1.967819,1.18069 12.841766,3.4971 19.08959,0.64377 0.10436,0.12175 0.767774,1.53123 0.07205,2.20957 -9.232891,2.93063 -18.230842,0.21468 -19.309222,-0.0984 -0.295685,-0.60876 -0.80904,-1.8331 0.147587,-2.75494 z"
               id="path6305"
               sodipodi:nodetypes="ccccc" /><path
               style="opacity:1;mix-blend-mode:normal;fill:#363636;fill-opacity:1;stroke:none;stroke-width:0.264583px;stroke-linecap:butt;stroke-linejoin:miter;stroke-opacity:1;filter:url(#filter4217)"
               d="m 90.175296,124.39198 c 4.835317,-0.087 7.165145,3.26028 7.182538,4.00819 -0.184483,0.60264 -1.087395,0.86602 -2.280385,0.60774 -0.08138,-2.34925 -2.661413,-3.82283 -4.852959,-4.03155 -0.270575,-0.17218 -0.270574,-0.48599 -0.04919,-0.58438 z"
               id="path6307"
               sodipodi:nodetypes="ccccc"
               transform="matrix(-1,0,0,1,156.08447,-0.39356376)" /></g></g></g></g></g></svg>
