<?xml version="1.0" encoding="UTF-8" standalone="no"?>
<!-- Created with Inkscape (http://www.inkscape.org/) -->

<svg
   width="210mm"
   height="297mm"
   viewBox="0 0 210 297"
   version="1.1"
   id="svg5"
   inkscape:version="1.1.2 (b8e25be833, 2022-02-05)"
   sodipodi:docname="raspberry-jam-label.svg"
   xmlns:inkscape="http://www.inkscape.org/namespaces/inkscape"
   xmlns:sodipodi="http://sodipodi.sourceforge.net/DTD/sodipodi-0.dtd"
   xmlns:xlink="http://www.w3.org/1999/xlink"
   xmlns="http://www.w3.org/2000/svg"
   xmlns:svg="http://www.w3.org/2000/svg">
  <sodipodi:namedview
     id="namedview7"
     pagecolor="#ffffff"
     bordercolor="#666666"
     borderopacity="1.0"
     inkscape:pageshadow="2"
     inkscape:pageopacity="0.0"
     inkscape:pagecheckerboard="0"
     inkscape:document-units="mm"
     showgrid="false"
     inkscape:zoom="0.62909904"
     inkscape:cx="684.31196"
     inkscape:cy="379.90838"
     inkscape:window-width="1920"
     inkscape:window-height="1017"
     inkscape:window-x="-8"
     inkscape:window-y="-8"
     inkscape:window-maximized="1"
     inkscape:current-layer="layer1"
     inkscape:snap-global="false" />
  <defs
     id="defs2">
    <pattern
       inkscape:collect="always"
       xlink:href="#pattern4020"
       id="pattern5319"
       patternTransform="matrix(0.10942015,-0.11912671,0.12164015,0.11172879,289.32185,106.25574)" />
    <linearGradient
       inkscape:collect="always"
       id="linearGradient3204">
      <stop
         style="stop-color:#dac054;stop-opacity:1"
         offset="0"
         id="stop3200" />
      <stop
         style="stop-color:#ffdc75;stop-opacity:1"
         offset="0.84152722"
         id="stop3677" />
      <stop
         style="stop-color:#fffca7;stop-opacity:1"
         offset="1"
         id="stop3202" />
    </linearGradient>
    <inkscape:path-effect
       effect="mirror_symmetry"
       start_point="110.56802,63.641766"
       end_point="110.56802,70.046888"
       center_point="110.56802,66.844327"
       id="path-effect2442"
       is_visible="true"
       lpeversion="1.1"
       mode="free"
       discard_orig_path="false"
       fuse_paths="false"
       oposite_fuse="false"
       split_items="false"
       split_open="false" />
    <inkscape:path-effect
       effect="mirror_symmetry"
       start_point="111.15162,34.846569"
       end_point="111.15162,158.51437"
       center_point="111.15162,96.68047"
       id="path-effect843"
       is_visible="true"
       lpeversion="1.1"
       mode="free"
       discard_orig_path="false"
       fuse_paths="false"
       oposite_fuse="false"
       split_items="false"
       split_open="false" />
    <inkscape:path-effect
       effect="mirror_symmetry"
       start_point="111.15162,34.846569"
       end_point="111.15162,158.51437"
       center_point="111.15162,96.68047"
       id="path-effect823"
       is_visible="true"
       lpeversion="1.1"
       mode="free"
       discard_orig_path="false"
       fuse_paths="false"
       oposite_fuse="false"
       split_items="false"
       split_open="false" />
    <radialGradient
       inkscape:collect="always"
       xlink:href="#linearGradient3204"
       id="radialGradient3272"
       cx="60.724171"
       cy="220.6478"
       fx="60.724171"
       fy="220.6478"
       r="16.315432"
       gradientTransform="matrix(0.9866897,0.01315445,-0.01293991,0.97059711,3.6634206,5.6888846)"
       gradientUnits="userSpaceOnUse" />
    <radialGradient
       inkscape:collect="always"
       xlink:href="#linearGradient3204"
       id="radialGradient4018"
       gradientUnits="userSpaceOnUse"
       gradientTransform="matrix(0.9866897,0.01315445,-0.01293991,0.97059711,3.6634206,5.6888846)"
       cx="60.724171"
       cy="220.6478"
       fx="60.724171"
       fy="220.6478"
       r="16.315432" />
    <pattern
       patternUnits="userSpaceOnUse"
       width="121.03527"
       height="120.24048"
       patternTransform="translate(168.19625,927.21815)"
       id="pattern4020">
      <g
         id="g4016"
         transform="matrix(3.7795276,0,0,3.7795276,-168.99104,-773.82418)">
        <rect
           style="fill:url(#radialGradient4018);fill-opacity:1;fill-rule:evenodd;stroke:none;stroke-width:0.606949;stroke-miterlimit:4;stroke-dasharray:none;stroke-opacity:1"
           id="rect4000"
           width="32.023914"
           height="31.813627"
           x="44.712212"
           y="204.74098"
           ry="0" />
        <rect
           style="fill:none;fill-rule:evenodd;stroke:#b1b467;stroke-width:1;stroke-miterlimit:4;stroke-dasharray:none;stroke-opacity:1"
           id="rect4002"
           width="29.02895"
           height="29.02895"
           x="46.209694"
           y="206.13332"
           ry="6.5649757" />
        <rect
           style="fill:none;fill-rule:evenodd;stroke:#b1b467;stroke-width:1;stroke-miterlimit:4;stroke-dasharray:none;stroke-opacity:1"
           id="rect4004"
           width="25.158422"
           height="25.158424"
           x="48.151539"
           y="207.97002"
           ry="5.6896467" />
        <rect
           style="fill:none;fill-rule:evenodd;stroke:#b1b467;stroke-width:1;stroke-miterlimit:4;stroke-dasharray:none;stroke-opacity:1"
           id="rect4006"
           width="21.287897"
           height="21.287897"
           x="50.0868"
           y="209.90529"
           ry="4.8143163" />
        <rect
           style="fill:none;fill-rule:evenodd;stroke:#b1b467;stroke-width:1;stroke-miterlimit:4;stroke-dasharray:none;stroke-opacity:1"
           id="rect4008"
           width="17.192387"
           height="17.192387"
           x="52.134556"
           y="211.95303"
           ry="3.8881056" />
        <rect
           style="fill:none;fill-rule:evenodd;stroke:#b1b467;stroke-width:1;stroke-miterlimit:4;stroke-dasharray:none;stroke-opacity:1"
           id="rect4010"
           width="13.230448"
           height="13.230447"
           x="54.115524"
           y="213.93401"
           ry="2.9921021" />
        <rect
           style="fill:none;fill-rule:evenodd;stroke:#b1b467;stroke-width:1;stroke-miterlimit:4;stroke-dasharray:none;stroke-opacity:1"
           id="rect4012"
           width="9.2972813"
           height="9.2972822"
           x="56.280048"
           y="215.88823"
           ry="2.1026061" />
        <rect
           style="fill:none;fill-rule:evenodd;stroke:#b1b467;stroke-width:1;stroke-miterlimit:4;stroke-dasharray:none;stroke-opacity:1"
           id="rect4014"
           width="5.103116"
           height="5.1031156"
           x="58.389481"
           y="217.99768"
           ry="1.1540837" />
      </g>
    </pattern>
  </defs>
  <g
     inkscape:label="Слой 1"
     inkscape:groupmode="layer"
     id="layer1">
    <g
       id="g879"
       inkscape:export-filename="D:\myprojects\git\3d-models\blender-2.8\simple (with-materials)\raspberry-jam-jar\g879.png"
       inkscape:export-xdpi="96"
       inkscape:export-ydpi="96">
      <path
         style="fill:url(#pattern5319);fill-opacity:1;stroke:#000000;stroke-width:0.264583px;stroke-linecap:butt;stroke-linejoin:miter;stroke-opacity:1"
         d="m 111.15162,34.846569 c 0,0 -10.00722,9.292421 -12.509023,9.828519 C 96.140793,45.21119 90.06498,45.389892 81.844765,42.709385 73.624548,40.028881 67.191336,40.38628 64.15343,40.564982 c -3.037906,0.1787 -11.258124,4.110106 -16.261733,9.828519 -5.00361,5.718411 -4.288809,5.361012 -4.288809,5.361012 l 0.536102,6.075812 -1.608304,1.965703 c 0,0 -3.752708,6.433214 -4.110109,9.113719 -0.3574,2.680504 -0.852781,4.190008 -0.848329,7.617065 0.0026,2.034362 0.131538,3.195302 0.131538,3.195302 l -3.750717,5.091964 0.178699,16.440432 3.574008,4.28881 -0.1787,6.79061 c 0,0 0.846338,5.63005 1.918541,8.13186 1.072203,2.50181 2.588907,5.08949 3.124275,5.88916 0.628432,0.93867 1.565118,1.88133 1.565118,1.88133 l -0.667639,5.54369 c 0,0 2.688462,3.45241 3.953286,4.85275 1.716548,1.94241 6.165566,6.2074 9.282474,7.79577 3.891633,1.98317 8.589762,2.83011 13.997022,2.78171 4.889131,-0.0438 19.561237,-4.11479 21.687933,-4.5315 0.03714,-0.007 0.07661,-0.0135 0.118233,-0.0192 1.748118,-0.23679 5.545185,-0.27014 7.589751,1.1053 1.63565,1.0037 5.04511,3.93407 6.40537,5.34709 1.16618,1.21141 4.65814,3.40248 4.65814,3.40248 m -0.008,-123.667801 c 0,0 10.00722,9.292421 12.50902,9.828519 2.50181,0.536102 8.57762,0.714804 16.79783,-1.965703 8.22022,-2.680504 14.65343,-2.323105 17.69134,-2.144403 3.03791,0.1787 11.25812,4.110106 16.26173,9.828519 5.00361,5.718411 4.28881,5.361012 4.28881,5.361012 l -0.5361,6.075812 1.6083,1.965703 c 0,0 3.75271,6.433214 4.11011,9.113719 0.3574,2.680504 0.85278,4.190008 0.84833,7.617065 -0.003,2.034362 -0.13154,3.195302 -0.13154,3.195302 l 3.75072,5.091964 -0.1787,16.440432 -3.57401,4.28881 0.1787,6.79061 c 0,0 -0.84633,5.63005 -1.91854,8.13186 -1.0722,2.50181 -2.5889,5.08949 -3.12427,5.88916 -0.62843,0.93867 -1.56512,1.88133 -1.56512,1.88133 l 0.66764,5.54369 c 0,0 -2.68846,3.45241 -3.95329,4.85275 -1.71655,1.94241 -6.16556,6.2074 -9.28247,7.79577 -3.89163,1.98317 -8.58976,2.83011 -13.99702,2.78171 -4.88913,-0.0438 -19.56124,-4.11479 -21.68794,-4.5315 -0.0371,-0.007 -0.0766,-0.0135 -0.11823,-0.0192 -1.74812,-0.23679 -5.54518,-0.27014 -7.58975,1.1053 -1.63565,1.0037 -5.04511,3.93407 -6.40537,5.34709 -1.16618,1.21141 -4.65814,3.40248 -4.65814,3.40248"
         id="path825"
         sodipodi:nodetypes="csssscccsscccccsscccsssscsc" />
      <path
         style="fill:none;stroke:#69487e;stroke-width:0.91758;stroke-linecap:butt;stroke-linejoin:miter;stroke-miterlimit:4;stroke-dasharray:none;stroke-opacity:0.696911"
         d="m 114.76506,145.52761 c 1.20428,-1.18476 4.2228,-3.64176 5.6709,-4.48333 1.81014,-1.15325 5.1718,-1.12528 6.71949,-0.92676 0.0369,0.005 0.0717,0.009 0.10465,0.0161 1.88282,0.34938 14.87257,3.76287 19.20109,3.79947 4.78724,0.0406 8.94665,-0.66954 12.39207,-2.33236 2.75951,-1.33178 6.69837,-4.9078 8.2181,-6.53643 1.1198,-1.17413 3.49998,-4.06886 3.49998,-4.06886 l -0.59108,-4.64817 c 0,0 0.82928,-0.79037 1.38565,-1.57741 0.474,-0.6705 1.81678,-2.84016 2.76603,-4.93784 0.94927,-2.09767 1.69854,-6.81825 1.69854,-6.81825 l -0.1582,-5.69365 3.1642,-3.596 0.15821,-13.784666 -3.32065,-4.269412 c 0,0 0.11346,-0.973405 0.11646,-2.679138 0.004,-2.873453 -0.43463,-4.139113 -0.75105,-6.386611 -0.31643,-2.247501 -3.63884,-7.641499 -3.63884,-7.641499 l -1.42387,-1.648165 0.47463,-5.094333 c 0,0 0.63282,0.299665 -3.79705,-4.494999 -4.42987,-4.794665 -11.7075,-8.090996 -14.39708,-8.240828 -2.68957,-0.149836 -8.38513,-0.449501 -15.66278,1.797997 -7.27765,2.2475 -12.65677,2.097665 -14.87172,1.648166 -2.21493,-0.449498 -11.07469,-7.423008 -11.07469,-7.423008 0,0 -8.85978,6.973505 -11.074709,7.423003 -2.214934,0.4495 -7.594068,0.599335 -14.871716,-1.648164 -7.277651,-2.2475 -12.973203,-1.947834 -15.66277,-1.798 -2.689566,0.149832 -9.967218,3.446164 -14.397093,8.24083 -4.429872,4.794664 -3.797034,4.495 -3.797034,4.495 l 0.474629,5.09433 -1.423888,1.648166 c 0,0 -3.322407,5.393999 -3.638826,7.641499 -0.316421,2.247498 -0.754996,3.513158 -0.751057,6.386612 0.0024,1.705732 0.116456,2.679136 0.116456,2.679136 l -3.320643,4.269414 0.158209,13.78467 3.164195,3.596 -0.158209,5.69365 c 0,0 0.749293,4.72057 1.698553,6.81825 0.94926,2.09767 2.292052,4.26734 2.766032,4.93783 0.556374,0.78705 1.385655,1.57741 1.385655,1.57741 l -0.591084,4.64818 c 0,0 2.38019,2.89471 3.499985,4.06885 1.519721,1.62864 5.458594,5.20465 8.218105,6.53645 3.445399,1.66281 7.604821,2.37293 12.392061,2.33234 4.328522,-0.0366 17.31826,-3.4501 19.2011,-3.79947 0.03287,-0.007 0.06783,-0.0115 0.104673,-0.0161 1.547671,-0.19854 4.909349,-0.22649 6.719476,0.92675 1.44809,0.84156 4.46661,3.29857 5.67091,4.48331 1.03246,1.01573 4.19836,3.00156 4.19836,3.00156 0,0 3.00317,-1.98581 4.03564,-3.00152 z"
         id="path2135"
         sodipodi:nodetypes="sccccscccssccccccscccsssscsssscccsscccccsscccsssscscs" />
      <g
         id="g18599">
        <path
           style="fill:none;stroke:#000000;stroke-width:0.665;stroke-linecap:round;stroke-linejoin:miter;stroke-miterlimit:4;stroke-dasharray:none;stroke-opacity:1"
           d="m 74.645249,67.061767 21.56088,-0.148693"
           id="path859" />
        <path
           style="fill:none;stroke:#000000;stroke-width:0.665;stroke-linecap:round;stroke-linejoin:miter;stroke-miterlimit:4;stroke-dasharray:none;stroke-opacity:1"
           d="m 125.35049,67.061767 h 21.56088"
           id="path861" />
        <path
           style="fill:none;stroke:#000000;stroke-width:0.665;stroke-linecap:round;stroke-linejoin:miter;stroke-miterlimit:4;stroke-dasharray:none;stroke-opacity:1"
           d="m 110.56802,66.81695 c 0,0 -2.0155,-3.122612 -4.74924,-3.175184 -1.78745,0 -3.81352,1.39676 -3.81352,3.07906 0.0526,1.945159 2.52474,3.472574 3.99675,3.314858 2.47088,-0.05257 4.56601,-3.218734 4.56601,-3.218734 z m 0,0 c 0,0 2.0155,-3.122612 4.74924,-3.175184 1.78745,0 3.81352,1.39676 3.81352,3.07906 -0.0526,1.945159 -2.52474,3.472574 -3.99675,3.314858 -2.47088,-0.05257 -4.56601,-3.218734 -4.56601,-3.218734 z"
           id="path863"
           sodipodi:nodetypes="cccccccccc" />
        <path
           style="fill:none;stroke:#000000;stroke-width:0.665;stroke-linecap:round;stroke-linejoin:miter;stroke-miterlimit:4;stroke-dasharray:none;stroke-opacity:1"
           d="m 110.55527,58.381656 c 0.459,-0.04214 1.15558,1.369058 1.17417,2.205472 0.0744,1.747174 -2.32898,3.890827 -2.95984,4.521689 -0.53583,0.542198 -2.0151,1.725399 -2.0151,1.725399 0,0 -2.53483,2.029167 -4.58514,2.081739 -1.70496,0.0395 -3.596499,-0.851039 -3.536036,-1.928533 0.05893,-1.050114 1.618606,-1.993878 3.409116,-1.985618 2.26094,0.03798 4.71206,1.832412 4.71206,1.832412 1.2293,0.802643 1.31136,0.950856 2.18801,1.737637 0.639,0.573497 1.35209,1.323021 1.84482,2.055973 0,0 -1.07804,1.857148 -1.1569,3.066301 3e-5,1.051438 0.31388,1.9458 1.10246,2.024657 0.84115,-0.07886 1.09531,-1.130935 1.06902,-2.024657 -1e-5,-1.288011 -1.01458,-3.066301 -1.01458,-3.066301 0,0 0.83992,-1.364871 1.8125,-2.153449 0.49943,-0.552005 1.82152,-1.598477 1.82152,-1.598477 0,0 2.79849,-1.821524 4.76994,-1.84781 1.8663,-0.07886 3.31328,0.732228 3.37116,1.810636 0.0526,1.077723 -1.53457,2.166976 -3.08544,2.193262 -1.78744,0 -5.05566,-2.156088 -5.05566,-2.156088 0,0 -1.27589,-0.873361 -2.03818,-1.714511 -0.78641,-1.057495 -2.95788,-2.797039 -2.92454,-4.642231 0.0186,-0.724892 0.5237,-2.188441 1.09664,-2.137502 z"
           id="path995"
           sodipodi:nodetypes="ccccccccscccccccccccccc" />
      </g>
      <g
         id="g18841"
         transform="translate(0.14869572,59.626984)">
        <path
           style="fill:none;stroke:#000000;stroke-width:0.665;stroke-linecap:round;stroke-linejoin:miter;stroke-miterlimit:4;stroke-dasharray:none;stroke-opacity:1"
           d="m 74.645249,67.061767 21.56088,-0.148693"
           id="path18833" />
        <path
           style="fill:none;stroke:#000000;stroke-width:0.665;stroke-linecap:round;stroke-linejoin:miter;stroke-miterlimit:4;stroke-dasharray:none;stroke-opacity:1"
           d="m 125.35049,67.061767 h 21.56088"
           id="path18835" />
        <path
           style="fill:none;stroke:#000000;stroke-width:0.665;stroke-linecap:round;stroke-linejoin:miter;stroke-miterlimit:4;stroke-dasharray:none;stroke-opacity:1"
           d="m 110.56802,66.81695 c 0,0 -2.0155,-3.122612 -4.74924,-3.175184 -1.78745,0 -3.81352,1.39676 -3.81352,3.07906 0.0526,1.945159 2.52474,3.472574 3.99675,3.314858 2.47088,-0.05257 4.56601,-3.218734 4.56601,-3.218734 z m 0,0 c 0,0 2.0155,-3.122612 4.74924,-3.175184 1.78745,0 3.81352,1.39676 3.81352,3.07906 -0.0526,1.945159 -2.52474,3.472574 -3.99675,3.314858 -2.47088,-0.05257 -4.56601,-3.218734 -4.56601,-3.218734 z"
           id="path18837"
           sodipodi:nodetypes="cccccccccc" />
        <path
           style="fill:none;stroke:#000000;stroke-width:0.665;stroke-linecap:round;stroke-linejoin:miter;stroke-miterlimit:4;stroke-dasharray:none;stroke-opacity:1"
           d="m 110.55527,58.381656 c 0.459,-0.04214 1.15558,1.369058 1.17417,2.205472 0.0744,1.747174 -2.32898,3.890827 -2.95984,4.521689 -0.53583,0.542198 -2.0151,1.725399 -2.0151,1.725399 0,0 -2.53483,2.029167 -4.58514,2.081739 -1.70496,0.0395 -3.596499,-0.851039 -3.536036,-1.928533 0.05893,-1.050114 1.618606,-1.993878 3.409116,-1.985618 2.26094,0.03798 4.71206,1.832412 4.71206,1.832412 1.2293,0.802643 1.31136,0.950856 2.18801,1.737637 0.639,0.573497 1.35209,1.323021 1.84482,2.055973 0,0 -1.07804,1.857148 -1.1569,3.066301 3e-5,1.051438 0.31388,1.9458 1.10246,2.024657 0.84115,-0.07886 1.09531,-1.130935 1.06902,-2.024657 -1e-5,-1.288011 -1.01458,-3.066301 -1.01458,-3.066301 0,0 0.83992,-1.364871 1.8125,-2.153449 0.49943,-0.552005 1.82152,-1.598477 1.82152,-1.598477 0,0 2.79849,-1.821524 4.76994,-1.84781 1.8663,-0.07886 3.31328,0.732228 3.37116,1.810636 0.0526,1.077723 -1.53457,2.166976 -3.08544,2.193262 -1.78744,0 -5.05566,-2.156088 -5.05566,-2.156088 0,0 -1.27589,-0.873361 -2.03818,-1.714511 -0.78641,-1.057495 -2.95788,-2.797039 -2.92454,-4.642231 0.0186,-0.724892 0.5237,-2.188441 1.09664,-2.137502 z"
           id="path18839"
           sodipodi:nodetypes="ccccccccscccccccccccccc" />
      </g>
      <text
         xml:space="preserve"
         style="font-style:italic;font-variant:normal;font-weight:bold;font-stretch:normal;font-size:15.9738px;line-height:1.25;font-family:Arial;-inkscape-font-specification:'Arial Bold Italic';letter-spacing:0.374385px;fill:#35409a;fill-opacity:1;stroke:none;stroke-width:0.249591"
         x="58.192863"
         y="95.804146"
         id="text22121"
         transform="scale(0.94333334,1.0600707)"><tspan
           sodipodi:role="line"
           id="tspan22119"
           style="font-style:italic;font-variant:normal;font-weight:bold;font-stretch:normal;font-size:15.9738px;font-family:Arial;-inkscape-font-specification:'Arial Bold Italic';fill:#35409a;fill-opacity:1;stroke-width:0.249591"
           x="58.192863"
           y="95.804146">Raspberry Jam</tspan></text>
    </g>
    <g
       id="g3918">
      <rect
         style="fill:url(#radialGradient3272);fill-opacity:1;fill-rule:evenodd;stroke:none;stroke-width:0.606949;stroke-miterlimit:4;stroke-dasharray:none;stroke-opacity:1"
         id="rect2197"
         width="32.023914"
         height="31.813627"
         x="44.712212"
         y="204.74098"
         ry="0" />
      <rect
         style="fill:none;fill-rule:evenodd;stroke:#b1b467;stroke-width:1;stroke-miterlimit:4;stroke-dasharray:none;stroke-opacity:1"
         id="rect883"
         width="29.02895"
         height="29.02895"
         x="46.209694"
         y="206.13332"
         ry="6.5649757" />
      <rect
         style="fill:none;fill-rule:evenodd;stroke:#b1b467;stroke-width:1;stroke-miterlimit:4;stroke-dasharray:none;stroke-opacity:1"
         id="rect1900"
         width="25.158422"
         height="25.158424"
         x="48.151539"
         y="207.97002"
         ry="5.6896467" />
      <rect
         style="fill:none;fill-rule:evenodd;stroke:#b1b467;stroke-width:1;stroke-miterlimit:4;stroke-dasharray:none;stroke-opacity:1"
         id="rect2084"
         width="21.287897"
         height="21.287897"
         x="50.0868"
         y="209.90529"
         ry="4.8143163" />
      <rect
         style="fill:none;fill-rule:evenodd;stroke:#b1b467;stroke-width:1;stroke-miterlimit:4;stroke-dasharray:none;stroke-opacity:1"
         id="rect2111"
         width="17.192387"
         height="17.192387"
         x="52.134556"
         y="211.95303"
         ry="3.8881056" />
      <rect
         style="fill:none;fill-rule:evenodd;stroke:#b1b467;stroke-width:1;stroke-miterlimit:4;stroke-dasharray:none;stroke-opacity:1"
         id="rect2113"
         width="13.230448"
         height="13.230447"
         x="54.115524"
         y="213.93401"
         ry="2.9921021" />
      <rect
         style="fill:none;fill-rule:evenodd;stroke:#b1b467;stroke-width:1;stroke-miterlimit:4;stroke-dasharray:none;stroke-opacity:1"
         id="rect2142"
         width="9.2972813"
         height="9.2972822"
         x="56.280048"
         y="215.88823"
         ry="2.1026061" />
      <rect
         style="fill:none;fill-rule:evenodd;stroke:#b1b467;stroke-width:1;stroke-miterlimit:4;stroke-dasharray:none;stroke-opacity:1"
         id="rect2144"
         width="5.103116"
         height="5.1031156"
         x="58.389481"
         y="217.99768"
         ry="1.1540837" />
    </g>
    <rect
       style="fill:url(#pattern4020);stroke:none"
       transform="scale(0.26458333)"
       width="121.03527"
       height="120.24048"
       x="168.19624"
       y="927.21814"
       id="rect4031" />
  </g>
</svg>
