<?xml version="1.0" encoding="UTF-8" standalone="no"?>
<!-- Created with Inkscape (http://www.inkscape.org/) -->

<svg
   width="297mm"
   height="210mm"
   viewBox="0 0 297 210"
   version="1.1"
   id="svg5"
   inkscape:version="1.1 (c68e22c387, 2021-05-23)"
   sodipodi:docname="jug.svg"
   xmlns:inkscape="http://www.inkscape.org/namespaces/inkscape"
   xmlns:sodipodi="http://sodipodi.sourceforge.net/DTD/sodipodi-0.dtd"
   xmlns:xlink="http://www.w3.org/1999/xlink"
   xmlns="http://www.w3.org/2000/svg"
   xmlns:svg="http://www.w3.org/2000/svg">
  <sodipodi:namedview
     id="namedview7"
     pagecolor="#ffffff"
     bordercolor="#666666"
     borderopacity="1.0"
     inkscape:pageshadow="2"
     inkscape:pageopacity="0.0"
     inkscape:pagecheckerboard="0"
     inkscape:document-units="mm"
     showgrid="false"
     inkscape:zoom="0.49965621"
     inkscape:cx="545.60991"
     inkscape:cy="746.54217"
     inkscape:window-width="1920"
     inkscape:window-height="1058"
     inkscape:window-x="-8"
     inkscape:window-y="-8"
     inkscape:window-maximized="1"
     inkscape:current-layer="layer1" />
  <defs
     id="defs2">
    <inkscape:path-effect
       effect="mirror_symmetry"
       start_point="56.296552,130.10721"
       end_point="56.296552,156.74723"
       center_point="56.296552,143.42722"
       id="path-effect106537"
       is_visible="true"
       lpeversion="1.1"
       mode="free"
       discard_orig_path="false"
       fuse_paths="false"
       oposite_fuse="false"
       split_items="false"
       split_open="false" />
    <pattern
       inkscape:collect="always"
       xlink:href="#pattern22323"
       id="pattern23045"
       patternTransform="matrix(0.26458333,0,0,0.26458333,98.437341,66.709899)" />
    <pattern
       inkscape:collect="always"
       xlink:href="#pattern22323"
       id="pattern22647"
       patternTransform="matrix(0.26524923,0,0,0.26155765,152.8683,55.150725)" />
    <inkscape:path-effect
       effect="mirror_symmetry"
       start_point="98.856162,50.734817"
       end_point="98.856162,52.907649"
       center_point="98.856162,51.821233"
       id="path-effect18068"
       is_visible="true"
       lpeversion="1.1"
       mode="free"
       discard_orig_path="false"
       fuse_paths="false"
       oposite_fuse="false"
       split_items="false"
       split_open="false" />
    <inkscape:path-effect
       effect="mirror_symmetry"
       start_point="104.32024,52.914628"
       end_point="104.44918,61.263122"
       center_point="104.38471,57.088875"
       id="path-effect10462"
       is_visible="true"
       lpeversion="1.1"
       mode="free"
       discard_orig_path="false"
       fuse_paths="false"
       oposite_fuse="false"
       split_items="false"
       split_open="false" />
    <clipPath
       clipPathUnits="userSpaceOnUse"
       id="clipPath21245">
      <rect
         style="fill:#2f6ff2;fill-opacity:0.687366;stroke:none;stroke-width:0.188886;stroke-linecap:round;stroke-linejoin:round;stroke-miterlimit:4;stroke-dasharray:none;paint-order:markers fill stroke"
         id="rect21247"
         width="10.945158"
         height="16.805862"
         x="98.915863"
         y="47.285084" />
    </clipPath>
    <pattern
       patternUnits="userSpaceOnUse"
       width="41.367526"
       height="57.825854"
       patternTransform="translate(372.04665,252.1319)"
       id="pattern22323">
      <g
         id="g18741"
         transform="matrix(3.7795276,0,0,3.7795276,-373.85523,-181.27437)"
         clip-path="url(#clipPath21245)">
        <path
           style="fill:#2859bf;fill-opacity:1;stroke:none;stroke-width:0.265;stroke-linecap:round;stroke-linejoin:miter;stroke-miterlimit:4;stroke-dasharray:none;stroke-opacity:1"
           d="m 102.43284,60.746417 c -1.41824,-0.365303 -2.29066,-1.112827 -2.978286,-1.821945 -0.902515,-1.031444 -1.077369,-2.269166 -1.055881,-2.913819 0.06446,-0.945491 0.290805,-1.795441 0.935458,-2.397117 0.972709,-0.827545 1.623539,-0.775551 2.289679,-0.754063 0.75209,0.06447 2.10129,0.809481 2.03682,2.098787 -0.086,1.224841 -2.01184,1.430677 -2.01184,1.430677 0,0 1.09591,-0.451257 1.01792,-1.430677 0.043,-0.451257 -0.69658,-1.052392 -1.16933,-1.052392 -0.49423,-0.02149 -1.06886,0.04745 -1.520119,0.584663 -0.494234,0.666141 -0.455731,1.166816 -0.434243,1.618073 0.06446,0.580188 0.346771,1.49111 1.055882,2.135763 0.68763,0.601676 1.10333,0.758538 2.00585,1.166818 1.24633,0.515722 1.85042,-0.376318 1.85042,-0.376318 0,0 0.55056,0.874202 1.78037,0.320242 0.88948,-0.435957 1.30014,-0.605582 1.96886,-1.228207 0.68886,-0.666244 0.94291,-1.58545 0.98942,-2.167352 0.008,-0.451705 0.0306,-0.95333 -0.48401,-1.603891 -0.46763,-0.523021 -1.04411,-0.574182 -1.53744,-0.537439 -0.47253,0.0146 -1.19319,0.638287 -1.13628,1.088001 -0.0477,0.981361 1.06162,1.398559 1.06162,1.398559 0,0 -1.93128,-0.146264 -2.05506,-1.367865 -0.10426,-1.2867 1.22129,-2.073022 1.97103,-2.160687 0.66516,-0.04205 1.31407,-0.114118 2.31187,0.682993 0.66293,0.581481 0.91542,1.424036 1.00904,2.367085 0.0414,0.643682 -0.0952,1.886214 -0.96539,2.945037 -0.6654,0.730015 -1.51432,1.504125 -2.9206,1.913052 -0.55312,0.189079 -1.44553,0.417097 -2.00141,0.449828 -0.55672,-0.02152 -1.45565,-0.215899 -2.01435,-0.387806 z"
           id="path18717"
           sodipodi:nodetypes="ccccccccccccccccccccccccccccc" />
        <path
           style="fill:#2859bf;fill-opacity:1;stroke:none;stroke-width:0.265;stroke-linecap:round;stroke-linejoin:miter;stroke-miterlimit:4;stroke-dasharray:none;stroke-opacity:1"
           d="m 113.43286,60.746417 c -1.41824,-0.365303 -2.29066,-1.112827 -2.97829,-1.821945 -0.90251,-1.031444 -1.07737,-2.269166 -1.05588,-2.913819 0.0645,-0.945491 0.29081,-1.795441 0.93546,-2.397117 0.97271,-0.827545 1.62354,-0.775551 2.28968,-0.754063 0.75209,0.06447 2.10129,0.809481 2.03682,2.098787 -0.086,1.224841 -2.01184,1.430677 -2.01184,1.430677 0,0 1.09591,-0.451257 1.01792,-1.430677 0.043,-0.451257 -0.69658,-1.052392 -1.16933,-1.052392 -0.49423,-0.02149 -1.06886,0.04745 -1.52012,0.584663 -0.49424,0.666141 -0.45573,1.166816 -0.43424,1.618073 0.0645,0.580188 0.34677,1.49111 1.05588,2.135763 0.68763,0.601676 1.10333,0.758538 2.00585,1.166818 1.24633,0.515722 1.85042,-0.376318 1.85042,-0.376318 0,0 0.55056,0.874202 1.78037,0.320242 0.88948,-0.435957 1.30014,-0.605582 1.96886,-1.228207 0.68886,-0.666244 0.94291,-1.58545 0.98942,-2.167352 0.008,-0.451705 0.0306,-0.95333 -0.48401,-1.603891 -0.46763,-0.523021 -1.04411,-0.574182 -1.53744,-0.537439 -0.47253,0.0146 -1.19319,0.638287 -1.13628,1.088001 -0.0477,0.981361 1.06162,1.398559 1.06162,1.398559 0,0 -1.93128,-0.146264 -2.05506,-1.367865 -0.10426,-1.2867 1.22129,-2.073022 1.97103,-2.160687 0.66516,-0.04205 1.31407,-0.114118 2.31187,0.682993 0.66293,0.581481 0.91542,1.424036 1.00904,2.367085 0.0414,0.643682 -0.0952,1.886214 -0.96539,2.945037 -0.6654,0.730015 -1.51432,1.504125 -2.9206,1.913052 -0.55312,0.189079 -1.44553,0.417097 -2.00141,0.449828 -0.55672,-0.02152 -1.45565,-0.215899 -2.01435,-0.387806 z"
           id="path18719"
           sodipodi:nodetypes="ccccccccccccccccccccccccccccc" />
        <path
           style="fill:#2859bf;fill-opacity:1;stroke:none;stroke-width:0.265;stroke-linecap:round;stroke-linejoin:miter;stroke-miterlimit:4;stroke-dasharray:none;stroke-opacity:1"
           d="m 91.432855,60.746308 c -1.41824,-0.365303 -2.29066,-1.112827 -2.97829,-1.821945 -0.90251,-1.031444 -1.07737,-2.269166 -1.05588,-2.913819 0.0645,-0.945491 0.29081,-1.795441 0.93546,-2.397117 0.97271,-0.827545 1.62354,-0.775551 2.28968,-0.754063 0.75209,0.06447 2.10129,0.809481 2.03682,2.098787 -0.086,1.224841 -2.01184,1.430677 -2.01184,1.430677 0,0 1.09591,-0.451257 1.01792,-1.430677 0.043,-0.451257 -0.69658,-1.052392 -1.16933,-1.052392 -0.49423,-0.02149 -1.06886,0.04745 -1.52012,0.584663 -0.49424,0.666141 -0.45573,1.166816 -0.43424,1.618073 0.0645,0.580188 0.34677,1.49111 1.05588,2.135763 0.68763,0.601676 1.10333,0.758538 2.00585,1.166818 1.24633,0.515722 1.85042,-0.376318 1.85042,-0.376318 0,0 0.55056,0.874202 1.78037,0.320242 0.88948,-0.435957 1.30014,-0.605582 1.96886,-1.228207 0.68886,-0.666244 0.94291,-1.58545 0.98942,-2.167352 0.008,-0.451705 0.0306,-0.95333 -0.48401,-1.603891 -0.46763,-0.523021 -1.04411,-0.574182 -1.53744,-0.537439 -0.47253,0.0146 -1.19319,0.638287 -1.13628,1.088001 -0.0477,0.981361 1.06162,1.398559 1.06162,1.398559 0,0 -1.93128,-0.146264 -2.05506,-1.367865 -0.10426,-1.2867 1.22129,-2.073022 1.97103,-2.160687 0.66516,-0.04205 1.31407,-0.114118 2.31187,0.682993 0.66293,0.581481 0.91542,1.424036 1.00904,2.367085 0.0414,0.643682 -0.0952,1.886214 -0.96539,2.945037 -0.6654,0.730015 -1.51432,1.504125 -2.9206,1.913052 -0.55312,0.189079 -1.44553,0.417097 -2.00141,0.449828 -0.55672,-0.02152 -1.45565,-0.215899 -2.01435,-0.387806 z"
           id="path18721"
           sodipodi:nodetypes="ccccccccccccccccccccccccccccc" />
        <rect
           style="fill:#2859bf;fill-opacity:1;stroke:none;stroke-width:0.264999;stroke-linecap:round;stroke-linejoin:round;stroke-miterlimit:4;stroke-dasharray:none;paint-order:markers fill stroke"
           id="rect18723"
           width="31.974785"
           height="1.8909818"
           x="88.360428"
           y="61.370953" />
        <rect
           style="fill:#2859bf;fill-opacity:1;stroke:none;stroke-width:0.264999;stroke-linecap:round;stroke-linejoin:round;stroke-miterlimit:4;stroke-dasharray:none;paint-order:markers fill stroke"
           id="rect18725"
           width="32.404552"
           height="2.4067042"
           x="88.532326"
           y="47.962177" />
        <rect
           style="fill:#2859bf;fill-opacity:1;stroke:none;stroke-width:0.229873;stroke-linecap:round;stroke-linejoin:round;stroke-miterlimit:4;stroke-dasharray:none;paint-order:markers fill stroke"
           id="rect18727"
           width="1.8290224"
           height="2.171706"
           x="103.45454"
           y="60.6185" />
        <rect
           style="fill:#2859bf;fill-opacity:1;stroke:none;stroke-width:0.229872;stroke-linecap:round;stroke-linejoin:round;stroke-miterlimit:4;stroke-dasharray:none;paint-order:markers fill stroke"
           id="rect18729"
           width="1.829"
           height="2.171706"
           x="114.45456"
           y="60.618" />
        <rect
           style="fill:#2859bf;fill-opacity:1;stroke:none;stroke-width:0.229872;stroke-linecap:round;stroke-linejoin:round;stroke-miterlimit:4;stroke-dasharray:none;paint-order:markers fill stroke"
           id="rect18731"
           width="1.829"
           height="2.171706"
           x="92.454567"
           y="60.618" />
        <path
           style="fill:#2859bf;fill-opacity:1;stroke:none;stroke-width:0.264583px;stroke-linecap:butt;stroke-linejoin:miter;stroke-opacity:1"
           d="m 97.762149,52.087144 c -0.364671,0.243113 -0.516618,0.516617 -0.698953,0.805315 l -1.063622,0.01519 c -0.03039,-0.531812 0.625995,-1.309556 0.987649,-1.534658 0.390466,-0.346367 1.287246,-0.614888 1.868939,-0.630578 0.581693,0.01569 1.478478,0.284211 1.868938,0.630578 0.36165,0.225102 1.01804,1.002846 0.98765,1.534658 l -1.06362,-0.01519 c -0.18234,-0.288698 -0.33428,-0.562202 -0.698955,-0.805315 -0.258308,-0.182335 -0.698951,-0.273504 -1.094013,-0.288698 -0.395062,0.01519 -0.835705,0.106363 -1.094013,0.288698 z"
           id="path18733"
           sodipodi:nodetypes="ccccccccccc" />
        <path
           style="fill:#2859bf;fill-opacity:1;stroke:none;stroke-width:0.264578px;stroke-linecap:butt;stroke-linejoin:miter;stroke-opacity:1"
           d="m 108.80565,52.087144 c -0.36466,0.243113 -0.5166,0.516617 -0.69893,0.805315 l -1.06358,0.01519 c -0.0304,-0.531812 0.62598,-1.309556 0.98761,-1.534658 0.39046,-0.346367 1.2872,-0.614888 1.86887,-0.630578 0.58167,0.01569 1.47842,0.284211 1.86887,0.630578 0.36163,0.225102 1.018,1.002846 0.98761,1.534658 l -1.06358,-0.01519 c -0.18233,-0.288698 -0.33427,-0.562202 -0.69893,-0.805315 -0.2583,-0.182335 -0.69892,-0.273504 -1.09397,-0.288698 -0.39504,0.01519 -0.83568,0.106363 -1.09397,0.288698 z"
           id="path18735"
           sodipodi:nodetypes="ccccccccccc" />
        <rect
           style="fill:#2859bf;fill-opacity:1;stroke:none;stroke-width:0.165471;stroke-linecap:round;stroke-linejoin:round;stroke-miterlimit:4;stroke-dasharray:none;paint-order:markers fill stroke"
           id="rect18737"
           width="0.94773477"
           height="2.171706"
           x="98.382294"
           y="49.070595" />
        <rect
           style="fill:#2859bf;fill-opacity:1;stroke:none;stroke-width:0.165471;stroke-linecap:round;stroke-linejoin:round;stroke-miterlimit:4;stroke-dasharray:none;paint-order:markers fill stroke"
           id="rect18739"
           width="0.94773477"
           height="2.171706"
           x="109.42575"
           y="49.070595" />
      </g>
    </pattern>
  </defs>
  <g
     inkscape:label="Layer 1"
     inkscape:groupmode="layer"
     id="layer1">
    <g
       id="g18529"
       transform="translate(2.1868986,-18.525587)">
      <path
         style="fill:#2859bf;fill-opacity:1;stroke:none;stroke-width:0.265;stroke-linecap:round;stroke-linejoin:miter;stroke-miterlimit:4;stroke-dasharray:none;stroke-opacity:1"
         d="m 102.43284,60.746417 c -1.41824,-0.365303 -2.29066,-1.112827 -2.978286,-1.821945 -0.902515,-1.031444 -1.077369,-2.269166 -1.055881,-2.913819 0.06446,-0.945491 0.290805,-1.795441 0.935458,-2.397117 0.972709,-0.827545 1.623539,-0.775551 2.289679,-0.754063 0.75209,0.06447 2.10129,0.809481 2.03682,2.098787 -0.086,1.224841 -2.01184,1.430677 -2.01184,1.430677 0,0 1.09591,-0.451257 1.01792,-1.430677 0.043,-0.451257 -0.69658,-1.052392 -1.16933,-1.052392 -0.49423,-0.02149 -1.06886,0.04745 -1.520119,0.584663 -0.494234,0.666141 -0.455731,1.166816 -0.434243,1.618073 0.06446,0.580188 0.346771,1.49111 1.055882,2.135763 0.68763,0.601676 1.10333,0.758538 2.00585,1.166818 1.24633,0.515722 1.85042,-0.376318 1.85042,-0.376318 0,0 0.55056,0.874202 1.78037,0.320242 0.88948,-0.435957 1.30014,-0.605582 1.96886,-1.228207 0.68886,-0.666244 0.94291,-1.58545 0.98942,-2.167352 0.008,-0.451705 0.0306,-0.95333 -0.48401,-1.603891 -0.46763,-0.523021 -1.04411,-0.574182 -1.53744,-0.537439 -0.47253,0.0146 -1.19319,0.638287 -1.13628,1.088001 -0.0477,0.981361 1.06162,1.398559 1.06162,1.398559 0,0 -1.93128,-0.146264 -2.05506,-1.367865 -0.10426,-1.2867 1.22129,-2.073022 1.97103,-2.160687 0.66516,-0.04205 1.31407,-0.114118 2.31187,0.682993 0.66293,0.581481 0.91542,1.424036 1.00904,2.367085 0.0414,0.643682 -0.0952,1.886214 -0.96539,2.945037 -0.6654,0.730015 -1.51432,1.504125 -2.9206,1.913052 -0.55312,0.189079 -1.44553,0.417097 -2.00141,0.449828 -0.55672,-0.02152 -1.45565,-0.215899 -2.01435,-0.387806 z"
         id="path869"
         sodipodi:nodetypes="ccccccccccccccccccccccccccccc" />
      <path
         style="fill:#2859bf;fill-opacity:1;stroke:none;stroke-width:0.265;stroke-linecap:round;stroke-linejoin:miter;stroke-miterlimit:4;stroke-dasharray:none;stroke-opacity:1"
         d="m 113.43286,60.746417 c -1.41824,-0.365303 -2.29066,-1.112827 -2.97829,-1.821945 -0.90251,-1.031444 -1.07737,-2.269166 -1.05588,-2.913819 0.0645,-0.945491 0.29081,-1.795441 0.93546,-2.397117 0.97271,-0.827545 1.62354,-0.775551 2.28968,-0.754063 0.75209,0.06447 2.10129,0.809481 2.03682,2.098787 -0.086,1.224841 -2.01184,1.430677 -2.01184,1.430677 0,0 1.09591,-0.451257 1.01792,-1.430677 0.043,-0.451257 -0.69658,-1.052392 -1.16933,-1.052392 -0.49423,-0.02149 -1.06886,0.04745 -1.52012,0.584663 -0.49424,0.666141 -0.45573,1.166816 -0.43424,1.618073 0.0645,0.580188 0.34677,1.49111 1.05588,2.135763 0.68763,0.601676 1.10333,0.758538 2.00585,1.166818 1.24633,0.515722 1.85042,-0.376318 1.85042,-0.376318 0,0 0.55056,0.874202 1.78037,0.320242 0.88948,-0.435957 1.30014,-0.605582 1.96886,-1.228207 0.68886,-0.666244 0.94291,-1.58545 0.98942,-2.167352 0.008,-0.451705 0.0306,-0.95333 -0.48401,-1.603891 -0.46763,-0.523021 -1.04411,-0.574182 -1.53744,-0.537439 -0.47253,0.0146 -1.19319,0.638287 -1.13628,1.088001 -0.0477,0.981361 1.06162,1.398559 1.06162,1.398559 0,0 -1.93128,-0.146264 -2.05506,-1.367865 -0.10426,-1.2867 1.22129,-2.073022 1.97103,-2.160687 0.66516,-0.04205 1.31407,-0.114118 2.31187,0.682993 0.66293,0.581481 0.91542,1.424036 1.00904,2.367085 0.0414,0.643682 -0.0952,1.886214 -0.96539,2.945037 -0.6654,0.730015 -1.51432,1.504125 -2.9206,1.913052 -0.55312,0.189079 -1.44553,0.417097 -2.00141,0.449828 -0.55672,-0.02152 -1.45565,-0.215899 -2.01435,-0.387806 z"
         id="path12014"
         sodipodi:nodetypes="ccccccccccccccccccccccccccccc" />
      <path
         style="fill:#2859bf;fill-opacity:1;stroke:none;stroke-width:0.265;stroke-linecap:round;stroke-linejoin:miter;stroke-miterlimit:4;stroke-dasharray:none;stroke-opacity:1"
         d="m 91.432855,60.746308 c -1.41824,-0.365303 -2.29066,-1.112827 -2.97829,-1.821945 -0.90251,-1.031444 -1.07737,-2.269166 -1.05588,-2.913819 0.0645,-0.945491 0.29081,-1.795441 0.93546,-2.397117 0.97271,-0.827545 1.62354,-0.775551 2.28968,-0.754063 0.75209,0.06447 2.10129,0.809481 2.03682,2.098787 -0.086,1.224841 -2.01184,1.430677 -2.01184,1.430677 0,0 1.09591,-0.451257 1.01792,-1.430677 0.043,-0.451257 -0.69658,-1.052392 -1.16933,-1.052392 -0.49423,-0.02149 -1.06886,0.04745 -1.52012,0.584663 -0.49424,0.666141 -0.45573,1.166816 -0.43424,1.618073 0.0645,0.580188 0.34677,1.49111 1.05588,2.135763 0.68763,0.601676 1.10333,0.758538 2.00585,1.166818 1.24633,0.515722 1.85042,-0.376318 1.85042,-0.376318 0,0 0.55056,0.874202 1.78037,0.320242 0.88948,-0.435957 1.30014,-0.605582 1.96886,-1.228207 0.68886,-0.666244 0.94291,-1.58545 0.98942,-2.167352 0.008,-0.451705 0.0306,-0.95333 -0.48401,-1.603891 -0.46763,-0.523021 -1.04411,-0.574182 -1.53744,-0.537439 -0.47253,0.0146 -1.19319,0.638287 -1.13628,1.088001 -0.0477,0.981361 1.06162,1.398559 1.06162,1.398559 0,0 -1.93128,-0.146264 -2.05506,-1.367865 -0.10426,-1.2867 1.22129,-2.073022 1.97103,-2.160687 0.66516,-0.04205 1.31407,-0.114118 2.31187,0.682993 0.66293,0.581481 0.91542,1.424036 1.00904,2.367085 0.0414,0.643682 -0.0952,1.886214 -0.96539,2.945037 -0.6654,0.730015 -1.51432,1.504125 -2.9206,1.913052 -0.55312,0.189079 -1.44553,0.417097 -2.00141,0.449828 -0.55672,-0.02152 -1.45565,-0.215899 -2.01435,-0.387806 z"
         id="path12016"
         sodipodi:nodetypes="ccccccccccccccccccccccccccccc" />
      <rect
         style="fill:#2859bf;fill-opacity:1;stroke:none;stroke-width:0.264999;stroke-linecap:round;stroke-linejoin:round;stroke-miterlimit:4;stroke-dasharray:none;paint-order:markers fill stroke"
         id="rect12049"
         width="31.974785"
         height="1.8909818"
         x="88.360428"
         y="61.370953" />
      <rect
         style="fill:#2859bf;fill-opacity:1;stroke:none;stroke-width:0.264999;stroke-linecap:round;stroke-linejoin:round;stroke-miterlimit:4;stroke-dasharray:none;paint-order:markers fill stroke"
         id="rect12051"
         width="32.404552"
         height="2.4067042"
         x="88.532326"
         y="47.962177" />
      <rect
         style="fill:#2859bf;fill-opacity:1;stroke:none;stroke-width:0.229873;stroke-linecap:round;stroke-linejoin:round;stroke-miterlimit:4;stroke-dasharray:none;paint-order:markers fill stroke"
         id="rect12053"
         width="1.8290224"
         height="2.171706"
         x="103.45454"
         y="60.6185" />
      <rect
         style="fill:#2859bf;fill-opacity:1;stroke:none;stroke-width:0.229872;stroke-linecap:round;stroke-linejoin:round;stroke-miterlimit:4;stroke-dasharray:none;paint-order:markers fill stroke"
         id="rect12135"
         width="1.829"
         height="2.171706"
         x="114.45456"
         y="60.618" />
      <rect
         style="fill:#2859bf;fill-opacity:1;stroke:none;stroke-width:0.229872;stroke-linecap:round;stroke-linejoin:round;stroke-miterlimit:4;stroke-dasharray:none;paint-order:markers fill stroke"
         id="rect12137"
         width="1.829"
         height="2.171706"
         x="92.454567"
         y="60.618" />
      <path
         style="fill:#2859bf;fill-opacity:1;stroke:none;stroke-width:0.264583px;stroke-linecap:butt;stroke-linejoin:miter;stroke-opacity:1"
         d="m 97.762149,52.087144 c -0.364671,0.243113 -0.516618,0.516617 -0.698953,0.805315 l -1.063622,0.01519 c -0.03039,-0.531812 0.625995,-1.309556 0.987649,-1.534658 0.390466,-0.346367 1.287246,-0.614888 1.868939,-0.630578 0.581693,0.01569 1.478478,0.284211 1.868938,0.630578 0.36165,0.225102 1.01804,1.002846 0.98765,1.534658 l -1.06362,-0.01519 c -0.18234,-0.288698 -0.33428,-0.562202 -0.698955,-0.805315 -0.258308,-0.182335 -0.698951,-0.273504 -1.094013,-0.288698 -0.395062,0.01519 -0.835705,0.106363 -1.094013,0.288698 z"
         id="path12186"
         sodipodi:nodetypes="ccccccccccc" />
      <path
         style="fill:#2859bf;fill-opacity:1;stroke:none;stroke-width:0.264578px;stroke-linecap:butt;stroke-linejoin:miter;stroke-opacity:1"
         d="m 108.80565,52.087144 c -0.36466,0.243113 -0.5166,0.516617 -0.69893,0.805315 l -1.06358,0.01519 c -0.0304,-0.531812 0.62598,-1.309556 0.98761,-1.534658 0.39046,-0.346367 1.2872,-0.614888 1.86887,-0.630578 0.58167,0.01569 1.47842,0.284211 1.86887,0.630578 0.36163,0.225102 1.018,1.002846 0.98761,1.534658 l -1.06358,-0.01519 c -0.18233,-0.288698 -0.33427,-0.562202 -0.69893,-0.805315 -0.2583,-0.182335 -0.69892,-0.273504 -1.09397,-0.288698 -0.39504,0.01519 -0.83568,0.106363 -1.09397,0.288698 z"
         id="path18492"
         sodipodi:nodetypes="ccccccccccc" />
      <rect
         style="fill:#2859bf;fill-opacity:1;stroke:none;stroke-width:0.165471;stroke-linecap:round;stroke-linejoin:round;stroke-miterlimit:4;stroke-dasharray:none;paint-order:markers fill stroke"
         id="rect18494"
         width="0.94773477"
         height="2.171706"
         x="98.382294"
         y="49.070595" />
      <rect
         style="fill:#2859bf;fill-opacity:1;stroke:none;stroke-width:0.165471;stroke-linecap:round;stroke-linejoin:round;stroke-miterlimit:4;stroke-dasharray:none;paint-order:markers fill stroke"
         id="rect18496"
         width="0.94773477"
         height="2.171706"
         x="109.42575"
         y="49.070595" />
    </g>
    <rect
       style="fill:url(#pattern23045);stroke:none;stroke-width:0.264583"
       width="10.945158"
       height="15.299757"
       x="101.39274"
       y="4.0345201"
       id="rect22338" />
    <rect
       style="fill:url(#pattern22647);fill-opacity:1;stroke:none;stroke-width:0.727688;stroke-linecap:round;stroke-linejoin:round;stroke-miterlimit:4;stroke-dasharray:none;paint-order:markers fill stroke"
       id="rect22362"
       width="292.29892"
       height="15.255039"
       x="2.2499063"
       y="55.164871" />
    <g
       id="g106535"
       inkscape:path-effect="#path-effect106537"
       transform="translate(51.005596,-45.880177)">
      <path
         style="fill:#2a5ac0;fill-opacity:1;stroke:none;stroke-width:0.264583px;stroke-linecap:butt;stroke-linejoin:miter;stroke-opacity:1"
         d="m 68.668854,139.44527 c 1.494204,0.79769 1.954541,2.30133 2.262283,3.05358 0.357311,1.33351 0.293936,2.92613 0.12297,3.91774 -0.170968,0.71806 -0.75226,1.98322 -1.43613,2.73548 -1.230966,1.43612 -2.735479,2.66709 -2.735479,2.66709 0,0 3.350964,-0.78645 4.479349,-1.16258 0.820645,-0.23936 3.077414,-0.90491 4.445155,-1.48621 1.538707,-0.51289 3.658351,-1.3682 4.487645,-1.73557 0.957418,-0.47871 3.441812,-1.33111 3.889765,-2.24918 -0.06596,-0.84726 -0.89318,-1.65788 -1.424394,-1.92313 -0.730509,-0.24107 -1.653023,-0.36783 -2.883989,0.0425 -0.991612,0.44452 -2.325158,2.29096 -2.325158,2.29096 -0.752257,1.02581 -1.880642,2.18838 -2.667093,2.53032 -0.239355,-1.16258 -0.438648,-2.13173 -0.136773,-3.41935 -0.688057,0.008 -0.829949,-0.0156 -1.538708,0.51291 -0.512902,0.47871 -0.657261,0.81822 -0.923224,1.06 -0.217606,0.14507 -0.555395,0.0981 -0.241075,-0.82065 0.217606,-0.60446 0.752256,-0.60132 1.164296,-1.43613 0.438649,-0.87826 0.404456,-1.61713 0.307742,-2.27387 -0.07425,-0.57248 -0.767634,-1.92778 -1.870626,-2.44312 -0.9532,-0.25532 -2.079803,-0.39569 -2.976554,0.13925 z m -24.744604,0 c -1.494204,0.79769 -1.954541,2.30133 -2.262283,3.05358 -0.357311,1.33351 -0.293936,2.92613 -0.12297,3.91774 0.170968,0.71806 0.75226,1.98322 1.43613,2.73548 1.230966,1.43612 2.735479,2.66709 2.735479,2.66709 0,0 -3.350964,-0.78645 -4.479349,-1.16258 -0.820645,-0.23936 -3.077414,-0.90491 -4.445155,-1.48621 -1.538707,-0.51289 -3.658351,-1.3682 -4.487645,-1.73557 -0.957418,-0.47871 -3.441812,-1.33111 -3.889765,-2.24918 0.06596,-0.84726 0.89318,-1.65788 1.424394,-1.92313 0.730509,-0.24107 1.653023,-0.36783 2.883989,0.0425 0.991612,0.44452 2.325158,2.29096 2.325158,2.29096 0.752257,1.02581 1.880642,2.18838 2.667093,2.53032 0.239355,-1.16258 0.438648,-2.13173 0.136773,-3.41935 0.688057,0.008 0.829949,-0.0156 1.538708,0.51291 0.512902,0.47871 0.657261,0.81822 0.923224,1.06 0.217606,0.14507 0.555395,0.0981 0.241075,-0.82065 -0.217606,-0.60446 -0.752256,-0.60132 -1.164296,-1.43613 -0.438649,-0.87826 -0.404456,-1.61713 -0.307742,-2.27387 0.07425,-0.57248 0.767634,-1.92778 1.870626,-2.44312 0.9532,-0.25532 2.079803,-0.39569 2.976554,0.13925 z"
         id="path23259"
         sodipodi:nodetypes="cccccccccccccccccccccc"
         inkscape:original-d="m 68.668854,139.44527 c 1.494204,0.79769 1.954541,2.30133 2.262283,3.05358 0.357311,1.33351 0.293936,2.92613 0.12297,3.91774 -0.170968,0.71806 -0.75226,1.98322 -1.43613,2.73548 -1.230966,1.43612 -2.735479,2.66709 -2.735479,2.66709 0,0 3.350964,-0.78645 4.479349,-1.16258 0.820645,-0.23936 3.077414,-0.90491 4.445155,-1.48621 1.538707,-0.51289 3.658351,-1.3682 4.487645,-1.73557 0.957418,-0.47871 3.441812,-1.33111 3.889765,-2.24918 -0.06596,-0.84726 -0.89318,-1.65788 -1.424394,-1.92313 -0.730509,-0.24107 -1.653023,-0.36783 -2.883989,0.0425 -0.991612,0.44452 -2.325158,2.29096 -2.325158,2.29096 -0.752257,1.02581 -1.880642,2.18838 -2.667093,2.53032 -0.239355,-1.16258 -0.438648,-2.13173 -0.136773,-3.41935 -0.688057,0.008 -0.829949,-0.0156 -1.538708,0.51291 -0.512902,0.47871 -0.657261,0.81822 -0.923224,1.06 -0.217606,0.14507 -0.555395,0.0981 -0.241075,-0.82065 0.217606,-0.60446 0.752256,-0.60132 1.164296,-1.43613 0.438649,-0.87826 0.404456,-1.61713 0.307742,-2.27387 -0.07425,-0.57248 -0.767634,-1.92778 -1.870626,-2.44312 -0.9532,-0.25532 -2.079803,-0.39569 -2.976554,0.13925 z" />
      <path
         style="fill:#2a5ac0;fill-opacity:1;stroke:none;stroke-width:0.264583px;stroke-linecap:butt;stroke-linejoin:miter;stroke-opacity:1"
         d="m 57.65025,134.99596 c 0,0 0.63258,1.62419 1.111289,2.44483 0.632579,1.0771 1.367739,1.59001 2.20548,1.91484 0.68387,0.18806 2.119998,0.23936 2.940642,-0.20516 0.906127,-0.5471 1.658385,-1.33355 1.94903,-2.17129 0.389777,-0.7272 0.435561,-1.62651 0.434308,-2.3998 -0.0013,-0.80126 -0.404943,-1.82207 -0.931913,-2.31603 -0.557813,-0.46799 -1.401727,-0.89818 -2.135296,-0.99448 -1.060532,-0.12045 -2.256681,0.50439 -2.667094,1.23096 -0.547095,0.90612 -0.239361,1.93194 -0.08549,2.53032 0.170967,-0.32484 0.274585,-0.57921 0.53,-0.90613 0.264392,-0.35885 0.541736,-0.69077 1.094193,-0.87193 0.65818,-0.17593 1.248505,-0.0455 1.743868,0.47871 0.421572,0.38826 0.78645,1.0429 0.854837,1.60709 0.08548,0.66677 -0.06839,1.36774 -0.06839,1.36774 0,0 -0.484279,-0.851 -0.871934,-1.21387 -0.427419,-0.39322 -0.875034,-0.42609 -1.265159,-0.44452 -0.477381,0.0292 -1.008711,0.29065 -1.008711,0.29065 0,0 0.736149,0.45791 1.008709,0.76936 0.376129,0.39323 0.940669,1.10096 0.512903,1.65839 -0.340324,0.30567 -0.616192,0.39233 -1.453225,0.22225 -0.786451,-0.15387 -1.26516,-0.44452 -1.743869,-0.73516 -0.623749,-0.45209 -1.350638,-1.26516 -2.154185,-2.25677 0.649677,1.67548 4e-6,0 4e-6,0 z m -2.707396,0 c 0,0 -0.63258,1.62419 -1.111289,2.44483 -0.632579,1.0771 -1.367739,1.59001 -2.20548,1.91484 -0.68387,0.18806 -2.119998,0.23936 -2.940642,-0.20516 -0.906127,-0.5471 -1.658385,-1.33355 -1.94903,-2.17129 -0.389777,-0.7272 -0.435561,-1.62651 -0.434308,-2.3998 0.0013,-0.80126 0.404943,-1.82207 0.931913,-2.31603 0.557813,-0.46799 1.401727,-0.89818 2.135296,-0.99448 1.060532,-0.12045 2.256681,0.50439 2.667094,1.23096 0.547095,0.90612 0.239361,1.93194 0.08549,2.53032 -0.170967,-0.32484 -0.274585,-0.57921 -0.53,-0.90613 -0.264392,-0.35885 -0.541736,-0.69077 -1.094193,-0.87193 -0.65818,-0.17593 -1.248505,-0.0455 -1.743868,0.47871 -0.421572,0.38826 -0.78645,1.0429 -0.854837,1.60709 -0.08548,0.66677 0.06839,1.36774 0.06839,1.36774 0,0 0.484279,-0.851 0.871934,-1.21387 0.427419,-0.39322 0.875034,-0.42609 1.265159,-0.44452 0.477381,0.0292 1.008711,0.29065 1.008711,0.29065 0,0 -0.736149,0.45791 -1.008709,0.76936 -0.376129,0.39323 -0.940669,1.10096 -0.512903,1.65839 0.340324,0.30567 0.616192,0.39233 1.453225,0.22225 0.786451,-0.15387 1.26516,-0.44452 1.743869,-0.73516 0.623749,-0.45209 1.350638,-1.26516 2.154185,-2.25677 -0.649677,1.67548 -4e-6,0 -4e-6,0 z"
         id="path35838"
         sodipodi:nodetypes="cccccsccccccccccccccccccc"
         inkscape:original-d="m 57.65025,134.99596 c 0,0 0.63258,1.62419 1.111289,2.44483 0.632579,1.0771 1.367739,1.59001 2.20548,1.91484 0.68387,0.18806 2.119998,0.23936 2.940642,-0.20516 0.906127,-0.5471 1.658385,-1.33355 1.94903,-2.17129 0.389777,-0.7272 0.435561,-1.62651 0.434308,-2.3998 -0.0013,-0.80126 -0.404943,-1.82207 -0.931913,-2.31603 -0.557813,-0.46799 -1.401727,-0.89818 -2.135296,-0.99448 -1.060532,-0.12045 -2.256681,0.50439 -2.667094,1.23096 -0.547095,0.90612 -0.239361,1.93194 -0.08549,2.53032 0.170967,-0.32484 0.274585,-0.57921 0.53,-0.90613 0.264392,-0.35885 0.541736,-0.69077 1.094193,-0.87193 0.65818,-0.17593 1.248505,-0.0455 1.743868,0.47871 0.421572,0.38826 0.78645,1.0429 0.854837,1.60709 0.08548,0.66677 -0.06839,1.36774 -0.06839,1.36774 0,0 -0.484279,-0.851 -0.871934,-1.21387 -0.427419,-0.39322 -0.875034,-0.42609 -1.265159,-0.44452 -0.477381,0.0292 -1.008711,0.29065 -1.008711,0.29065 0,0 0.736149,0.45791 1.008709,0.76936 0.376129,0.39323 0.940669,1.10096 0.512903,1.65839 -0.340324,0.30567 -0.616192,0.39233 -1.453225,0.22225 -0.786451,-0.15387 -1.26516,-0.44452 -1.743869,-0.73516 -0.623749,-0.45209 -1.350638,-1.26516 -2.154185,-2.25677 0.649677,1.67548 4e-6,0 4e-6,0 z" />
      <path
         style="fill:#2a5ac0;fill-opacity:1;stroke:none;stroke-width:0.264583px;stroke-linecap:butt;stroke-linejoin:miter;stroke-opacity:1"
         d="m 62.183597,147.07508 c -0.210475,1.26285 -0.420951,1.96443 0.11693,2.85311 0.677531,1.01695 1.683797,0.98221 2.50231,0.88867 1.122532,-0.21052 1.824116,-0.77174 2.595856,-1.49671 0.831816,-0.8327 2.076702,-2.26104 2.128133,-4.91108 -0.09355,-1.37978 -0.841899,-2.45555 -1.356394,-3.0402 -0.678196,-0.79513 -1.707182,-1.26284 -2.993417,-1.28623 -1.543481,-0.0701 -3.016805,0.51448 -4.162724,1.35639 -1.949953,1.50458 -2.874158,3.02997 -3.297436,4.49014 -0.414416,1.21145 -0.231153,4.74363 1.309624,5.89324 -0.823606,-1.37762 -0.927791,-3.11458 -0.8419,-3.85871 0.187088,-1.09914 0.678194,-2.38538 1.122529,-3.08695 0.82191,-1.31433 1.667175,-1.94135 2.946647,-2.50231 1.009697,-0.26312 1.388409,0.58641 1.403164,1.19269 -0.07831,1.03039 -1.001789,1.4342 -1.473322,1.68379 1.232396,0.33151 2.370487,0.26932 3.133736,-0.81851 0.679321,-1.0731 -0.455283,-2.31746 -1.473324,-2.80633 1.281839,-0.48996 2.69423,0.3758 3.110348,1.40317 0.672078,1.66295 0.22708,2.72829 -0.304021,3.60146 -0.648952,0.8968 -1.653812,1.64188 -2.782942,1.63702 -0.99868,-0.2714 -1.351651,-0.74979 -1.683797,-1.19265 z m -11.77409,0 c 0.210475,1.26285 0.420951,1.96443 -0.11693,2.85311 -0.677531,1.01695 -1.683797,0.98221 -2.50231,0.88867 -1.122532,-0.21052 -1.824116,-0.77174 -2.595856,-1.49671 -0.831816,-0.8327 -2.076702,-2.26104 -2.128133,-4.91108 0.09355,-1.37978 0.841899,-2.45555 1.356394,-3.0402 0.678196,-0.79513 1.707182,-1.26284 2.993417,-1.28623 1.543481,-0.0701 3.016805,0.51448 4.162724,1.35639 1.949953,1.50458 2.874158,3.02997 3.297436,4.49014 0.414416,1.21145 0.231153,4.74363 -1.309624,5.89324 0.823606,-1.37762 0.927791,-3.11458 0.8419,-3.85871 -0.187088,-1.09914 -0.678194,-2.38538 -1.122529,-3.08695 -0.82191,-1.31433 -1.667175,-1.94135 -2.946647,-2.50231 -1.009697,-0.26312 -1.388409,0.58641 -1.403164,1.19269 0.07831,1.03039 1.001789,1.4342 1.473322,1.68379 -1.232396,0.33151 -2.370487,0.26932 -3.133736,-0.81851 -0.679321,-1.0731 0.455283,-2.31746 1.473324,-2.80633 -1.281839,-0.48996 -2.69423,0.3758 -3.110348,1.40317 -0.672078,1.66295 -0.22708,2.72829 0.304021,3.60146 0.648952,0.8968 1.653812,1.64188 2.782942,1.63702 0.99868,-0.2714 1.351651,-0.74979 1.683797,-1.19265 z"
         id="path51784"
         sodipodi:nodetypes="ccccccccccccccccccccc"
         inkscape:original-d="m 62.183597,147.07508 c -0.210475,1.26285 -0.420951,1.96443 0.11693,2.85311 0.677531,1.01695 1.683797,0.98221 2.50231,0.88867 1.122532,-0.21052 1.824116,-0.77174 2.595856,-1.49671 0.831816,-0.8327 2.076702,-2.26104 2.128133,-4.91108 -0.09355,-1.37978 -0.841899,-2.45555 -1.356394,-3.0402 -0.678196,-0.79513 -1.707182,-1.26284 -2.993417,-1.28623 -1.543481,-0.0701 -3.016805,0.51448 -4.162724,1.35639 -1.949953,1.50458 -2.874158,3.02997 -3.297436,4.49014 -0.414416,1.21145 -0.231153,4.74363 1.309624,5.89324 -0.823606,-1.37762 -0.927791,-3.11458 -0.8419,-3.85871 0.187088,-1.09914 0.678194,-2.38538 1.122529,-3.08695 0.82191,-1.31433 1.667175,-1.94135 2.946647,-2.50231 1.009697,-0.26312 1.388409,0.58641 1.403164,1.19269 -0.07831,1.03039 -1.001789,1.4342 -1.473322,1.68379 1.232396,0.33151 2.370487,0.26932 3.133736,-0.81851 0.679321,-1.0731 -0.455283,-2.31746 -1.473324,-2.80633 1.281839,-0.48996 2.69423,0.3758 3.110348,1.40317 0.672078,1.66295 0.22708,2.72829 -0.304021,3.60146 -0.648952,0.8968 -1.653812,1.64188 -2.782942,1.63702 -0.99868,-0.2714 -1.351651,-0.74979 -1.683797,-1.19265 z" />
      <path
         style="fill:#2a5ac0;fill-opacity:1;stroke:none;stroke-width:0.264583px;stroke-linecap:butt;stroke-linejoin:miter;stroke-opacity:1"
         d="m 60.415116,151.93992 c 2.985507,2.01261 5.482258,1.94619 8.611205,1.47621 2.761052,-0.65609 4.701989,-1.12083 7.736414,-2.24165 3.974511,-1.46866 7.029681,-3.78551 10.463055,-4.78467 1.631441,-0.71406 1.569018,1.76477 2.048575,2.47584 1.405599,1.14101 2.548829,0.69527 4.103256,0.74488 3.061762,-0.10935 4.052007,-1.1151 5.692236,-2.75533 0.347266,0.57878 1.009763,1.52583 0.573412,2.98549 -0.815745,1.76055 -1.982779,1.98581 -3.406348,1.87412 -2.722478,-0.3696 -4.623203,-1.08661 -7.306836,-1.7533 0,0 -3.268687,-0.51397 -5.005015,0.0648 0.297656,0.34727 1.911355,1.52655 3.796512,2.55181 1.686718,0.7276 2.087451,0.24294 3.311149,0.1272 -2.933103,2.888 -3.984914,1.09063 -4.788394,0.27337 -0.964494,-1.08702 -1.790021,-2.54458 -3.977373,-2.23658 0.826823,0.64492 1.755681,1.14756 2.532895,2.30511 0.628385,1.00872 0.668168,2.3568 -0.820113,3.97737 -1.782275,1.47013 -3.475311,1.08705 -4.652383,-1.23591 0,0 1.968491,0.91426 3.061761,-0.10935 1.438738,-1.97269 -1.619099,-4.44262 -4.448878,-3.86534 -1.232185,0.53662 -1.021907,1.57744 -2.565601,2.25379 -1.874118,0.66222 -6.990763,1.03561 -9.485157,0.70691 -1.418448,-0.22512 -3.901197,-0.78288 -5.474372,-2.83478 z m -8.237128,0 c -2.985507,2.01261 -5.482258,1.94619 -8.611205,1.47621 -2.761052,-0.65609 -4.701989,-1.12083 -7.736414,-2.24165 -3.974511,-1.46866 -7.029681,-3.78551 -10.463055,-4.78467 -1.631441,-0.71406 -1.569018,1.76477 -2.048575,2.47584 -1.405599,1.14101 -2.548829,0.69527 -4.103256,0.74488 -3.061762,-0.10935 -4.052007,-1.1151 -5.692236,-2.75533 -0.347266,0.57878 -1.009763,1.52583 -0.573412,2.98549 0.815745,1.76055 1.982779,1.98581 3.406348,1.87412 2.722478,-0.3696 4.623203,-1.08661 7.306836,-1.7533 0,0 3.268687,-0.51397 5.005015,0.0648 -0.297656,0.34727 -1.911355,1.52655 -3.796512,2.55181 -1.686718,0.7276 -2.087451,0.24294 -3.311149,0.1272 2.933103,2.888 3.984914,1.09063 4.788394,0.27337 0.964494,-1.08702 1.790021,-2.54458 3.977373,-2.23658 -0.826823,0.64492 -1.755681,1.14756 -2.532895,2.30511 -0.628385,1.00872 -0.668168,2.3568 0.820113,3.97737 1.782275,1.47013 3.475311,1.08705 4.652383,-1.23591 0,0 -1.968491,0.91426 -3.061761,-0.10935 -1.438738,-1.97269 1.619099,-4.44262 4.448878,-3.86534 1.232185,0.53662 1.021907,1.57744 2.565601,2.25379 1.874118,0.66222 6.990763,1.03561 9.485157,0.70691 1.418448,-0.22512 3.901197,-0.78288 5.474372,-2.83478 z"
         id="path87883"
         sodipodi:nodetypes="cccccccccccccccccccccccc"
         inkscape:original-d="m 60.415116,151.93992 c 2.985507,2.01261 5.482258,1.94619 8.611205,1.47621 2.761052,-0.65609 4.701989,-1.12083 7.736414,-2.24165 3.974511,-1.46866 7.029681,-3.78551 10.463055,-4.78467 1.631441,-0.71406 1.569018,1.76477 2.048575,2.47584 1.405599,1.14101 2.548829,0.69527 4.103256,0.74488 3.061762,-0.10935 4.052007,-1.1151 5.692236,-2.75533 0.347266,0.57878 1.009763,1.52583 0.573412,2.98549 -0.815745,1.76055 -1.982779,1.98581 -3.406348,1.87412 -2.722478,-0.3696 -4.623203,-1.08661 -7.306836,-1.7533 0,0 -3.268687,-0.51397 -5.005015,0.0648 0.297656,0.34727 1.911355,1.52655 3.796512,2.55181 1.686718,0.7276 2.087451,0.24294 3.311149,0.1272 -2.933103,2.888 -3.984914,1.09063 -4.788394,0.27337 -0.964494,-1.08702 -1.790021,-2.54458 -3.977373,-2.23658 0.826823,0.64492 1.755681,1.14756 2.532895,2.30511 0.628385,1.00872 0.668168,2.3568 -0.820113,3.97737 -1.782275,1.47013 -3.475311,1.08705 -4.652383,-1.23591 0,0 1.968491,0.91426 3.061761,-0.10935 1.438738,-1.97269 -1.619099,-4.44262 -4.448878,-3.86534 -1.232185,0.53662 -1.021907,1.57744 -2.565601,2.25379 -1.874118,0.66222 -6.990763,1.03561 -9.485157,0.70691 -1.418448,-0.22512 -3.901197,-0.78288 -5.474372,-2.83478 z" />
      <path
         style="fill:#2a5ac0;fill-opacity:1;stroke:none;stroke-width:0.264583px;stroke-linecap:butt;stroke-linejoin:miter;stroke-opacity:1"
         d="m 56.295739,135.19582 c 1.059062,3.0448 1.158348,4.13696 2.746941,5.82484 -1.190662,0.0595 -1.654785,-0.59573 -1.654785,-0.59573 0.330956,2.78004 -0.595721,4.03767 -1.092156,4.83196 m 0.0016,-10.06107 c -1.059062,3.0448 -1.158348,4.13696 -2.746941,5.82484 1.190662,0.0595 1.654785,-0.59573 1.654785,-0.59573 -0.330956,2.78004 0.595721,4.03767 1.092156,4.83196"
         id="path103840"
         sodipodi:nodetypes="cccc"
         inkscape:original-d="m 56.295739,135.19582 c 1.059062,3.0448 1.158348,4.13696 2.746941,5.82484 -1.190662,0.0595 -1.654785,-0.59573 -1.654785,-0.59573 0.330956,2.78004 -0.595721,4.03767 -1.092156,4.83196" />
    </g>
  </g>
</svg>
