<?xml version="1.0" encoding="UTF-8" standalone="no"?>
<!-- Created with Inkscape (http://www.inkscape.org/) -->

<svg
   width="210mm"
   height="297mm"
   viewBox="0 0 210 297"
   version="1.1"
   id="svg5"
   xml:space="preserve"
   inkscape:version="1.2.1 (9c6d41e410, 2022-07-14)"
   sodipodi:docname="clock.svg"
   xmlns:inkscape="http://www.inkscape.org/namespaces/inkscape"
   xmlns:sodipodi="http://sodipodi.sourceforge.net/DTD/sodipodi-0.dtd"
   xmlns:xlink="http://www.w3.org/1999/xlink"
   xmlns="http://www.w3.org/2000/svg"
   xmlns:svg="http://www.w3.org/2000/svg"><sodipodi:namedview
     id="namedview7"
     pagecolor="#ffffff"
     bordercolor="#000000"
     borderopacity="0.25"
     inkscape:showpageshadow="2"
     inkscape:pageopacity="0.0"
     inkscape:pagecheckerboard="0"
     inkscape:deskcolor="#d1d1d1"
     inkscape:document-units="mm"
     showgrid="false"
     inkscape:zoom="0.89263468"
     inkscape:cx="92.983168"
     inkscape:cy="124.91112"
     inkscape:window-width="1962"
     inkscape:window-height="1260"
     inkscape:window-x="1625"
     inkscape:window-y="62"
     inkscape:window-maximized="0"
     inkscape:current-layer="layer1" /><defs
     id="defs2"><linearGradient
       id="linearGradient5155"
       inkscape:swatch="solid"><stop
         style="stop-color:#000000;stop-opacity:1;"
         offset="0"
         id="stop5153" /></linearGradient><linearGradient
       id="linearGradient5149"
       inkscape:swatch="solid"><stop
         style="stop-color:#000000;stop-opacity:1;"
         offset="0"
         id="stop5147" /></linearGradient><linearGradient
       id="linearGradient5072"
       inkscape:swatch="solid"><stop
         style="stop-color:#000000;stop-opacity:1;"
         offset="0"
         id="stop5070" /></linearGradient><linearGradient
       id="linearGradient5066"
       inkscape:swatch="solid"><stop
         style="stop-color:#000000;stop-opacity:1;"
         offset="0"
         id="stop5064" /></linearGradient><linearGradient
       id="linearGradient5060"
       inkscape:swatch="solid"><stop
         style="stop-color:#000000;stop-opacity:1;"
         offset="0"
         id="stop5058" /></linearGradient><linearGradient
       id="linearGradient5054"
       inkscape:swatch="solid"><stop
         style="stop-color:#000000;stop-opacity:1;"
         offset="0"
         id="stop5052" /></linearGradient><linearGradient
       id="linearGradient5048"
       inkscape:swatch="solid"><stop
         style="stop-color:#000000;stop-opacity:1;"
         offset="0"
         id="stop5046" /></linearGradient><linearGradient
       id="linearGradient5042"
       inkscape:swatch="solid"><stop
         style="stop-color:#000000;stop-opacity:1;"
         offset="0"
         id="stop5040" /></linearGradient><linearGradient
       id="linearGradient5036"
       inkscape:swatch="solid"><stop
         style="stop-color:#000000;stop-opacity:1;"
         offset="0"
         id="stop5034" /></linearGradient><linearGradient
       id="linearGradient5030"
       inkscape:swatch="solid"><stop
         style="stop-color:#000000;stop-opacity:1;"
         offset="0"
         id="stop5028" /></linearGradient><linearGradient
       id="linearGradient5024"
       inkscape:swatch="solid"><stop
         style="stop-color:#000000;stop-opacity:1;"
         offset="0"
         id="stop5022" /></linearGradient><linearGradient
       id="linearGradient5018"
       inkscape:swatch="solid"><stop
         style="stop-color:#000000;stop-opacity:1;"
         offset="0"
         id="stop5016" /></linearGradient><linearGradient
       id="linearGradient5012"
       inkscape:swatch="solid"><stop
         style="stop-color:#000000;stop-opacity:1;"
         offset="0"
         id="stop5010" /></linearGradient><linearGradient
       id="linearGradient5004"
       inkscape:swatch="solid"><stop
         style="stop-color:#000000;stop-opacity:1;"
         offset="0"
         id="stop5002" /></linearGradient><linearGradient
       inkscape:collect="always"
       xlink:href="#linearGradient5004"
       id="linearGradient5006"
       x1="-95.347961"
       y1="72.675049"
       x2="-94.14281"
       y2="72.675049"
       gradientUnits="userSpaceOnUse" /><linearGradient
       inkscape:collect="always"
       xlink:href="#linearGradient5004"
       id="linearGradient5014"
       x1="69.165207"
       y1="117.69243"
       x2="70.370361"
       y2="117.69243"
       gradientUnits="userSpaceOnUse" /><linearGradient
       inkscape:collect="always"
       xlink:href="#linearGradient5004"
       id="linearGradient5020"
       x1="24.717251"
       y1="143.92017"
       x2="25.922401"
       y2="143.92017"
       gradientUnits="userSpaceOnUse" /><linearGradient
       inkscape:collect="always"
       xlink:href="#linearGradient5004"
       id="linearGradient5026"
       x1="-24.377613"
       y1="144.5423"
       x2="-23.172462"
       y2="144.5423"
       gradientUnits="userSpaceOnUse" /><linearGradient
       inkscape:collect="always"
       xlink:href="#linearGradient5004"
       id="linearGradient5032"
       x1="66.218971"
       y1="-120.69852"
       x2="67.424126"
       y2="-120.69852"
       gradientUnits="userSpaceOnUse" /><linearGradient
       inkscape:collect="always"
       xlink:href="#linearGradient5004"
       id="linearGradient5038"
       x1="91.660278"
       y1="78.394081"
       x2="92.865433"
       y2="78.394081"
       gradientUnits="userSpaceOnUse" /><linearGradient
       inkscape:collect="always"
       xlink:href="#linearGradient5004"
       id="linearGradient5044"
       x1="-94.038467"
       y1="-29.128187"
       x2="-92.833313"
       y2="-29.128187"
       gradientUnits="userSpaceOnUse" /><linearGradient
       inkscape:collect="always"
       xlink:href="#linearGradient5004"
       id="linearGradient5050"
       x1="69.165207"
       y1="15.876558"
       x2="70.370361"
       y2="15.876558"
       gradientUnits="userSpaceOnUse" /><linearGradient
       inkscape:collect="always"
       xlink:href="#linearGradient5004"
       id="linearGradient5056"
       x1="25.971127"
       y1="42.083939"
       x2="27.176277"
       y2="42.083939"
       gradientUnits="userSpaceOnUse" /><linearGradient
       inkscape:collect="always"
       xlink:href="#linearGradient5004"
       id="linearGradient5062"
       x1="22.561857"
       y1="-42.819077"
       x2="23.767008"
       y2="-42.819077"
       gradientUnits="userSpaceOnUse" /><linearGradient
       inkscape:collect="always"
       xlink:href="#linearGradient5004"
       id="linearGradient5068"
       x1="66.218971"
       y1="-18.83704"
       x2="67.424126"
       y2="-18.83704"
       gradientUnits="userSpaceOnUse" /><linearGradient
       inkscape:collect="always"
       xlink:href="#linearGradient5004"
       id="linearGradient5074"
       x1="-93.470787"
       y1="23.338343"
       x2="-92.265633"
       y2="23.338343"
       gradientUnits="userSpaceOnUse" /></defs><g
     inkscape:label="Layer 1"
     inkscape:groupmode="layer"
     id="layer1"><g
       id="g5141"
       inkscape:label="Clock"
       style="display:inline"
       transform="translate(1.4820359,5.6317365)"><rect
         style="opacity:1;fill:#ffffff;fill-opacity:1;stroke:#000000;stroke-width:0.489981;stroke-opacity:1"
         id="rect6371"
         width="133.70966"
         height="133.70964"
         x="2.9490635"
         y="-1.2006372" /><g
         id="g5826"><rect
           style="opacity:1;fill:url(#linearGradient5050);fill-opacity:1;stroke:none;stroke-width:0.50687"
           id="rect2365"
           width="1.2051512"
           height="3.0390773"
           x="69.165207"
           y="14.357019" /><rect
           style="opacity:1;fill:url(#linearGradient5014);fill-opacity:1;stroke:none;stroke-width:0.50687"
           id="rect2991"
           width="1.2051512"
           height="3.0390773"
           x="69.165207"
           y="116.17289" /><rect
           style="opacity:1;fill:url(#linearGradient5032);fill-opacity:1;stroke:none;stroke-width:0.50687"
           id="rect2993"
           width="1.2051512"
           height="3.0390773"
           x="66.218971"
           y="-122.21806"
           transform="rotate(90)" /><rect
           style="opacity:1;fill:url(#linearGradient5068);fill-opacity:1;stroke:none;stroke-width:0.50687"
           id="rect2995"
           width="1.2051512"
           height="3.0390773"
           x="66.218971"
           y="-20.356579"
           transform="rotate(90)" /><rect
           style="opacity:1;fill:url(#linearGradient5062);fill-opacity:1;stroke:none;stroke-width:0.50687"
           id="rect2997"
           width="1.2051512"
           height="3.0390773"
           x="22.561857"
           y="-44.338615"
           transform="rotate(119.68561)" /><rect
           style="opacity:1;fill:url(#linearGradient5038);fill-opacity:1;stroke:none;stroke-width:0.50687"
           id="rect2999"
           width="1.2051512"
           height="3.0390773"
           x="91.660278"
           y="76.874542"
           transform="matrix(0.49524049,0.86875592,0.86875592,-0.49524049,0,0)" /><rect
           style="opacity:1;fill:url(#linearGradient5026);fill-opacity:1;stroke:none;stroke-width:0.50687"
           id="rect3001"
           width="1.2051512"
           height="3.0390773"
           x="-24.377613"
           y="143.02277"
           transform="rotate(-60.31439)" /><rect
           style="opacity:1;fill:url(#linearGradient5074);fill-opacity:1;stroke:none;stroke-width:0.50687"
           id="rect3003"
           width="1.2051512"
           height="3.0390773"
           x="-93.470787"
           y="21.818804"
           transform="matrix(-0.49524049,-0.86875592,-0.86875592,0.49524049,0,0)" /><rect
           style="opacity:1;fill:url(#linearGradient5056);fill-opacity:1;stroke:none;stroke-width:0.50687"
           id="rect3018"
           width="1.2051512"
           height="3.0390773"
           x="25.971127"
           y="40.5644"
           transform="rotate(-30.68434)" /><rect
           style="opacity:1;fill:url(#linearGradient5044);fill-opacity:1;stroke:none;stroke-width:0.50687"
           id="rect3034"
           width="1.2051512"
           height="3.0390773"
           x="-94.038467"
           y="-30.647726"
           transform="matrix(-0.85999178,-0.51030789,-0.51030789,0.85999178,0,0)" /><rect
           style="opacity:1;fill:url(#linearGradient5020);fill-opacity:1;stroke:none;stroke-width:0.50687"
           id="rect3036"
           width="1.2051512"
           height="3.0390773"
           x="24.717251"
           y="142.40063"
           transform="rotate(-30.68434)" /><rect
           style="opacity:1;fill:url(#linearGradient5006);fill-opacity:1;stroke:none;stroke-width:0.50687"
           id="rect3038"
           width="1.2051512"
           height="3.0390773"
           x="-95.347961"
           y="71.15551"
           transform="matrix(-0.85999178,-0.51030789,-0.51030789,0.85999178,0,0)" /></g><g
         id="g5536"><rect
           style="opacity:1;fill-opacity:1;stroke:none;stroke-width:0.36937"
           id="rect5145"
           width="0.43151131"
           height="2.2601047"
           x="75.91433"
           y="8.9297886"
           transform="rotate(4.5908189)" /><rect
           style="opacity:1;fill-opacity:1;stroke:none;stroke-width:0.369912"
           id="rect5159"
           width="0.43748462"
           height="2.2357979"
           x="81.930183"
           y="-0.77036881"
           transform="matrix(0.97943892,0.20174094,-0.12622035,0.99200223,0,0)" /><rect
           style="opacity:1;fill-opacity:1;stroke:none;stroke-width:0.369912"
           id="rect5163"
           width="0.43748462"
           height="2.2357979"
           x="87.447464"
           y="-12.308313"
           transform="matrix(0.9430375,0.33268645,-0.25956691,0.96572513,0,0)" /><rect
           style="opacity:1;fill-opacity:1;stroke:none;stroke-width:0.369912"
           id="rect5167"
           width="0.43748462"
           height="2.2357979"
           x="91.10746"
           y="-25.754858"
           transform="matrix(0.88350911,0.46841397,-0.39945072,0.91675467,0,0)" /><rect
           style="opacity:1;fill-opacity:1;stroke:none;stroke-width:0.36937"
           id="rect5213"
           width="0.43151131"
           height="2.2601047"
           x="96.539436"
           y="-36.303509"
           transform="rotate(34.410072)" /><rect
           style="opacity:1;fill-opacity:1;stroke:none;stroke-width:0.369912"
           id="rect5215"
           width="0.43748462"
           height="2.2357979"
           x="100.48788"
           y="-48.331963"
           transform="matrix(0.74944083,0.66207133,-0.60279709,0.79789452,0,0)" /><rect
           style="opacity:1;fill-opacity:1;stroke:none;stroke-width:0.369912"
           id="rect5217"
           width="0.43748462"
           height="2.2357979"
           x="99.558685"
           y="-61.459564"
           transform="matrix(0.65274433,0.75757827,-0.70542165,0.70878791,0,0)" /><rect
           style="opacity:1;fill-opacity:1;stroke:none;stroke-width:0.369912"
           id="rect5219"
           width="0.43748462"
           height="2.2357979"
           x="95.93708"
           y="-75.60421"
           transform="matrix(0.53360498,0.84573384,-0.8024333,0.59674182,0,0)" /><rect
           style="opacity:1;fill-opacity:1;stroke:none;stroke-width:0.36937"
           id="rect5231"
           width="0.43151131"
           height="2.2601047"
           x="91.311256"
           y="-86.181442"
           transform="rotate(64.550884)" /><rect
           style="opacity:1;fill-opacity:1;stroke:none;stroke-width:0.369912"
           id="rect5233"
           width="0.43748462"
           height="2.2357979"
           x="92.928032"
           y="-97.335121"
           transform="matrix(0.31566812,0.94886966,-0.92193956,0.38733377,0,0)" /><rect
           style="opacity:1;fill-opacity:1;stroke:none;stroke-width:0.369912"
           id="rect5235"
           width="0.43748462"
           height="2.2357979"
           x="85.325806"
           y="-108.47221"
           transform="matrix(0.18408896,0.98290959,-0.96594584,0.25874435,0,0)" /><rect
           style="opacity:1;fill-opacity:1;stroke:none;stroke-width:0.369912"
           id="rect5237"
           width="0.43748462"
           height="2.2357979"
           x="74.730202"
           y="-119.45757"
           transform="matrix(0.03679269,0.99932292,-0.99357958,0.11313541,0,0)" /><rect
           style="opacity:1;fill-opacity:1;stroke:none;stroke-width:0.36937"
           id="rect5266"
           width="0.43151131"
           height="2.2601047"
           x="-63.181465"
           y="20.098738"
           transform="matrix(-0.99679172,0.0800392,0.0800392,0.99679172,0,0)" /><rect
           style="opacity:1;fill-opacity:1;stroke:none;stroke-width:0.369912"
           id="rect5268"
           width="0.43748462"
           height="2.2357979"
           x="-56.904137"
           y="27.46401"
           transform="matrix(-0.97943892,0.20174094,0.12622035,0.99200223,0,0)" /><rect
           style="opacity:1;fill-opacity:1;stroke:none;stroke-width:0.369912"
           id="rect5270"
           width="0.43748462"
           height="2.2357979"
           x="-47.709282"
           y="34.252365"
           transform="matrix(-0.9430375,0.33268645,0.25956691,0.96572513,0,0)" /><rect
           style="opacity:1;fill-opacity:1;stroke:none;stroke-width:0.369912"
           id="rect5272"
           width="0.43748462"
           height="2.2357979"
           x="-37.19569"
           y="39.80138"
           transform="matrix(-0.88350911,0.46841397,0.39945072,0.91675467,0,0)" /><rect
           style="opacity:1;fill-opacity:1;stroke:none;stroke-width:0.36937"
           id="rect5276"
           width="0.43151131"
           height="2.2601047"
           x="-18.58592"
           y="42.554199"
           transform="matrix(-0.82501417,0.56511204,0.56511204,0.82501417,0,0)" /><rect
           style="opacity:1;fill-opacity:1;stroke:none;stroke-width:0.369912"
           id="rect5278"
           width="0.43748462"
           height="2.2357979"
           x="-11.180364"
           y="44.327328"
           transform="matrix(-0.74944083,0.66207133,0.60279709,0.79789452,0,0)" /><rect
           style="opacity:1;fill-opacity:1;stroke:none;stroke-width:0.369912"
           id="rect5280"
           width="0.43748462"
           height="2.2357979"
           x="0.3612389"
           y="44.566269"
           transform="matrix(-0.65274433,0.75757827,0.70542165,0.70878791,0,0)" /><rect
           style="opacity:1;fill-opacity:1;stroke:none;stroke-width:0.369912"
           id="rect5282"
           width="0.43748462"
           height="2.2357979"
           x="12.420892"
           y="42.759319"
           transform="matrix(-0.53360498,0.84573384,0.8024333,0.59674182,0,0)" /><rect
           style="opacity:1;fill-opacity:1;stroke:none;stroke-width:0.36937"
           id="rect5286"
           width="0.43151131"
           height="2.2601047"
           x="31.348114"
           y="39.821762"
           transform="matrix(-0.42970935,0.90296726,0.90296726,0.42970935,0,0)" /><rect
           style="opacity:1;fill-opacity:1;stroke:none;stroke-width:0.369912"
           id="rect5288"
           width="0.43748462"
           height="2.2357979"
           x="38.719261"
           y="35.462639"
           transform="matrix(-0.31566812,0.94886966,0.92193956,0.38733377,0,0)" /><rect
           style="opacity:1;fill-opacity:1;stroke:none;stroke-width:0.369912"
           id="rect5290"
           width="0.43748462"
           height="2.2357979"
           x="49.113594"
           y="29.089558"
           transform="matrix(-0.18408896,0.98290959,0.96594584,0.25874435,0,0)" /><rect
           style="opacity:1;fill-opacity:1;stroke:none;stroke-width:0.369912"
           id="rect5292"
           width="0.43748462"
           height="2.2357979"
           x="58.896488"
           y="20.401304"
           transform="matrix(-0.03679269,0.99932292,0.99357958,0.11313541,0,0)" /><rect
           style="opacity:1;fill-opacity:1;stroke:none;stroke-width:0.36937"
           id="rect5356"
           width="0.43151131"
           height="2.2601047"
           x="65.221565"
           y="-124.2357"
           transform="matrix(0.99679172,-0.0800392,-0.0800392,-0.99679172,0,0)" /><rect
           style="opacity:1;fill-opacity:1;stroke:none;stroke-width:0.369912"
           id="rect5358"
           width="0.43748462"
           height="2.2357979"
           x="65.018326"
           y="-132.00221"
           transform="matrix(0.97943892,-0.20174094,-0.12622035,-0.99200223,0,0)" /><rect
           style="opacity:1;fill-opacity:1;stroke:none;stroke-width:0.369912"
           id="rect5360"
           width="0.43748462"
           height="2.2357979"
           x="52.668934"
           y="-138.66286"
           transform="matrix(0.9430375,-0.33268645,-0.25956691,-0.96572513,0,0)" /><rect
           style="opacity:1;fill-opacity:1;stroke:none;stroke-width:0.369912"
           id="rect5362"
           width="0.43748462"
           height="2.2357979"
           x="37.586353"
           y="-144.13338"
           transform="matrix(0.88350911,-0.46841397,-0.39945072,-0.91675467,0,0)" /><rect
           style="opacity:1;fill-opacity:1;stroke:none;stroke-width:0.36937"
           id="rect5366"
           width="0.43151131"
           height="2.2601047"
           x="21.0438"
           y="-146.52054"
           transform="matrix(0.82501417,-0.56511204,-0.56511204,-0.82501417,0,0)" /><rect
           style="opacity:1;fill-opacity:1;stroke:none;stroke-width:0.369912"
           id="rect5368"
           width="0.43748462"
           height="2.2357979"
           x="19.721052"
           y="-148.74712"
           transform="matrix(0.74944083,-0.66207133,-0.60279709,-0.79789452,0,0)" /><rect
           style="opacity:1;fill-opacity:1;stroke:none;stroke-width:0.369912"
           id="rect5370"
           width="0.43748462"
           height="2.2357979"
           x="5.0415196"
           y="-148.91867"
           transform="matrix(0.65274433,-0.75757828,-0.70542165,-0.7087879,0,0)" /><rect
           style="opacity:1;fill-opacity:1;stroke:none;stroke-width:0.369912"
           id="rect5372"
           width="0.43748462"
           height="2.2357979"
           x="-11.57836"
           y="-147.10022"
           transform="matrix(0.53360498,-0.84573384,-0.8024333,-0.59674182,0,0)" /><rect
           style="opacity:1;fill-opacity:1;stroke:none;stroke-width:0.36937"
           id="rect5376"
           width="0.43151131"
           height="2.2601047"
           x="-29.319836"
           y="-143.58807"
           transform="matrix(0.42970935,-0.90296726,-0.90296726,-0.42970935,0,0)" /><rect
           style="opacity:1;fill-opacity:1;stroke:none;stroke-width:0.369912"
           id="rect5378"
           width="0.43748462"
           height="2.2357979"
           x="-30.599659"
           y="-139.63046"
           transform="matrix(0.31566812,-0.94886966,-0.92193956,-0.38733377,0,0)" /><rect
           style="opacity:1;fill-opacity:1;stroke:none;stroke-width:0.369912"
           id="rect5380"
           width="0.43748462"
           height="2.2357979"
           x="-44.098148"
           y="-133.1377"
           transform="matrix(0.18408897,-0.98290958,-0.96594584,-0.25874436,0,0)" /><rect
           style="opacity:1;fill-opacity:1;stroke:none;stroke-width:0.369912"
           id="rect5382"
           width="0.43748462"
           height="2.2357979"
           x="-58.396305"
           y="-124.3873"
           transform="matrix(0.0367927,-0.99932292,-0.99357958,-0.11313542,0,0)" /><rect
           style="opacity:1;fill-opacity:1;stroke:none;stroke-width:0.36937"
           id="rect5388"
           width="0.43151131"
           height="2.2601047"
           x="-73.874229"
           y="-113.06675"
           transform="rotate(-175.40918)" /><rect
           style="opacity:1;fill-opacity:1;stroke:none;stroke-width:0.369912"
           id="rect5390"
           width="0.43748462"
           height="2.2357979"
           x="-73.815994"
           y="-103.76784"
           transform="matrix(-0.97943892,-0.20174094,0.12622035,-0.99200223,0,0)" /><rect
           style="opacity:1;fill-opacity:1;stroke:none;stroke-width:0.369912"
           id="rect5392"
           width="0.43748462"
           height="2.2357979"
           x="-82.487808"
           y="-92.102173"
           transform="matrix(-0.9430375,-0.33268645,0.25956691,-0.96572513,0,0)" /><rect
           style="opacity:1;fill-opacity:1;stroke:none;stroke-width:0.369912"
           id="rect5394"
           width="0.43748462"
           height="2.2357979"
           x="-90.716797"
           y="-78.577141"
           transform="matrix(-0.88350911,-0.46841397,0.39945072,-0.91675467,0,0)" /><rect
           style="opacity:1;fill-opacity:1;stroke:none;stroke-width:0.36937"
           id="rect5398"
           width="0.43151131"
           height="2.2601047"
           x="-94.081551"
           y="-67.662834"
           transform="rotate(-145.58993)" /><rect
           style="opacity:1;fill-opacity:1;stroke:none;stroke-width:0.369912"
           id="rect5400"
           width="0.43748462"
           height="2.2357979"
           x="-91.947182"
           y="-56.087826"
           transform="matrix(-0.74944087,-0.66207129,0.60279704,-0.79789456,0,0)" /><rect
           style="opacity:1;fill-opacity:1;stroke:none;stroke-width:0.369912"
           id="rect5402"
           width="0.43748462"
           height="2.2357979"
           x="-94.155922"
           y="-42.892834"
           transform="matrix(-0.65274437,-0.75757824,0.70542161,-0.70878794,0,0)" /><rect
           style="opacity:1;fill-opacity:1;stroke:none;stroke-width:0.369912"
           id="rect5404"
           width="0.43748462"
           height="2.2357979"
           x="-95.094543"
           y="-28.736685"
           transform="matrix(-0.53360502,-0.84573381,0.80243327,-0.59674186,0,0)" /><rect
           style="opacity:1;fill-opacity:1;stroke:none;stroke-width:0.36937"
           id="rect5408"
           width="0.43151131"
           height="2.2601047"
           x="-89.282982"
           y="-17.584881"
           transform="rotate(-115.44912)" /><rect
           style="opacity:1;fill-opacity:1;stroke:none;stroke-width:0.369912"
           id="rect5410"
           width="0.43748462"
           height="2.2357979"
           x="-84.808434"
           y="-6.8327136"
           transform="matrix(-0.3156682,-0.94886964,0.92193953,-0.38733385,0,0)" /><rect
           style="opacity:1;fill-opacity:1;stroke:none;stroke-width:0.369912"
           id="rect5412"
           width="0.43748462"
           height="2.2357979"
           x="-80.310364"
           y="4.4240785"
           transform="matrix(-0.18408905,-0.98290957,0.96594581,-0.25874444,0,0)" /><rect
           style="opacity:1;fill-opacity:1;stroke:none;stroke-width:0.369912"
           id="rect5414"
           width="0.43748462"
           height="2.2357979"
           x="-74.230019"
           y="15.471571"
           transform="matrix(-0.03679278,-0.99932292,0.99357957,-0.1131355,0,0)" /></g><g
         id="g6257"><g
           aria-label="12"
           transform="scale(0.8444139,1.1842534)"
           id="text6039"
           style="font-weight:bold;font-size:19.4797px;font-family:Georgia;-inkscape-font-specification:'Georgia Bold';opacity:1;stroke-width:3.19037"><path
             d="m 80.585663,27.92981 h -7.847048 v -0.72288 q 0.285348,-0.01902 0.9036,-0.09512 0.627764,-0.07609 0.856041,-0.152185 0.285347,-0.09512 0.447044,-0.323393 0.161697,-0.228278 0.161697,-0.627764 v -6.030337 h -2.406428 v -0.903599 h 0.523137 q 0.827506,0 1.426735,-0.18072 0.608741,-0.18072 1.008227,-0.437532 0.408998,-0.266324 0.66581,-0.551672 0.266324,-0.285347 0.418509,-0.504113 h 1.674037 q -0.02853,0.618252 -0.05707,1.445759 -0.02854,0.827507 -0.02854,1.483805 v 5.573782 q 0,0.342416 0.142674,0.599229 0.152185,0.247301 0.42802,0.380463 0.247301,0.114138 0.827507,0.209254 0.580206,0.09512 0.856042,0.114139 z"
             id="path6188" /><path
             d="M 92.484639,27.92981 H 82.174095 v -1.721595 q 0.675322,-0.684833 1.474294,-1.246016 0.808483,-0.570694 1.63599,-1.008227 0.884576,-0.466067 1.483805,-0.827506 0.599229,-0.370952 0.941646,-0.770438 0.342417,-0.370951 0.48509,-0.808483 0.152185,-0.437533 0.152185,-0.979692 0,-1.20797 -0.570694,-1.759641 -0.570694,-0.551671 -1.51234,-0.551671 -0.294859,0 -0.561183,0.04756 -0.256812,0.03805 -0.542159,0.152186 0.142673,0.42802 0.275835,0.884576 0.133162,0.456555 0.133162,1.017738 0,0.675322 -0.48509,1.074808 -0.48509,0.399486 -1.236504,0.399486 -0.713368,0 -1.141389,-0.466067 -0.418509,-0.466067 -0.418509,-1.131877 0,-1.160412 1.350643,-2.006942 1.350643,-0.84653 3.291004,-0.84653 2.244731,0 3.623909,0.770437 1.38869,0.770438 1.38869,2.482521 0,0.884576 -0.370952,1.426735 -0.361439,0.54216 -1.074807,0.951158 -0.637276,0.370951 -1.417225,0.60874 -0.770437,0.23779 -1.655013,0.456556 -0.941646,0.237789 -1.645502,0.504113 -0.694345,0.266324 -1.236505,0.637275 v 0.104628 h 7.942163 z"
             id="path6190" /></g><g
           aria-label="6"
           transform="scale(0.96729851,1.033807)"
           id="text6045"
           style="font-weight:bold;font-size:17.005px;font-family:Georgia;-inkscape-font-specification:'Georgia Bold';opacity:1;stroke-width:2.78507"><path
             d="m 76.644537,105.65353 q 0,1.76028 -1.328516,2.94764 -1.320212,1.18736 -3.379411,1.18736 -2.150535,0 -3.454141,-1.34512 -1.303606,-1.35343 -1.303606,-3.62851 0,-3.03898 2.050896,-5.02345 2.050896,-1.98447 5.571462,-2.399631 l 0.190974,0.822019 -0.880141,0.149458 q -1.00469,0.274006 -1.685554,0.755593 -0.672561,0.473284 -1.112632,1.087721 -0.423464,0.58953 -0.664258,1.33682 -0.240793,0.73899 -0.365342,1.46137 0.722381,-0.64765 1.428155,-0.87184 0.714077,-0.22419 1.527792,-0.22419 1.428155,0 2.416238,1.04621 0.988084,1.0379 0.988084,2.69855 z m -3.072193,0.22418 q 0,-1.31191 -0.46498,-2.08411 -0.456677,-0.7722 -1.228877,-0.7722 -0.5148,0 -0.896748,0.17437 -0.373645,0.17437 -0.755593,0.73069 0,0.0415 -0.0083,0.14945 0,0.0996 -0.0083,0.26571 -0.0083,0.18267 -0.01661,0.34043 0,0.15776 0,0.2657 0,1.99277 0.481587,3.05559 0.48989,1.05451 1.253786,1.05451 0.738987,0 1.187361,-0.83033 0.456677,-0.83032 0.456677,-2.34981 z"
             id="path6208" /></g><g
           aria-label="5"
           transform="scale(0.96729853,1.033807)"
           id="text6049"
           style="font-weight:bold;font-size:17.005px;font-family:Georgia;-inkscape-font-specification:'Georgia Bold';opacity:1;stroke-width:2.78507"><path
             d="m 95.165027,96.817401 q 0.622742,0.415161 1.046206,1.120935 0.423464,0.69747 0.423464,1.735373 0,1.826711 -1.419851,2.980861 -1.411547,1.16245 -3.611901,1.16245 -1.702161,0 -2.839702,-0.73069 -1.137542,-0.73068 -1.137542,-1.72707 0,-0.58953 0.373645,-0.99638 0.381948,-0.406861 1.012993,-0.406861 0.655955,0 1.071116,0.357041 0.423464,0.34873 0.423464,0.93826 0,0.41516 -0.141154,0.90505 -0.141155,0.48989 -0.232491,0.74729 0.199278,0.0747 0.464981,0.10794 0.265703,0.0415 0.498193,0.0415 0.473284,0 0.929961,-0.21588 0.456677,-0.20758 0.780503,-0.61444 0.373645,-0.46498 0.564619,-1.10433 0.190974,-0.63105 0.190974,-1.436458 0,-1.170754 -0.631045,-1.918044 -0.622741,-0.755593 -1.619128,-0.755593 -0.7722,0 -1.295303,0.315522 -0.523103,0.307219 -0.938264,0.813716 l -0.647651,-0.215884 0.805412,-6.111171 h 7.016223 v 2.291689 h -6.418391 l -0.340432,2.740063 q 0.448374,-0.282309 1.154148,-0.539709 0.705774,-0.2574 1.660645,-0.2574 0.738986,0 1.453064,0.166064 0.72238,0.157762 1.403244,0.606136 z"
             id="path6205" /></g><g
           aria-label="4"
           transform="scale(0.96729853,1.033807)"
           id="text6103"
           style="font-weight:bold;font-size:17.005px;font-family:Georgia;-inkscape-font-specification:'Georgia Bold';opacity:1;stroke-width:2.78507"><path
             d="m 112.79927,86.907813 h -1.7852 v 3.146921 h -2.78158 v -3.146921 h -5.49673 V 85.38002 l 5.96171,-7.547629 h 2.3166 v 7.323442 h 1.7852 z m -4.56678,-1.75198 v -5.338972 l -4.22634,5.338972 z"
             id="path6202" /></g><g
           aria-label="3"
           transform="scale(0.96729853,1.033807)"
           id="text6107"
           style="font-weight:bold;font-size:17.005px;font-family:Georgia;-inkscape-font-specification:'Georgia Bold';opacity:1;stroke-width:2.78507"><path
             d="m 118.89817,65.134464 q 0.49819,0.332129 0.83032,0.888445 0.33213,0.548013 0.33213,1.353425 0,1.552703 -1.48628,2.582302 -1.48628,1.0296 -3.82778,1.0296 -1.67726,0 -2.84801,-0.72238 -1.17075,-0.714078 -1.17075,-1.760284 0,-0.589528 0.37364,-0.996386 0.38195,-0.406858 1.01299,-0.406858 0.65596,0 1.07112,0.357038 0.42346,0.348736 0.42346,0.938265 0,0.406857 -0.14945,0.905051 -0.14116,0.506496 -0.22419,0.74729 0.18267,0.08303 0.47328,0.124548 0.29062,0.04982 0.68087,0.04982 0.48158,0 0.93826,-0.157761 0.46498,-0.157761 0.80541,-0.5148 0.35704,-0.373645 0.54802,-0.880141 0.19927,-0.498193 0.19927,-1.328516 0,-0.473283 -0.0913,-0.896748 -0.083,-0.423464 -0.31552,-0.738986 -0.23249,-0.315523 -0.63935,-0.489891 -0.39856,-0.18267 -1.0213,-0.18267 h -1.05451 v -1.00469 h 0.74729 q 1.04621,0 1.51119,-0.614439 0.47328,-0.622741 0.47328,-1.893134 0,-1.021297 -0.45668,-1.527793 -0.44837,-0.5148 -1.3036,-0.5148 -0.32383,0 -0.56462,0.04152 -0.24079,0.03321 -0.48989,0.132852 0.0913,0.282309 0.22419,0.788806 0.13285,0.506496 0.13285,0.863535 0,0.589529 -0.40686,0.938264 -0.40686,0.348735 -1.06281,0.348735 -0.62274,0 -0.99639,-0.406858 -0.36534,-0.406858 -0.36534,-0.988083 0,-1.0296 1.18736,-1.75198 1.19566,-0.730684 2.99746,-0.730684 1.24549,0 2.0592,0.290613 0.82202,0.290613 1.29531,0.714077 0.46498,0.415161 0.63934,0.896748 0.18267,0.473284 0.18267,0.855232 0,0.365342 -0.15776,0.830322 -0.14946,0.456678 -0.44837,0.805413 -0.36534,0.423464 -0.95487,0.730684 -0.58953,0.307219 -1.37834,0.473283 v 0.132852 q 0.53971,0.03321 1.16245,0.199277 0.63105,0.166065 1.11264,0.48989 z"
             id="path6199" /></g><g
           aria-label="2"
           transform="scale(0.83972258,1.1908695)"
           id="text6111"
           style="font-weight:bold;font-size:19.5885px;font-family:Georgia;-inkscape-font-specification:'Georgia Bold';opacity:1;stroke-width:3.2082"><path
             d="m 131.23701,45.400837 h -10.36814 v -1.73121 q 0.6791,-0.688658 1.48253,-1.252975 0.813,-0.573882 1.64513,-1.013858 0.88952,-0.46867 1.49209,-0.832129 0.60258,-0.373023 0.94691,-0.77474 0.34433,-0.373024 0.4878,-0.813 0.15303,-0.439976 0.15303,-0.985163 0,-1.214717 -0.57388,-1.769469 -0.57388,-0.554753 -1.52079,-0.554753 -0.2965,0 -0.56431,0.04782 -0.25825,0.03826 -0.54519,0.153035 0.14347,0.430411 0.27737,0.889517 0.13391,0.459105 0.13391,1.023422 0,0.679094 -0.4878,1.080811 -0.4878,0.401717 -1.24341,0.401717 -0.71735,0 -1.14776,-0.46867 -0.42085,-0.46867 -0.42085,-1.138199 0,-1.166893 1.35819,-2.018151 1.35818,-0.851258 3.30938,-0.851258 2.25727,0 3.64415,0.774741 1.39645,0.77474 1.39645,2.496385 0,0.889517 -0.37303,1.434705 -0.36345,0.545188 -1.08081,0.95647 -0.64083,0.373023 -1.42514,0.61214 -0.77474,0.239118 -1.66425,0.459106 -0.94691,0.239117 -1.6547,0.506929 -0.69822,0.267811 -1.24341,0.640834 v 0.105212 h 7.98653 z"
             id="path6196" /></g><g
           aria-label="1"
           transform="scale(0.84976994,1.1767891)"
           id="text6115"
           style="font-weight:bold;font-size:19.3569px;font-family:Georgia;-inkscape-font-specification:'Georgia Bold';opacity:1;stroke-width:3.17027"><path
             d="m 111.64492,32.846409 h -7.79758 v -0.718323 q 0.28355,-0.0189 0.89791,-0.09452 0.6238,-0.07561 0.85064,-0.151225 0.28355,-0.09452 0.44423,-0.321355 0.16067,-0.226839 0.16067,-0.623807 v -5.992321 h -2.39125 v -0.897903 h 0.51983 q 0.82229,0 1.41775,-0.179581 0.6049,-0.17958 1.00187,-0.434774 0.40642,-0.264645 0.66161,-0.548193 0.26464,-0.283548 0.41587,-0.500935 h 1.66348 q -0.0283,0.614354 -0.0567,1.436644 -0.0284,0.822291 -0.0284,1.474452 v 5.538644 q 0,0.340258 0.14177,0.595451 0.15123,0.245742 0.42533,0.378065 0.24574,0.113419 0.82229,0.207935 0.57654,0.09452 0.85064,0.113419 z"
             id="path6193" /></g><g
           aria-label="11"
           transform="scale(0.84441388,1.1842534)"
           id="text6119"
           style="font-weight:bold;font-size:19.4797px;font-family:Georgia;-inkscape-font-specification:'Georgia Bold';opacity:1;stroke-width:3.19037"><path
             d="m 58.768173,32.958614 h -7.847047 v -0.722879 q 0.285347,-0.01902 0.903599,-0.09512 0.627764,-0.07609 0.856042,-0.152185 0.285347,-0.09512 0.447044,-0.323393 0.161696,-0.228278 0.161696,-0.627764 V 25.00694 h -2.406428 v -0.903599 h 0.523137 q 0.827507,0 1.426736,-0.18072 0.60874,-0.18072 1.008226,-0.437533 0.408998,-0.266324 0.665811,-0.551671 0.266324,-0.285347 0.418509,-0.504113 h 1.674036 q -0.02853,0.618252 -0.05707,1.445759 -0.02853,0.827507 -0.02853,1.483805 v 5.573781 q 0,0.342417 0.142674,0.59923 0.152185,0.2473 0.428021,0.380462 0.247301,0.114139 0.827506,0.209255 0.580206,0.09512 0.856042,0.114139 z"
             id="path6225" /><path
             d="m 68.30828,32.958614 h -7.847047 v -0.722879 q 0.285347,-0.01902 0.903599,-0.09512 0.627764,-0.07609 0.856041,-0.152185 0.285348,-0.09512 0.447044,-0.323393 0.161697,-0.228278 0.161697,-0.627764 V 25.00694 h -2.406428 v -0.903599 h 0.523137 q 0.827507,0 1.426736,-0.18072 0.60874,-0.18072 1.008226,-0.437533 0.408998,-0.266324 0.66581,-0.551671 0.266324,-0.285347 0.418509,-0.504113 h 1.674037 q -0.02853,0.618252 -0.05707,1.445759 -0.02854,0.827507 -0.02854,1.483805 v 5.573781 q 0,0.342417 0.142674,0.59923 0.152185,0.2473 0.42802,0.380462 0.247301,0.114139 0.827507,0.209255 0.580206,0.09512 0.856042,0.114139 z"
             id="path6227" /></g><g
           aria-label="10"
           transform="scale(0.84441388,1.1842534)"
           id="text6123"
           style="font-weight:bold;font-size:19.4797px;font-family:Georgia;-inkscape-font-specification:'Georgia Bold';opacity:1;stroke-width:3.19037"><path
             d="m 41.120353,45.908669 h -7.847047 v -0.72288 q 0.285347,-0.01902 0.9036,-0.09512 0.627763,-0.07609 0.856041,-0.152185 0.285347,-0.09512 0.447044,-0.323393 0.161697,-0.228278 0.161697,-0.627764 V 37.956994 H 33.23526 v -0.903599 h 0.523136 q 0.827507,0 1.426736,-0.18072 0.608741,-0.18072 1.008227,-0.437533 0.408998,-0.266324 0.66581,-0.551671 0.266324,-0.285347 0.418509,-0.504113 h 1.674037 q -0.02853,0.618252 -0.05707,1.445759 -0.02853,0.827507 -0.02853,1.483805 v 5.573782 q 0,0.342416 0.142673,0.599229 0.152186,0.247301 0.428021,0.380463 0.247301,0.114138 0.827507,0.209254 0.580206,0.09512 0.856041,0.114139 z"
             id="path6220" /><path
             d="m 52.924214,37.043883 q 0.72288,0.760926 1.065296,1.740618 0.351929,0.97018 0.351929,2.016453 0,1.246016 -0.437533,2.254243 -0.42802,0.998715 -1.179435,1.69306 -0.78946,0.722879 -1.835733,1.103342 -1.046273,0.380463 -2.406428,0.380463 -1.436247,0 -2.53959,-0.447044 -1.09383,-0.447044 -1.826222,-1.179435 -0.722879,-0.722879 -1.103342,-1.702571 -0.370951,-0.979692 -0.370951,-2.102058 0,-1.112854 0.351928,-2.064011 0.36144,-0.951157 1.103342,-1.721595 0.72288,-0.751414 1.835734,-1.198458 1.112854,-0.456555 2.558613,-0.456555 1.493317,0 2.606171,0.466067 1.112853,0.466067 1.826221,1.217481 z m -2.682263,7.086121 q 0.275836,-0.637275 0.389974,-1.417224 0.123651,-0.78946 0.123651,-1.911826 0,-1.008226 -0.114139,-1.81671 -0.104627,-0.808484 -0.36144,-1.436248 -0.266324,-0.646786 -0.703856,-0.998715 -0.437532,-0.351928 -1.074808,-0.351928 -0.646787,0 -1.084319,0.351928 -0.437532,0.342417 -0.713368,0.979692 -0.247301,0.580206 -0.36144,1.426736 -0.114139,0.837019 -0.114139,1.845245 0,1.055785 0.09512,1.797687 0.104628,0.741903 0.370952,1.426736 0.237789,0.618252 0.684833,0.998715 0.447044,0.380463 1.103342,0.380463 0.608741,0 1.055785,-0.342416 0.447044,-0.342417 0.703856,-0.932135 z"
             id="path6222" /></g><g
           aria-label="7"
           transform="scale(0.96729853,1.033807)"
           id="text6174"
           style="font-weight:bold;font-size:17.005px;font-family:Georgia;-inkscape-font-specification:'Georgia Bold';opacity:1;stroke-width:2.78507"><path
             d="m 55.021507,92.82571 -6.044745,11.01838 h -1.245484 l 5.596372,-9.772896 h -3.802876 q -0.72238,0 -1.129238,0.0083 -0.406858,0.0083 -0.74729,0.166064 -0.274006,0.124549 -0.473284,0.581226 -0.190974,0.448374 -0.307219,1.104328 h -0.606135 v -4.093488 h 8.759899 z"
             id="path6211" /></g><g
           aria-label="8"
           transform="scale(0.96729853,1.033807)"
           id="text6178"
           style="font-weight:bold;font-size:17.005px;font-family:Georgia;-inkscape-font-specification:'Georgia Bold';opacity:1;stroke-width:2.78507"><path
             d="m 40.558289,86.738724 q 0,1.527793 -1.370031,2.565695 -1.361729,1.037903 -3.711541,1.037903 -2.100715,0 -3.396018,-0.888445 -1.295302,-0.888444 -1.295302,-2.275083 0,-1.071115 0.689167,-1.760283 0.697471,-0.69747 2.192051,-1.046206 -1.195664,-0.539709 -1.810103,-1.361728 -0.606135,-0.822019 -0.606135,-1.835012 0,-1.386638 1.320213,-2.324903 1.328515,-0.938264 3.279772,-0.938264 1.893135,0 3.063889,0.830323 1.179058,0.830322 1.179058,2.059199 0,0.946567 -0.639348,1.594218 -0.639348,0.639348 -1.909741,1.021297 1.594218,0.572922 2.299992,1.411547 0.714077,0.830323 0.714077,1.909742 z m -3.238256,-5.953411 q 0,-0.963174 -0.431768,-1.552702 -0.423464,-0.597832 -1.187361,-0.597832 -0.72238,0 -1.195664,0.506496 -0.473283,0.506497 -0.473283,1.295303 0,0.548013 0.20758,0.921658 0.207581,0.365341 0.589529,0.639348 0.348735,0.2574 0.97978,0.564619 0.639348,0.307219 1.137542,0.556316 0.182671,-0.415161 0.274006,-1.012993 0.09964,-0.606136 0.09964,-1.320213 z m 0.448374,6.792036 q 0,-0.581225 -0.249097,-0.963174 -0.249097,-0.381948 -0.714077,-0.689167 -0.464981,-0.298916 -1.187361,-0.614439 -0.714077,-0.315522 -1.361728,-0.639348 -0.274007,0.323826 -0.481587,0.971477 -0.207581,0.647652 -0.207581,1.370032 0,1.220574 0.589529,1.909741 0.589529,0.689168 1.552703,0.689168 0.963173,0 1.511186,-0.56462 0.548013,-0.564619 0.548013,-1.46967 z"
             id="path6214" /></g><g
           aria-label="9"
           transform="scale(0.95557857,1.0464864)"
           id="text6182"
           style="font-weight:bold;font-size:17.2136px;font-family:Georgia;-inkscape-font-specification:'Georgia Bold';opacity:1;stroke-width:2.81923"><path
             d="m 33.777287,62.767879 q 0,3.059448 -2.067649,5.001021 -2.067649,1.949979 -5.648213,2.420663 l -0.193316,-0.832103 0.890938,-0.151291 q 1.033824,-0.294178 1.714636,-0.756457 0.680811,-0.462279 1.117875,-1.07585 0.453874,-0.630381 0.689217,-1.336408 0.235342,-0.706026 0.353013,-1.454078 -0.739647,0.647191 -1.437268,0.857318 -0.689217,0.201722 -1.55494,0.201722 -0.722837,0 -1.353218,-0.285773 -0.63038,-0.285773 -1.09266,-0.781672 -0.470684,-0.504305 -0.739647,-1.210331 -0.260557,-0.714432 -0.260557,-1.546535 0,-1.773471 1.361623,-2.933372 1.361622,-1.168306 3.404056,-1.168306 2.210536,0 3.513323,1.370028 1.302787,1.370027 1.302787,3.681424 z m -3.067853,0.462279 q 0,-0.117671 0.0084,-0.285772 0.0084,-0.168102 0.0084,-0.327798 0,-2.017219 -0.487495,-3.084664 -0.479089,-1.07585 -1.252356,-1.07585 -0.748052,0 -1.218737,0.815292 -0.462279,0.815293 -0.462279,2.353422 0,1.344813 0.470684,2.143295 0.47909,0.798483 1.252357,0.798483 0.487495,0 0.899343,-0.193317 0.411849,-0.193317 0.764862,-0.722837 0,-0.04203 0.0084,-0.142886 0.0084,-0.109266 0.0084,-0.277368 z"
             id="path6217" /></g></g><g
         aria-label="DORDADAMOS"
         id="text6186"
         style="font-weight:bold;font-size:3.175px;font-family:Georgia;-inkscape-font-specification:'Georgia Bold';letter-spacing:0.529167px;opacity:1;fill:#1921a3;stroke-width:0.519999"><path
           d="m 57.63,85.845325 q 0.201538,0.131775 0.325562,0.351916 0.124023,0.218592 0.124023,0.536402 0,0.279052 -0.111621,0.486792 -0.110071,0.206189 -0.293005,0.337963 -0.186035,0.131775 -0.42323,0.196888 -0.235645,0.06356 -0.494544,0.06356 h -1.108459 v -0.120923 q 0.04961,-0.0015 0.124023,-0.0093 0.07441,-0.0078 0.09922,-0.0186 0.05581,-0.02325 0.07751,-0.06201 0.0217,-0.04031 0.0217,-0.09612 v -1.559595 q 0,-0.05271 -0.02015,-0.09457 -0.02015,-0.04341 -0.07906,-0.06976 -0.05891,-0.02635 -0.125574,-0.03566 -0.06511,-0.0093 -0.100769,-0.0124 v -0.120923 h 1.170471 q 0.187586,0 0.401526,0.04806 0.213941,0.04806 0.412378,0.178284 z m -0.316259,1.576648 q 0.07596,-0.124024 0.11007,-0.294556 0.03566,-0.172083 0.03566,-0.395325 0,-0.218591 -0.04651,-0.398425 -0.04651,-0.179834 -0.136426,-0.306958 -0.08992,-0.127124 -0.224792,-0.196887 -0.133325,-0.06976 -0.303857,-0.06976 -0.05426,0 -0.124024,0.0031 -0.06821,0.0016 -0.102319,0.0031 v 1.669665 q 0,0.05581 0.01395,0.09922 0.0155,0.04186 0.05116,0.07441 0.03566,0.03256 0.08682,0.05116 0.05271,0.01705 0.136425,0.01705 0.175183,0 0.300757,-0.06511 0.125574,-0.06511 0.203089,-0.190686 z"
           style="stroke-width:0.52"
           id="path6287" /><path
           d="m 60.858227,85.863928 q 0.162781,0.148828 0.257349,0.359668 0.09612,0.21084 0.09612,0.480591 0,0.240295 -0.08062,0.457336 -0.08062,0.217041 -0.232544,0.373621 -0.15968,0.162781 -0.375171,0.254248 -0.215491,0.08992 -0.513147,0.08992 -0.240295,0 -0.454236,-0.07906 -0.21394,-0.07906 -0.376721,-0.229443 -0.161231,-0.147278 -0.255798,-0.358118 -0.09457,-0.21084 -0.09457,-0.469739 0,-0.269751 0.09147,-0.488342 0.09302,-0.220142 0.254248,-0.376721 0.15968,-0.153479 0.378272,-0.235645 0.220141,-0.08371 0.468188,-0.08371 0.246497,0 0.461987,0.08061 0.217041,0.08062 0.375171,0.224792 z m -0.398425,1.573548 q 0.06976,-0.141077 0.100769,-0.319361 0.03101,-0.178283 0.03101,-0.403076 0,-0.190686 -0.02791,-0.37052 -0.02635,-0.181384 -0.09147,-0.322461 -0.06666,-0.141077 -0.176733,-0.226343 -0.110071,-0.08527 -0.274402,-0.08527 -0.280603,0 -0.426331,0.266651 -0.145727,0.2651 -0.145727,0.750341 0,0.206189 0.03101,0.389124 0.03256,0.182935 0.100769,0.31936 0.06976,0.137976 0.176733,0.215491 0.10697,0.07596 0.26355,0.07596 0.153479,0 0.26355,-0.07751 0.110071,-0.07752 0.175183,-0.21239 z"
           style="stroke-width:0.52"
           id="path6289" /><path
           d="M 64.483329,87.818848 H 63.63997 Q 63.421378,87.483984 63.275651,87.285547 63.131474,87.087109 62.915983,86.82666 h -0.08527 v 0.668176 q 0,0.05581 0.02015,0.09457 0.0217,0.03876 0.08062,0.06511 0.02945,0.0124 0.09147,0.02635 0.06356,0.0124 0.108521,0.01705 v 0.120923 h -1.173572 v -0.120923 q 0.04496,-0.0047 0.117822,-0.0124 0.07441,-0.0093 0.10542,-0.0217 0.05891,-0.0248 0.07906,-0.06201 0.02015,-0.03876 0.02015,-0.09767 v -1.551843 q 0,-0.05581 -0.01705,-0.09302 -0.01705,-0.03721 -0.08217,-0.06511 -0.04961,-0.02015 -0.117822,-0.03411 -0.06666,-0.01395 -0.10542,-0.02015 V 85.61898 h 1.234033 q 0.413928,0 0.627869,0.130225 0.21549,0.128674 0.21549,0.390673 0,0.230994 -0.133325,0.372071 -0.131775,0.139526 -0.403076,0.218591 0.10542,0.136426 0.244946,0.31626 0.141077,0.179834 0.293006,0.367419 0.04806,0.06046 0.130224,0.148828 0.08372,0.08682 0.147278,0.106971 0.03566,0.01085 0.08992,0.0186 0.05581,0.0078 0.07906,0.0093 z M 63.42758,86.183289 q 0,-0.220142 -0.124024,-0.320911 -0.122473,-0.102319 -0.350366,-0.102319 h -0.122473 v 0.920874 h 0.117822 q 0.227893,0 0.353467,-0.119373 0.125574,-0.119372 0.125574,-0.378271 z"
           style="stroke-width:0.52"
           id="path6291" /><path
           d="m 66.999972,85.845325 q 0.201538,0.131775 0.325561,0.351916 0.124024,0.218592 0.124024,0.536402 0,0.279052 -0.111622,0.486792 -0.11007,0.206189 -0.293005,0.337963 -0.186035,0.131775 -0.42323,0.196888 -0.235644,0.06356 -0.494543,0.06356 h -1.10846 v -0.120923 q 0.04961,-0.0015 0.124024,-0.0093 0.07441,-0.0078 0.09922,-0.0186 0.05581,-0.02325 0.07751,-0.06201 0.0217,-0.04031 0.0217,-0.09612 v -1.559595 q 0,-0.05271 -0.02015,-0.09457 -0.02015,-0.04341 -0.07906,-0.06976 -0.05891,-0.02635 -0.125573,-0.03566 -0.06511,-0.0093 -0.100769,-0.0124 v -0.120923 h 1.170471 q 0.187585,0 0.401526,0.04806 0.21394,0.04806 0.412378,0.178284 z m -0.31626,1.576648 q 0.07596,-0.124024 0.110071,-0.294556 0.03566,-0.172083 0.03566,-0.395325 0,-0.218591 -0.04651,-0.398425 -0.04651,-0.179834 -0.136426,-0.306958 -0.08992,-0.127124 -0.224793,-0.196887 -0.133325,-0.06976 -0.303857,-0.06976 -0.05426,0 -0.124024,0.0031 -0.06821,0.0016 -0.102319,0.0031 v 1.669665 q 0,0.05581 0.01395,0.09922 0.0155,0.04186 0.05116,0.07441 0.03566,0.03256 0.08682,0.05116 0.05271,0.01705 0.136426,0.01705 0.175183,0 0.300756,-0.06511 0.125574,-0.06511 0.203089,-0.190686 z"
           style="stroke-width:0.52"
           id="path6293" /><path
           d="M 70.583216,87.818848 H 69.38484 v -0.120923 q 0.08371,-0.0062 0.196887,-0.02946 0.113171,-0.0248 0.113171,-0.06046 0,-0.0124 -0.0031,-0.02791 -0.0016,-0.0155 -0.0124,-0.04186 L 69.49181,87.082459 h -0.759644 q -0.02636,0.06356 -0.05891,0.148828 -0.03101,0.08527 -0.05426,0.151928 -0.02946,0.08682 -0.03566,0.125574 -0.0047,0.03876 -0.0047,0.05426 0,0.04961 0.07441,0.08527 0.07596,0.03411 0.251148,0.04961 v 0.120923 h -0.902271 v -0.120923 q 0.05116,-0.0031 0.114722,-0.0155 0.06511,-0.01395 0.102319,-0.03721 0.06356,-0.03721 0.106971,-0.09147 0.04496,-0.05426 0.07441,-0.128675 0.179834,-0.435632 0.359668,-0.872815 0.181384,-0.437182 0.399975,-0.964282 h 0.310059 q 0.303857,0.747241 0.47594,1.181323 0.172082,0.434082 0.293005,0.719336 0.02015,0.04651 0.05116,0.08527 0.03101,0.03721 0.08837,0.07131 0.04341,0.02481 0.100769,0.03721 0.05736,0.0124 0.10387,0.0155 z M 69.428248,86.92898 69.108887,86.132129 68.794178,86.92898 Z"
           style="stroke-width:0.52"
           id="path6295" /><path
           d="m 73.113811,85.845325 q 0.201538,0.131775 0.325561,0.351916 0.124024,0.218592 0.124024,0.536402 0,0.279052 -0.111621,0.486792 -0.110071,0.206189 -0.293006,0.337963 -0.186035,0.131775 -0.42323,0.196888 -0.235644,0.06356 -0.494543,0.06356 h -1.10846 v -0.120923 q 0.04961,-0.0015 0.124024,-0.0093 0.07441,-0.0078 0.09922,-0.0186 0.05581,-0.02325 0.07752,-0.06201 0.0217,-0.04031 0.0217,-0.09612 v -1.559595 q 0,-0.05271 -0.02015,-0.09457 -0.02015,-0.04341 -0.07906,-0.06976 -0.05891,-0.02635 -0.125573,-0.03566 -0.06511,-0.0093 -0.100769,-0.0124 v -0.120923 h 1.170471 q 0.187585,0 0.401526,0.04806 0.21394,0.04806 0.412378,0.178284 z m -0.31626,1.576648 q 0.07596,-0.124024 0.110071,-0.294556 0.03566,-0.172083 0.03566,-0.395325 0,-0.218591 -0.04651,-0.398425 -0.04651,-0.179834 -0.136426,-0.306958 -0.08992,-0.127124 -0.224793,-0.196887 -0.133325,-0.06976 -0.303857,-0.06976 -0.05426,0 -0.124023,0.0031 -0.06821,0.0016 -0.10232,0.0031 v 1.669665 q 0,0.05581 0.01395,0.09922 0.0155,0.04186 0.05116,0.07441 0.03566,0.03256 0.08682,0.05116 0.05271,0.01705 0.136426,0.01705 0.175183,0 0.300757,-0.06511 0.125573,-0.06511 0.203088,-0.190686 z"
           style="stroke-width:0.52"
           id="path6297" /><path
           d="m 76.697054,87.818848 h -1.198376 v -0.120923 q 0.08372,-0.0062 0.196887,-0.02946 0.113171,-0.0248 0.113171,-0.06046 0,-0.0124 -0.0031,-0.02791 -0.0016,-0.0155 -0.0124,-0.04186 l -0.187585,-0.455786 h -0.759644 q -0.02635,0.06356 -0.05891,0.148828 -0.03101,0.08527 -0.05426,0.151928 -0.02945,0.08682 -0.03566,0.125574 -0.0047,0.03876 -0.0047,0.05426 0,0.04961 0.07442,0.08527 0.07596,0.03411 0.251147,0.04961 v 0.120923 h -0.902271 v -0.120923 q 0.05116,-0.0031 0.114722,-0.0155 0.06511,-0.01395 0.10232,-0.03721 0.06356,-0.03721 0.10697,-0.09147 0.04496,-0.05426 0.07441,-0.128675 0.179834,-0.435632 0.359668,-0.872815 0.181384,-0.437182 0.399975,-0.964282 h 0.310059 q 0.303857,0.747241 0.47594,1.181323 0.172082,0.434082 0.293005,0.719336 0.02015,0.04651 0.05116,0.08527 0.03101,0.03721 0.08837,0.07131 0.04341,0.02481 0.100769,0.03721 0.05736,0.0124 0.103869,0.0155 z m -1.154968,-0.889868 -0.31936,-0.796851 -0.31471,0.796851 z"
           style="stroke-width:0.52"
           id="path6299" /><path
           d="m 80.269448,87.818848 h -1.192176 v -0.120923 q 0.05271,-0.0047 0.128675,-0.0155 0.07751,-0.01085 0.10542,-0.02326 0.05736,-0.02325 0.08216,-0.06356 0.02481,-0.04031 0.02481,-0.102319 v -1.64331 l -0.756543,1.933215 h -0.195337 q -0.01395,-0.05116 -0.06976,-0.203088 -0.05426,-0.151929 -0.08837,-0.243396 l -0.556555,-1.511536 v 1.337903 q 0,0.192236 0.02481,0.293005 0.02635,0.09922 0.08371,0.145728 0.03876,0.03256 0.137976,0.06201 0.10077,0.02946 0.141077,0.03411 v 0.120923 h -0.945679 v -0.120923 q 0.03876,-0.0047 0.125574,-0.02015 0.08837,-0.01705 0.144177,-0.05736 0.06201,-0.04341 0.08372,-0.145727 0.0217,-0.10387 0.0217,-0.294556 v -1.089856 q 0,-0.09922 -0.0248,-0.164331 -0.02481,-0.06666 -0.07441,-0.10542 -0.06201,-0.04806 -0.127124,-0.06201 -0.06511,-0.01395 -0.131775,-0.0186 v -0.120923 h 1.012341 l 0.542603,1.452624 0.457336,-1.179772 q 0.02325,-0.06511 0.04496,-0.15503 0.02171,-0.08992 0.02326,-0.117822 h 0.975134 v 0.120923 q -0.04961,0.0031 -0.10387,0.0124 -0.05426,0.0093 -0.103869,0.02481 -0.06046,0.02015 -0.08062,0.06356 -0.0186,0.04341 -0.0186,0.09612 v 1.558044 q 0,0.05581 0.0186,0.09457 0.02015,0.03721 0.08062,0.06511 0.03101,0.01395 0.100769,0.02635 0.07131,0.0124 0.110071,0.01705 z"
           style="stroke-width:0.52"
           id="path6301" /><path
           d="m 83.05739,85.863928 q 0.162781,0.148828 0.257349,0.359668 0.09612,0.21084 0.09612,0.480591 0,0.240295 -0.08061,0.457336 -0.08061,0.217041 -0.232544,0.373621 -0.15968,0.162781 -0.375171,0.254248 -0.215491,0.08992 -0.513147,0.08992 -0.240295,0 -0.454236,-0.07906 -0.21394,-0.07906 -0.376721,-0.229443 -0.161231,-0.147278 -0.255798,-0.358118 -0.09457,-0.21084 -0.09457,-0.469739 0,-0.269751 0.09147,-0.488342 0.09302,-0.220142 0.254248,-0.376721 0.15968,-0.153479 0.378272,-0.235645 0.220141,-0.08371 0.468188,-0.08371 0.246497,0 0.461987,0.08061 0.217041,0.08062 0.375171,0.224792 z m -0.398425,1.573548 q 0.06976,-0.141077 0.100769,-0.319361 0.03101,-0.178283 0.03101,-0.403076 0,-0.190686 -0.02791,-0.37052 -0.02635,-0.181384 -0.09147,-0.322461 -0.06666,-0.141077 -0.176733,-0.226343 -0.110071,-0.08527 -0.274402,-0.08527 -0.280603,0 -0.426331,0.266651 -0.145727,0.2651 -0.145727,0.750341 0,0.206189 0.03101,0.389124 0.03256,0.182935 0.100769,0.31936 0.06976,0.137976 0.176733,0.215491 0.10697,0.07596 0.26355,0.07596 0.153479,0 0.26355,-0.07751 0.110071,-0.07752 0.175183,-0.21239 z"
           style="stroke-width:0.52"
           id="path6303" /><path
           d="m 85.079489,87.877759 q -0.201538,0 -0.376721,-0.04961 -0.173633,-0.04961 -0.294556,-0.117822 l -0.10697,0.108521 h -0.131775 l -0.02015,-0.795301 h 0.133326 q 0.04496,0.113172 0.114721,0.238745 0.06976,0.125574 0.161231,0.224793 0.09457,0.10387 0.21084,0.168982 0.117822,0.06511 0.274401,0.06511 0.21084,0 0.322461,-0.102319 0.113172,-0.10387 0.113172,-0.260449 0,-0.128675 -0.09612,-0.215491 -0.09457,-0.08837 -0.294556,-0.151929 -0.130225,-0.04186 -0.240296,-0.07751 -0.10852,-0.03566 -0.204638,-0.07286 -0.221692,-0.08837 -0.330213,-0.252698 -0.10697,-0.164331 -0.10697,-0.367419 0,-0.128675 0.05581,-0.246497 0.05581,-0.119373 0.16278,-0.21394 0.10232,-0.08837 0.262,-0.144178 0.15968,-0.05581 0.347266,-0.05581 0.182934,0 0.342614,0.05116 0.159681,0.04961 0.251148,0.100769 l 0.09457,-0.09302 h 0.134875 l 0.0124,0.750342 h -0.133326 q -0.04651,-0.120923 -0.11007,-0.246497 -0.06201,-0.127124 -0.131775,-0.21084 -0.07596,-0.08992 -0.175183,-0.142627 -0.09922,-0.05426 -0.232544,-0.05426 -0.167432,0 -0.274402,0.09457 -0.10542,0.09457 -0.10542,0.234094 0,0.131775 0.09147,0.215491 0.09302,0.08372 0.288355,0.147278 0.114721,0.03876 0.234094,0.07751 0.119372,0.03876 0.21239,0.07441 0.224792,0.08682 0.341064,0.240296 0.117823,0.151929 0.117823,0.378271 0,0.142627 -0.06666,0.275953 -0.06666,0.133325 -0.179834,0.221691 -0.124023,0.09767 -0.286804,0.150379 -0.162781,0.05271 -0.379822,0.05271 z"
           style="stroke-width:0.52"
           id="path6305" /></g></g></g></svg>
